%TF.GenerationSoftware,KiCad,Pcbnew,9.0.7*%
%TF.CreationDate,2026-02-19T19:24:31+05:30*%
%TF.ProjectId,pcb-n-as5600,7063622d-6e2d-4617-9335-3630302e6b69,rev?*%
%TF.SameCoordinates,Original*%
%TF.FileFunction,Copper,L1,Top*%
%TF.FilePolarity,Positive*%
%FSLAX46Y46*%
G04 Gerber Fmt 4.6, Leading zero omitted, Abs format (unit mm)*
G04 Created by KiCad (PCBNEW 9.0.7) date 2026-02-19 19:24:31*
%MOMM*%
%LPD*%
G01*
G04 APERTURE LIST*
G04 Aperture macros list*
%AMRoundRect*
0 Rectangle with rounded corners*
0 $1 Rounding radius*
0 $2 $3 $4 $5 $6 $7 $8 $9 X,Y pos of 4 corners*
0 Add a 4 corners polygon primitive as box body*
4,1,4,$2,$3,$4,$5,$6,$7,$8,$9,$2,$3,0*
0 Add four circle primitives for the rounded corners*
1,1,$1+$1,$2,$3*
1,1,$1+$1,$4,$5*
1,1,$1+$1,$6,$7*
1,1,$1+$1,$8,$9*
0 Add four rect primitives between the rounded corners*
20,1,$1+$1,$2,$3,$4,$5,0*
20,1,$1+$1,$4,$5,$6,$7,0*
20,1,$1+$1,$6,$7,$8,$9,0*
20,1,$1+$1,$8,$9,$2,$3,0*%
G04 Aperture macros list end*
%TA.AperFunction,SMDPad,CuDef*%
%ADD10RoundRect,0.237500X0.237500X-0.300000X0.237500X0.300000X-0.237500X0.300000X-0.237500X-0.300000X0*%
%TD*%
%TA.AperFunction,SMDPad,CuDef*%
%ADD11RoundRect,0.237500X0.287500X0.237500X-0.287500X0.237500X-0.287500X-0.237500X0.287500X-0.237500X0*%
%TD*%
%TA.AperFunction,SMDPad,CuDef*%
%ADD12R,1.000000X1.100000*%
%TD*%
%TA.AperFunction,SMDPad,CuDef*%
%ADD13RoundRect,0.150000X0.150000X0.425000X-0.150000X0.425000X-0.150000X-0.425000X0.150000X-0.425000X0*%
%TD*%
%TA.AperFunction,SMDPad,CuDef*%
%ADD14RoundRect,0.075000X0.075000X0.500000X-0.075000X0.500000X-0.075000X-0.500000X0.075000X-0.500000X0*%
%TD*%
%TA.AperFunction,HeatsinkPad*%
%ADD15O,1.000000X2.100000*%
%TD*%
%TA.AperFunction,HeatsinkPad*%
%ADD16O,1.000000X1.800000*%
%TD*%
%TA.AperFunction,ComponentPad*%
%ADD17C,6.400000*%
%TD*%
%TA.AperFunction,ComponentPad*%
%ADD18C,1.350000*%
%TD*%
%TA.AperFunction,ComponentPad*%
%ADD19R,1.350000X1.350000*%
%TD*%
%TA.AperFunction,SMDPad,CuDef*%
%ADD20RoundRect,0.250000X-2.000000X-0.750000X2.000000X-0.750000X2.000000X0.750000X-2.000000X0.750000X0*%
%TD*%
%TA.AperFunction,SMDPad,CuDef*%
%ADD21RoundRect,0.237500X0.250000X0.237500X-0.250000X0.237500X-0.250000X-0.237500X0.250000X-0.237500X0*%
%TD*%
%TA.AperFunction,SMDPad,CuDef*%
%ADD22RoundRect,0.237500X-0.237500X0.300000X-0.237500X-0.300000X0.237500X-0.300000X0.237500X0.300000X0*%
%TD*%
%TA.AperFunction,SMDPad,CuDef*%
%ADD23RoundRect,0.237500X-0.237500X0.250000X-0.237500X-0.250000X0.237500X-0.250000X0.237500X0.250000X0*%
%TD*%
%TA.AperFunction,SMDPad,CuDef*%
%ADD24RoundRect,0.375000X-0.625000X-0.375000X0.625000X-0.375000X0.625000X0.375000X-0.625000X0.375000X0*%
%TD*%
%TA.AperFunction,SMDPad,CuDef*%
%ADD25RoundRect,0.500000X-0.500000X-1.400000X0.500000X-1.400000X0.500000X1.400000X-0.500000X1.400000X0*%
%TD*%
%TA.AperFunction,SMDPad,CuDef*%
%ADD26RoundRect,0.075000X0.075000X-0.662500X0.075000X0.662500X-0.075000X0.662500X-0.075000X-0.662500X0*%
%TD*%
%TA.AperFunction,SMDPad,CuDef*%
%ADD27RoundRect,0.075000X0.662500X-0.075000X0.662500X0.075000X-0.662500X0.075000X-0.662500X-0.075000X0*%
%TD*%
%TA.AperFunction,ViaPad*%
%ADD28C,0.600000*%
%TD*%
%TA.AperFunction,Conductor*%
%ADD29C,0.300000*%
%TD*%
%TA.AperFunction,Conductor*%
%ADD30C,0.200000*%
%TD*%
G04 APERTURE END LIST*
D10*
%TO.P,C1,2*%
%TO.N,GND*%
X145750000Y-88100000D03*
%TO.P,C1,1*%
%TO.N,+3.3V*%
X145750000Y-89825000D03*
%TD*%
D11*
%TO.P,D1,2,A*%
%TO.N,Net-(D1-A)*%
X143250000Y-100000000D03*
%TO.P,D1,1,K*%
%TO.N,LED*%
X145000000Y-100000000D03*
%TD*%
D10*
%TO.P,C11,2*%
%TO.N,GND*%
X159210000Y-83275000D03*
%TO.P,C11,1*%
%TO.N,+3.3V*%
X159210000Y-85000000D03*
%TD*%
D12*
%TO.P,S2,1*%
%TO.N,NRST*%
X143250000Y-80250000D03*
%TO.P,S2,2*%
%TO.N,GND*%
X143250000Y-72750000D03*
%TD*%
%TO.P,S1,1*%
%TO.N,BOOTO*%
X162250000Y-72250000D03*
%TO.P,S1,2*%
%TO.N,GND*%
X162250000Y-79750000D03*
%TD*%
D13*
%TO.P,J6,A1,GND*%
%TO.N,GND*%
X155450000Y-78430000D03*
%TO.P,J6,A4,VBUS*%
%TO.N,Net-(C8-Pad2)*%
X154650000Y-78430000D03*
D14*
%TO.P,J6,A5,CC1*%
%TO.N,Net-(J6-CC1)*%
X153500000Y-78430000D03*
%TO.P,J6,A6,D+*%
%TO.N,MCU_D+*%
X152500000Y-78430000D03*
%TO.P,J6,A7,D-*%
%TO.N,MCU_D-*%
X152000000Y-78430000D03*
%TO.P,J6,A8*%
%TO.N,N/C*%
X151000000Y-78430000D03*
D13*
%TO.P,J6,A9,VBUS*%
%TO.N,Net-(C8-Pad2)*%
X149850000Y-78430000D03*
%TO.P,J6,A12,GND*%
%TO.N,GND*%
X149050000Y-78430000D03*
%TO.P,J6,B1,GND*%
X149050000Y-78430000D03*
%TO.P,J6,B4,VBUS*%
%TO.N,Net-(C8-Pad2)*%
X149850000Y-78430000D03*
D14*
%TO.P,J6,B5,CC2*%
%TO.N,Net-(J6-CC2)*%
X150500000Y-78430000D03*
%TO.P,J6,B6,D+*%
%TO.N,MCU_D+*%
X151500000Y-78430000D03*
%TO.P,J6,B7,D-*%
%TO.N,MCU_D-*%
X153000000Y-78430000D03*
%TO.P,J6,B8*%
%TO.N,N/C*%
X154000000Y-78430000D03*
D13*
%TO.P,J6,B9,VBUS*%
%TO.N,Net-(C8-Pad2)*%
X154650000Y-78430000D03*
%TO.P,J6,B12,GND*%
%TO.N,GND*%
X155450000Y-78430000D03*
D15*
%TO.P,J6,S1,SHIELD*%
%TO.N,unconnected-(J6-SHIELD-PadS1)*%
X156570000Y-77855000D03*
D16*
%TO.N,unconnected-(J6-SHIELD-PadS1)_3*%
X156570000Y-73675000D03*
D15*
%TO.N,unconnected-(J6-SHIELD-PadS1)_2*%
X147930000Y-77855000D03*
D16*
%TO.N,unconnected-(J6-SHIELD-PadS1)_1*%
X147930000Y-73675000D03*
%TD*%
D17*
%TO.P,H2,1*%
%TO.N,N/C*%
X134250000Y-68500000D03*
%TD*%
D18*
%TO.P,J2,4,Pin_4*%
%TO.N,dum4*%
X165750000Y-86250000D03*
%TO.P,J2,3,Pin_3*%
%TO.N,dum3*%
X165750000Y-88250000D03*
%TO.P,J2,2,Pin_2*%
%TO.N,dum2*%
X165750000Y-90250000D03*
D19*
%TO.P,J2,1,Pin_1*%
%TO.N,dum1*%
X165750000Y-92250000D03*
%TD*%
D20*
%TO.P,Y2,2,2*%
%TO.N,/OSC_IN*%
X152000000Y-95500000D03*
%TO.P,Y2,1,1*%
%TO.N,/OSC_OUT*%
X143500000Y-95500000D03*
%TD*%
D17*
%TO.P,H1,1*%
%TO.N,N/C*%
X134500000Y-105500000D03*
%TD*%
D21*
%TO.P,R16,2*%
%TO.N,+3.3V*%
X139175000Y-100000000D03*
%TO.P,R16,1*%
%TO.N,Net-(D1-A)*%
X141000000Y-100000000D03*
%TD*%
D22*
%TO.P,C3,2*%
%TO.N,GND*%
X159210000Y-89225000D03*
%TO.P,C3,1*%
%TO.N,+3.3V*%
X159210000Y-87500000D03*
%TD*%
D10*
%TO.P,C2,2*%
%TO.N,GND*%
X145613572Y-83987500D03*
%TO.P,C2,1*%
%TO.N,+3.3V*%
X145613572Y-85712500D03*
%TD*%
D17*
%TO.P,H4,1*%
%TO.N,N/C*%
X170250000Y-105250000D03*
%TD*%
D23*
%TO.P,R9,2*%
%TO.N,+3.3V*%
X165500000Y-76575000D03*
%TO.P,R9,1*%
%TO.N,BOOTO*%
X165500000Y-74750000D03*
%TD*%
D17*
%TO.P,H3,1*%
%TO.N,N/C*%
X171000000Y-68750000D03*
%TD*%
D19*
%TO.P,J1,1,Pin_1*%
%TO.N,SWDIO*%
X139250000Y-83750000D03*
D18*
%TO.P,J1,2,Pin_2*%
%TO.N,SCLK*%
X139250000Y-85750000D03*
%TO.P,J1,3,Pin_3*%
%TO.N,+3.3V*%
X139250000Y-87750000D03*
%TO.P,J1,4,Pin_4*%
%TO.N,GND*%
X139250000Y-89750000D03*
%TD*%
D24*
%TO.P,U1,1,ADJ*%
%TO.N,Net-(U1-ADJ)*%
X159700000Y-95700000D03*
%TO.P,U1,2,VO*%
%TO.N,+3.3V*%
X159700000Y-98000000D03*
D25*
X166000000Y-98000000D03*
D24*
%TO.P,U1,3,VI*%
%TO.N,+5V*%
X159700000Y-100300000D03*
%TD*%
D26*
%TO.P,U5,1,VBAT*%
%TO.N,+3.3V*%
X149797888Y-90512500D03*
%TO.P,U5,2,PC13*%
%TO.N,LED*%
X150297888Y-90512500D03*
%TO.P,U5,3,PC14*%
%TO.N,unconnected-(U5-PC14-Pad3)*%
X150797888Y-90512500D03*
%TO.P,U5,4,PC15*%
%TO.N,unconnected-(U5-PC15-Pad4)*%
X151297888Y-90512500D03*
%TO.P,U5,5,PD0*%
%TO.N,/OSC_IN*%
X151797888Y-90512500D03*
%TO.P,U5,6,PD1*%
%TO.N,/OSC_OUT*%
X152297888Y-90512500D03*
%TO.P,U5,7,NRST*%
%TO.N,NRST*%
X152797888Y-90512500D03*
%TO.P,U5,8,VSSA*%
%TO.N,GND*%
X153297888Y-90512500D03*
%TO.P,U5,9,VDDA*%
%TO.N,unconnected-(U5-VDDA-Pad9)*%
X153797888Y-90512500D03*
%TO.P,U5,10,PA0*%
%TO.N,/OUT*%
X154297888Y-90512500D03*
%TO.P,U5,11,PA1*%
%TO.N,dum1*%
X154797888Y-90512500D03*
%TO.P,U5,12,PA2*%
%TO.N,dum2*%
X155297888Y-90512500D03*
D27*
%TO.P,U5,13,PA3*%
%TO.N,dum3*%
X156710388Y-89100000D03*
%TO.P,U5,14,PA4*%
%TO.N,dum4*%
X156710388Y-88600000D03*
%TO.P,U5,15,PA5*%
%TO.N,unconnected-(U5-PA5-Pad15)*%
X156710388Y-88100000D03*
%TO.P,U5,16,PA6*%
%TO.N,unconnected-(U5-PA6-Pad16)*%
X156710388Y-87600000D03*
%TO.P,U5,17,PA7*%
%TO.N,unconnected-(U5-PA7-Pad17)*%
X156710388Y-87100000D03*
%TO.P,U5,18,PB0*%
%TO.N,unconnected-(U5-PB0-Pad18)*%
X156710388Y-86600000D03*
%TO.P,U5,19,PB1*%
%TO.N,unconnected-(U5-PB1-Pad19)*%
X156710388Y-86100000D03*
%TO.P,U5,20,PB2*%
%TO.N,unconnected-(U5-PB2-Pad20)*%
X156710388Y-85600000D03*
%TO.P,U5,21,PB10*%
%TO.N,unconnected-(U5-PB10-Pad21)*%
X156710388Y-85100000D03*
%TO.P,U5,22,PB11*%
%TO.N,unconnected-(U5-PB11-Pad22)*%
X156710388Y-84600000D03*
%TO.P,U5,23,VSS*%
%TO.N,GND*%
X156710388Y-84100000D03*
%TO.P,U5,24,VDD*%
%TO.N,+3.3V*%
X156710388Y-83600000D03*
D26*
%TO.P,U5,25,PB12*%
%TO.N,unconnected-(U5-PB12-Pad25)*%
X155297888Y-82187500D03*
%TO.P,U5,26,PB13*%
%TO.N,unconnected-(U5-PB13-Pad26)*%
X154797888Y-82187500D03*
%TO.P,U5,27,PB14*%
%TO.N,unconnected-(U5-PB14-Pad27)*%
X154297888Y-82187500D03*
%TO.P,U5,28,PB15*%
%TO.N,unconnected-(U5-PB15-Pad28)*%
X153797888Y-82187500D03*
%TO.P,U5,29,PA8*%
%TO.N,unconnected-(U5-PA8-Pad29)*%
X153297888Y-82187500D03*
%TO.P,U5,30,PA9*%
%TO.N,unconnected-(U5-PA9-Pad30)*%
X152797888Y-82187500D03*
%TO.P,U5,31,PA10*%
%TO.N,unconnected-(U5-PA10-Pad31)*%
X152297888Y-82187500D03*
%TO.P,U5,32,PA11*%
%TO.N,MCU_D-*%
X151797888Y-82187500D03*
%TO.P,U5,33,PA12*%
%TO.N,MCU_D+*%
X151297888Y-82187500D03*
%TO.P,U5,34,PA13*%
%TO.N,SWDIO*%
X150797888Y-82187500D03*
%TO.P,U5,35,VSS*%
%TO.N,GND*%
X150297888Y-82187500D03*
%TO.P,U5,36,VDD*%
%TO.N,+3.3V*%
X149797888Y-82187500D03*
D27*
%TO.P,U5,37,PA14*%
%TO.N,SCLK*%
X148385388Y-83600000D03*
%TO.P,U5,38,PA15*%
%TO.N,unconnected-(U5-PA15-Pad38)*%
X148385388Y-84100000D03*
%TO.P,U5,39,PB3*%
%TO.N,unconnected-(U5-PB3-Pad39)*%
X148385388Y-84600000D03*
%TO.P,U5,40,PB4*%
%TO.N,unconnected-(U5-PB4-Pad40)*%
X148385388Y-85100000D03*
%TO.P,U5,41,PB5*%
%TO.N,unconnected-(U5-PB5-Pad41)*%
X148385388Y-85600000D03*
%TO.P,U5,42,PB6*%
%TO.N,SDA*%
X148385388Y-86100000D03*
%TO.P,U5,43,PB7*%
%TO.N,SCL*%
X148385388Y-86600000D03*
%TO.P,U5,44,BOOT0*%
%TO.N,BOOTO*%
X148385388Y-87100000D03*
%TO.P,U5,45,PB8*%
%TO.N,unconnected-(U5-PB8-Pad45)*%
X148385388Y-87600000D03*
%TO.P,U5,46,PB9*%
%TO.N,unconnected-(U5-PB9-Pad46)*%
X148385388Y-88100000D03*
%TO.P,U5,47,VSS*%
%TO.N,GND*%
X148385388Y-88600000D03*
%TO.P,U5,48,VDD*%
%TO.N,+3.3V*%
X148385388Y-89100000D03*
%TD*%
D22*
%TO.P,C13,2*%
%TO.N,/OSC_OUT*%
X139250000Y-96500000D03*
%TO.P,C13,1*%
%TO.N,GND*%
X139250000Y-94775000D03*
%TD*%
%TO.P,C14,2*%
%TO.N,NRST*%
X139000000Y-76612500D03*
%TO.P,C14,1*%
%TO.N,GND*%
X139000000Y-74887500D03*
%TD*%
%TO.P,C10,2*%
%TO.N,/OSC_IN*%
X155750000Y-96500000D03*
%TO.P,C10,1*%
%TO.N,GND*%
X155750000Y-94775000D03*
%TD*%
D28*
%TO.N,GND*%
X146000000Y-81000000D03*
X148000000Y-80250000D03*
%TO.N,/OSC_IN*%
X154250000Y-99250000D03*
X149250000Y-99199997D03*
%TO.N,+3.3V*%
X144250000Y-90750000D03*
X148000000Y-90000000D03*
X148500000Y-92000000D03*
X148500000Y-81750000D03*
X161750000Y-81000000D03*
X156750000Y-98500000D03*
X147002618Y-84752618D03*
X156540064Y-82666407D03*
%TO.N,Net-(J6-CC2)*%
X150750000Y-80000000D03*
%TO.N,Net-(C8-Pad2)*%
X154875000Y-80375000D03*
%TO.N,BOOTO*%
X158750000Y-73500000D03*
X147000000Y-87250000D03*
%TO.N,NRST*%
X140500000Y-80000000D03*
X137900000Y-81000000D03*
X149250000Y-100000000D03*
%TO.N,GND*%
X142750000Y-81750000D03*
X158500000Y-77750000D03*
X153250000Y-92250000D03*
X147100000Y-88250000D03*
X160750000Y-80000000D03*
%TO.N,/OUT*%
X153750000Y-83500000D03*
%TO.N,+5V*%
X157750000Y-100250000D03*
%TO.N,Net-(J6-CC1)*%
X153250000Y-80750000D03*
%TO.N,MCU_D+*%
X152000000Y-80000000D03*
%TO.N,Net-(U1-ADJ)*%
X157750000Y-95750000D03*
%TO.N,dum1*%
X154449997Y-92000000D03*
%TO.N,dum2*%
X155250000Y-92000000D03*
%TO.N,dum3*%
X157975737Y-89574266D03*
%TO.N,dum4*%
X158000000Y-88750000D03*
%TO.N,SDA*%
X147000000Y-85649994D03*
%TO.N,SCL*%
X146250000Y-86750000D03*
%TD*%
D29*
%TO.N,GND*%
X155058520Y-84100000D02*
X156710388Y-84100000D01*
X154750000Y-83750000D02*
X154750000Y-83791480D01*
X155077422Y-83750000D02*
X154750000Y-83750000D01*
X155890064Y-82937358D02*
X155077422Y-83750000D01*
X154750000Y-83791480D02*
X155058520Y-84100000D01*
X156418242Y-81731815D02*
X155890064Y-82259993D01*
X155890064Y-82259993D02*
X155890064Y-82937358D01*
X157666815Y-81731815D02*
X156418242Y-81731815D01*
X159210000Y-83275000D02*
X157666815Y-81731815D01*
D30*
X146500000Y-81500000D02*
X146500000Y-81750000D01*
X146000000Y-81000000D02*
X146500000Y-81500000D01*
X149050000Y-79200000D02*
X148000000Y-80250000D01*
X149050000Y-78430000D02*
X149050000Y-79200000D01*
%TO.N,/OSC_OUT*%
X149346888Y-89692176D02*
X149565064Y-89474000D01*
X152030712Y-89474000D02*
X152297888Y-89741176D01*
X152297888Y-89741176D02*
X152297888Y-90512500D01*
X144000000Y-95500000D02*
X149346888Y-90153112D01*
X149565064Y-89474000D02*
X152030712Y-89474000D01*
X143500000Y-95500000D02*
X144000000Y-95500000D01*
X149346888Y-90153112D02*
X149346888Y-89692176D01*
D29*
%TO.N,+3.3V*%
X139175000Y-100524000D02*
X139175000Y-100000000D01*
X140401000Y-101750000D02*
X139175000Y-100524000D01*
X154131346Y-100750000D02*
X153631346Y-100250000D01*
X154750000Y-100750000D02*
X154131346Y-100750000D01*
X155500000Y-100000000D02*
X154750000Y-100750000D01*
X152000000Y-100250000D02*
X150500000Y-101750000D01*
X155500000Y-99750000D02*
X155500000Y-100000000D01*
X150500000Y-101750000D02*
X140401000Y-101750000D01*
X153631346Y-100250000D02*
X152000000Y-100250000D01*
X156750000Y-98500000D02*
X155500000Y-99750000D01*
D30*
%TO.N,/OSC_IN*%
X155750000Y-97500000D02*
X155750000Y-96500000D01*
X154250000Y-99000000D02*
X155750000Y-97500000D01*
X154250000Y-99250000D02*
X154250000Y-99000000D01*
X149250000Y-98250000D02*
X149250000Y-99199997D01*
X152000000Y-95500000D02*
X149250000Y-98250000D01*
D29*
%TO.N,NRST*%
X152797888Y-91702112D02*
X152797888Y-90512500D01*
X152599000Y-91901000D02*
X152797888Y-91702112D01*
X152599000Y-92519654D02*
X152599000Y-91901000D01*
X154228346Y-94149000D02*
X152599000Y-92519654D01*
X154255870Y-94149000D02*
X154228346Y-94149000D01*
X154601000Y-94494130D02*
X154255870Y-94149000D01*
X154601000Y-96505870D02*
X154601000Y-94494130D01*
X151106870Y-100000000D02*
X154601000Y-96505870D01*
X149250000Y-100000000D02*
X151106870Y-100000000D01*
D30*
%TO.N,SWDIO*%
X138000000Y-83750000D02*
X139250000Y-83750000D01*
X138501000Y-81499000D02*
X138000000Y-82000000D01*
X138501000Y-80751057D02*
X138501000Y-81499000D01*
X138500000Y-80750057D02*
X138501000Y-80751057D01*
X138500000Y-79250000D02*
X138500000Y-80750057D01*
X138000000Y-78750000D02*
X138500000Y-79250000D01*
X139399000Y-71351000D02*
X138000000Y-72750000D01*
X146964785Y-72815785D02*
X145500000Y-71351000D01*
X146964785Y-76035215D02*
X146964785Y-72815785D01*
X146500000Y-76500000D02*
X146964785Y-76035215D01*
X146663355Y-76771760D02*
X146500000Y-76771760D01*
X146678000Y-76786405D02*
X146663355Y-76771760D01*
X145500000Y-71351000D02*
X139399000Y-71351000D01*
X146678000Y-76881144D02*
X146678000Y-76786405D01*
X146500000Y-76771760D02*
X146500000Y-76500000D01*
X147750000Y-81250000D02*
X146500000Y-80000000D01*
X149786810Y-80399000D02*
X148851000Y-80399000D01*
X148851000Y-80399000D02*
X148000000Y-81250000D01*
X138000000Y-82000000D02*
X138000000Y-83750000D01*
X150797888Y-81410078D02*
X149786810Y-80399000D01*
X146500000Y-80000000D02*
X146500000Y-77059144D01*
X150797888Y-82187500D02*
X150797888Y-81410078D01*
X148000000Y-81250000D02*
X147750000Y-81250000D01*
X146500000Y-77059144D02*
X146678000Y-76881144D01*
X138000000Y-72750000D02*
X138000000Y-78750000D01*
D29*
%TO.N,+3.3V*%
X144250000Y-88500000D02*
X144875000Y-89125000D01*
X144750000Y-87000000D02*
X144750000Y-87250000D01*
X144974000Y-86776000D02*
X144750000Y-87000000D01*
X144974000Y-86352072D02*
X144974000Y-86776000D01*
X145613572Y-85712500D02*
X144974000Y-86352072D01*
X144750000Y-87250000D02*
X144250000Y-87750000D01*
X144250000Y-87750000D02*
X144250000Y-88500000D01*
X145000000Y-89000000D02*
X144875000Y-89125000D01*
X147000000Y-89000000D02*
X145000000Y-89000000D01*
X144250000Y-89750000D02*
X144875000Y-89125000D01*
X144250000Y-90750000D02*
X144250000Y-89750000D01*
X143000000Y-89500000D02*
X141000000Y-89500000D01*
X141000000Y-89500000D02*
X139250000Y-87750000D01*
X144250000Y-90750000D02*
X143000000Y-89500000D01*
%TO.N,Net-(C8-Pad2)*%
X154501000Y-78251000D02*
X154501000Y-77772176D01*
X154750000Y-78500000D02*
X154501000Y-78251000D01*
D30*
X154451000Y-77772176D02*
X154451000Y-77785588D01*
X154232824Y-77554000D02*
X154451000Y-77772176D01*
X153767176Y-77554000D02*
X154232824Y-77554000D01*
X153750000Y-77571176D02*
X153767176Y-77554000D01*
X153732824Y-77554000D02*
X153750000Y-77571176D01*
X153554000Y-77554000D02*
X153732824Y-77554000D01*
X151097000Y-77153000D02*
X153153000Y-77153000D01*
X153153000Y-77153000D02*
X153554000Y-77554000D01*
X150696000Y-77554000D02*
X151097000Y-77153000D01*
X150267176Y-77554000D02*
X150696000Y-77554000D01*
X150049000Y-77772176D02*
X150267176Y-77554000D01*
X149750000Y-78250000D02*
X150000000Y-78250000D01*
X154451000Y-77785588D02*
X154464412Y-77785588D01*
X150000000Y-78250000D02*
X150049000Y-78201000D01*
X150049000Y-78201000D02*
X150049000Y-77772176D01*
D29*
%TO.N,+3.3V*%
X145613572Y-85712500D02*
X146042736Y-85712500D01*
X163101000Y-80399000D02*
X165500000Y-78000000D01*
X148000000Y-90000000D02*
X147250000Y-89250000D01*
X157980000Y-86270000D02*
X159210000Y-87500000D01*
X161750000Y-81000000D02*
X161750000Y-82460000D01*
X147250000Y-89100000D02*
X148385388Y-89100000D01*
X166000000Y-98000000D02*
X159700000Y-98000000D01*
X157810000Y-83600000D02*
X157980000Y-83770000D01*
X162500000Y-81000000D02*
X162849000Y-80651000D01*
X165500000Y-78000000D02*
X165500000Y-76575000D01*
D30*
X148500000Y-91810388D02*
X148500000Y-92000000D01*
D29*
X147100000Y-89100000D02*
X147250000Y-89100000D01*
D30*
X149797888Y-90512500D02*
X148500000Y-91810388D01*
D29*
X162849000Y-80651000D02*
X163101000Y-80651000D01*
X161750000Y-82460000D02*
X159210000Y-85000000D01*
X156750000Y-98500000D02*
X157750000Y-98500000D01*
X156710388Y-83600000D02*
X157810000Y-83600000D01*
X157980000Y-83770000D02*
X159210000Y-85000000D01*
X158250000Y-98000000D02*
X159700000Y-98000000D01*
X157980000Y-83770000D02*
X157980000Y-86270000D01*
X146042736Y-85712500D02*
X147002618Y-84752618D01*
X145750000Y-89825000D02*
X146575000Y-89000000D01*
D30*
X148500000Y-81750000D02*
X149500000Y-81750000D01*
D29*
X163101000Y-80651000D02*
X163101000Y-80399000D01*
X146575000Y-89000000D02*
X147000000Y-89000000D01*
X147000000Y-89000000D02*
X147100000Y-89100000D01*
X156540064Y-82666407D02*
X156876407Y-82666407D01*
X161750000Y-81000000D02*
X162500000Y-81000000D01*
X157750000Y-98500000D02*
X158250000Y-98000000D01*
D30*
X149797888Y-82047888D02*
X149797888Y-82187500D01*
D29*
X147250000Y-89250000D02*
X147250000Y-89100000D01*
D30*
X149500000Y-81750000D02*
X149797888Y-82047888D01*
D29*
X156876407Y-82666407D02*
X157810000Y-83600000D01*
%TO.N,Net-(J6-CC2)*%
X150750000Y-80000000D02*
X150500000Y-79750000D01*
X150500000Y-79750000D02*
X150500000Y-78430000D01*
%TO.N,LED*%
X145000000Y-100000000D02*
X145000000Y-97750000D01*
X145000000Y-97750000D02*
X150500000Y-92250000D01*
X145000000Y-97750000D02*
X145250000Y-97500000D01*
X150297888Y-92047888D02*
X150297888Y-90512500D01*
X150500000Y-92250000D02*
X150297888Y-92047888D01*
D30*
%TO.N,Net-(D1-A)*%
X141802000Y-99250000D02*
X141776000Y-99224000D01*
X143250000Y-100000000D02*
X142500000Y-99250000D01*
X142500000Y-99250000D02*
X141802000Y-99250000D01*
D29*
X141000000Y-100000000D02*
X141776000Y-99224000D01*
%TO.N,Net-(C8-Pad2)*%
X154650000Y-78430000D02*
X154650000Y-80150000D01*
X154650000Y-80150000D02*
X154875000Y-80375000D01*
%TO.N,BOOTO*%
X148385388Y-87100000D02*
X147150000Y-87100000D01*
X165500000Y-74750000D02*
X165500000Y-72750000D01*
X164500000Y-72250000D02*
X162250000Y-72250000D01*
X164750000Y-72000000D02*
X164500000Y-72250000D01*
X159000000Y-73500000D02*
X160250000Y-72250000D01*
X158750000Y-73500000D02*
X159000000Y-73500000D01*
X160250000Y-72250000D02*
X162250000Y-72250000D01*
X147150000Y-87100000D02*
X147000000Y-87250000D01*
X165500000Y-72750000D02*
X164750000Y-72000000D01*
%TO.N,NRST*%
X139750000Y-77500000D02*
X139750000Y-77362500D01*
X139750000Y-79250000D02*
X140500000Y-80000000D01*
X140500000Y-80000000D02*
X143000000Y-80000000D01*
X139750000Y-77362500D02*
X139750000Y-79250000D01*
X139750000Y-77362500D02*
X139000000Y-76612500D01*
%TO.N,GND*%
X161000000Y-79750000D02*
X160750000Y-80000000D01*
X145750000Y-81750000D02*
X142750000Y-81750000D01*
X159210000Y-88805634D02*
X159210000Y-89225000D01*
X153250000Y-92250000D02*
X153475000Y-92250000D01*
X162250000Y-79750000D02*
X161000000Y-79750000D01*
X148768354Y-82500000D02*
X149544354Y-83276000D01*
X146500000Y-82500000D02*
X146500000Y-83101072D01*
X158500000Y-77750000D02*
X156375000Y-79875000D01*
X147450000Y-88600000D02*
X147100000Y-88250000D01*
X146500000Y-83101072D02*
X145613572Y-83987500D01*
X147750000Y-82500000D02*
X147000000Y-81750000D01*
X147500000Y-82500000D02*
X146500000Y-82500000D01*
X159210000Y-82710000D02*
X159210000Y-83275000D01*
X148385388Y-88600000D02*
X147450000Y-88600000D01*
X146500000Y-81750000D02*
X145750000Y-81750000D01*
X156375000Y-79875000D02*
X159210000Y-82710000D01*
X153475000Y-92250000D02*
X155750000Y-94525000D01*
X147750000Y-82500000D02*
X147500000Y-82500000D01*
X153297888Y-92202112D02*
X153250000Y-92250000D01*
X147100000Y-88250000D02*
X145900000Y-88250000D01*
X150297888Y-83202112D02*
X150297888Y-82187500D01*
X155450000Y-78430000D02*
X155450000Y-78950000D01*
X150224000Y-83276000D02*
X150297888Y-83202112D01*
X147500000Y-82500000D02*
X148768354Y-82500000D01*
X149544354Y-83276000D02*
X150224000Y-83276000D01*
X145900000Y-88250000D02*
X145750000Y-88100000D01*
X147000000Y-81750000D02*
X146500000Y-81750000D01*
X155450000Y-78950000D02*
X156375000Y-79875000D01*
X153297888Y-90512500D02*
X153297888Y-92202112D01*
%TO.N,/OUT*%
X154297888Y-90512500D02*
X154297888Y-84047888D01*
X154297888Y-84047888D02*
X153750000Y-83500000D01*
%TO.N,+5V*%
X157800000Y-100300000D02*
X157750000Y-100250000D01*
X159700000Y-100300000D02*
X157800000Y-100300000D01*
D30*
%TO.N,SCLK*%
X147306706Y-83600000D02*
X148385388Y-83600000D01*
X146080706Y-84826000D02*
X147306706Y-83600000D01*
X140174000Y-84826000D02*
X146080706Y-84826000D01*
X139250000Y-85750000D02*
X140174000Y-84826000D01*
D29*
%TO.N,Net-(J6-CC1)*%
X153250000Y-80750000D02*
X153500000Y-80500000D01*
X153500000Y-80500000D02*
X153500000Y-78430000D01*
D30*
%TO.N,MCU_D+*%
X152000000Y-80000000D02*
X152000000Y-79550003D01*
X151500000Y-80832957D02*
X151297888Y-81035069D01*
X152500000Y-78430000D02*
X152500000Y-79500000D01*
X151500000Y-78430000D02*
X151500000Y-80832957D01*
X152500000Y-79500000D02*
X152000000Y-80000000D01*
X152000000Y-79550003D02*
X151500000Y-79050003D01*
X151500000Y-79050003D02*
X151500000Y-78430000D01*
X151297888Y-81035069D02*
X151297888Y-82187500D01*
%TO.N,MCU_D-*%
X152000000Y-78430000D02*
X152000000Y-77821176D01*
X153000000Y-79900057D02*
X151797888Y-81102169D01*
X153000000Y-77821176D02*
X153000000Y-78430000D01*
X152267176Y-77554000D02*
X152732824Y-77554000D01*
X152732824Y-77554000D02*
X153000000Y-77821176D01*
X152000000Y-77821176D02*
X152267176Y-77554000D01*
X153000000Y-78430000D02*
X153000000Y-79900057D01*
X151797888Y-81102169D02*
X151797888Y-82187500D01*
%TO.N,/OSC_IN*%
X152000000Y-95500000D02*
X151797888Y-95297888D01*
X151797888Y-95297888D02*
X151797888Y-90512500D01*
D29*
%TO.N,Net-(U1-ADJ)*%
X157800000Y-95700000D02*
X157750000Y-95750000D01*
X159700000Y-95700000D02*
X157800000Y-95700000D01*
%TO.N,dum1*%
X154797888Y-90512500D02*
X154797888Y-91602169D01*
X154797888Y-91602169D02*
X154449997Y-91950060D01*
%TO.N,dum2*%
X155250000Y-92000000D02*
X155250000Y-90560388D01*
X155250000Y-90560388D02*
X155297888Y-90512500D01*
%TO.N,dum3*%
X157975737Y-89574266D02*
X157184654Y-89574266D01*
X157184654Y-89574266D02*
X156710388Y-89100000D01*
%TO.N,dum4*%
X157850000Y-88600000D02*
X156710388Y-88600000D01*
X158000000Y-88750000D02*
X157850000Y-88600000D01*
D30*
%TO.N,/OSC_OUT*%
X139250000Y-96500000D02*
X142500000Y-96500000D01*
X142500000Y-96500000D02*
X143500000Y-95500000D01*
%TO.N,SDA*%
X147049940Y-85649994D02*
X147000000Y-85649994D01*
X148385388Y-86100000D02*
X147499946Y-86100000D01*
X147499946Y-86100000D02*
X147049940Y-85649994D01*
D29*
%TO.N,SCL*%
X146400000Y-86600000D02*
X146250000Y-86750000D01*
X148385388Y-86600000D02*
X146400000Y-86600000D01*
%TD*%
%TA.AperFunction,Conductor*%
%TO.N,GND*%
G36*
X137205703Y-81409726D02*
G01*
X137227602Y-81434548D01*
X137278210Y-81510288D01*
X137278213Y-81510292D01*
X137389708Y-81621787D01*
X137392314Y-81623528D01*
X137393371Y-81624793D01*
X137394419Y-81625653D01*
X137394256Y-81625851D01*
X137437122Y-81677138D01*
X137445833Y-81746462D01*
X137441934Y-81760206D01*
X137442527Y-81760365D01*
X137440424Y-81768213D01*
X137440423Y-81768215D01*
X137399499Y-81920943D01*
X137399499Y-81920945D01*
X137399499Y-82089046D01*
X137399500Y-82089059D01*
X137399500Y-83829057D01*
X137412929Y-83879172D01*
X137440423Y-83981783D01*
X137440426Y-83981790D01*
X137519475Y-84118709D01*
X137519479Y-84118714D01*
X137519480Y-84118716D01*
X137631284Y-84230520D01*
X137631286Y-84230521D01*
X137631290Y-84230524D01*
X137766006Y-84308301D01*
X137768216Y-84309577D01*
X137920943Y-84350500D01*
X137950501Y-84350500D01*
X138017540Y-84370185D01*
X138063295Y-84422989D01*
X138073437Y-84469611D01*
X138074099Y-84469576D01*
X138074146Y-84469571D01*
X138074146Y-84469573D01*
X138074324Y-84469564D01*
X138074501Y-84472876D01*
X138080908Y-84532483D01*
X138131202Y-84667328D01*
X138131206Y-84667335D01*
X138217452Y-84782544D01*
X138217453Y-84782544D01*
X138217454Y-84782546D01*
X138268740Y-84820939D01*
X138302539Y-84846241D01*
X138344409Y-84902175D01*
X138349393Y-84971867D01*
X138328545Y-85018392D01*
X138244624Y-85133900D01*
X138160620Y-85298764D01*
X138160619Y-85298767D01*
X138103445Y-85474734D01*
X138074500Y-85657486D01*
X138074500Y-85842513D01*
X138103445Y-86025265D01*
X138160619Y-86201232D01*
X138160620Y-86201235D01*
X138227909Y-86333295D01*
X138244622Y-86366096D01*
X138353379Y-86515787D01*
X138484213Y-86646621D01*
X138488421Y-86649678D01*
X138488432Y-86649686D01*
X138531094Y-86705019D01*
X138537069Y-86774633D01*
X138504459Y-86836426D01*
X138488432Y-86850314D01*
X138484210Y-86853381D01*
X138353381Y-86984210D01*
X138353381Y-86984211D01*
X138353379Y-86984213D01*
X138330438Y-87015789D01*
X138244622Y-87133903D01*
X138160620Y-87298764D01*
X138160619Y-87298767D01*
X138103445Y-87474734D01*
X138096317Y-87519737D01*
X138074500Y-87657486D01*
X138074500Y-87842514D01*
X138086347Y-87917310D01*
X138103445Y-88025265D01*
X138160619Y-88201232D01*
X138160620Y-88201235D01*
X138232606Y-88342513D01*
X138244622Y-88366096D01*
X138353379Y-88515787D01*
X138484213Y-88646621D01*
X138517985Y-88671158D01*
X138558831Y-88700834D01*
X138573806Y-88720254D01*
X139203553Y-89350000D01*
X139197339Y-89350000D01*
X139095606Y-89377259D01*
X139004394Y-89429920D01*
X138929920Y-89504394D01*
X138877259Y-89595606D01*
X138850000Y-89697339D01*
X138850000Y-89703553D01*
X138260015Y-89113568D01*
X138245049Y-89134167D01*
X138161084Y-89298956D01*
X138161083Y-89298959D01*
X138103933Y-89474852D01*
X138075000Y-89657526D01*
X138075000Y-89842473D01*
X138103933Y-90025147D01*
X138161083Y-90201040D01*
X138161084Y-90201043D01*
X138245050Y-90365834D01*
X138260015Y-90386430D01*
X138260016Y-90386431D01*
X138850000Y-89796447D01*
X138850000Y-89802661D01*
X138877259Y-89904394D01*
X138929920Y-89995606D01*
X139004394Y-90070080D01*
X139095606Y-90122741D01*
X139197339Y-90150000D01*
X139203553Y-90150000D01*
X138613568Y-90739983D01*
X138613568Y-90739984D01*
X138634165Y-90754949D01*
X138798956Y-90838915D01*
X138798959Y-90838916D01*
X138974852Y-90896066D01*
X139157527Y-90925000D01*
X139342473Y-90925000D01*
X139525147Y-90896066D01*
X139701040Y-90838916D01*
X139701043Y-90838915D01*
X139865836Y-90754947D01*
X139865845Y-90754942D01*
X139886430Y-90739984D01*
X139886431Y-90739983D01*
X139296448Y-90150000D01*
X139302661Y-90150000D01*
X139404394Y-90122741D01*
X139495606Y-90070080D01*
X139570080Y-89995606D01*
X139622741Y-89904394D01*
X139650000Y-89802661D01*
X139650000Y-89796446D01*
X140239983Y-90386430D01*
X140239984Y-90386430D01*
X140254942Y-90365845D01*
X140254947Y-90365836D01*
X140338915Y-90201043D01*
X140338917Y-90201037D01*
X140384861Y-90059634D01*
X140424298Y-90001958D01*
X140488656Y-89974759D01*
X140557503Y-89986673D01*
X140581452Y-90002094D01*
X140585332Y-90005278D01*
X140664427Y-90058127D01*
X140664428Y-90058127D01*
X140691873Y-90076465D01*
X140810256Y-90125501D01*
X140810260Y-90125501D01*
X140810261Y-90125502D01*
X140935928Y-90150500D01*
X140935931Y-90150500D01*
X141064069Y-90150500D01*
X142679192Y-90150500D01*
X142746231Y-90170185D01*
X142766873Y-90186819D01*
X143432984Y-90852930D01*
X143466469Y-90914253D01*
X143466920Y-90916420D01*
X143480261Y-90983489D01*
X143480264Y-90983501D01*
X143540602Y-91129172D01*
X143540609Y-91129185D01*
X143628210Y-91260288D01*
X143628213Y-91260292D01*
X143739707Y-91371786D01*
X143739711Y-91371789D01*
X143870814Y-91459390D01*
X143870827Y-91459397D01*
X144016498Y-91519735D01*
X144016503Y-91519737D01*
X144148068Y-91545907D01*
X144171153Y-91550499D01*
X144171156Y-91550500D01*
X144171158Y-91550500D01*
X144328844Y-91550500D01*
X144328845Y-91550499D01*
X144483497Y-91519737D01*
X144629179Y-91459394D01*
X144760289Y-91371789D01*
X144871789Y-91260289D01*
X144959394Y-91129179D01*
X145019737Y-90983497D01*
X145037947Y-90891950D01*
X145070331Y-90830039D01*
X145131047Y-90795465D01*
X145198565Y-90798434D01*
X145362247Y-90852674D01*
X145463323Y-90863000D01*
X146036676Y-90862999D01*
X146036684Y-90862998D01*
X146036687Y-90862998D01*
X146092030Y-90857344D01*
X146137753Y-90852674D01*
X146301516Y-90798408D01*
X146448350Y-90707840D01*
X146570340Y-90585850D01*
X146660908Y-90439016D01*
X146715174Y-90275253D01*
X146725500Y-90174177D01*
X146725499Y-89944806D01*
X146745183Y-89877768D01*
X146797987Y-89832013D01*
X146867146Y-89822069D01*
X146930701Y-89851094D01*
X146937180Y-89857126D01*
X147182984Y-90102929D01*
X147216469Y-90164252D01*
X147216920Y-90166419D01*
X147230261Y-90233489D01*
X147230264Y-90233501D01*
X147290602Y-90379172D01*
X147290609Y-90379185D01*
X147378210Y-90510288D01*
X147378213Y-90510292D01*
X147489707Y-90621786D01*
X147489711Y-90621789D01*
X147620814Y-90709390D01*
X147620827Y-90709397D01*
X147676029Y-90732262D01*
X147730433Y-90776102D01*
X147752498Y-90842396D01*
X147735219Y-90910096D01*
X147716258Y-90934504D01*
X144687582Y-93963181D01*
X144626259Y-93996666D01*
X144599901Y-93999500D01*
X141449998Y-93999500D01*
X141449981Y-93999501D01*
X141347203Y-94010000D01*
X141347200Y-94010001D01*
X141180668Y-94065185D01*
X141180663Y-94065187D01*
X141031342Y-94157289D01*
X140907289Y-94281342D01*
X140815187Y-94430663D01*
X140815185Y-94430668D01*
X140807984Y-94452399D01*
X140760001Y-94597203D01*
X140760001Y-94597204D01*
X140760000Y-94597204D01*
X140749500Y-94699983D01*
X140749500Y-94699991D01*
X140749500Y-95289038D01*
X140749501Y-95775500D01*
X140729817Y-95842539D01*
X140677013Y-95888294D01*
X140625501Y-95899500D01*
X140238452Y-95899500D01*
X140231522Y-95897465D01*
X140224408Y-95898702D01*
X140198445Y-95887752D01*
X140171413Y-95879815D01*
X140165109Y-95873693D01*
X140160029Y-95871551D01*
X140143656Y-95852860D01*
X140136145Y-95845566D01*
X140134464Y-95843111D01*
X140070340Y-95739150D01*
X140047886Y-95716696D01*
X140041391Y-95707212D01*
X140033987Y-95684482D01*
X140022532Y-95663504D01*
X140023364Y-95651869D01*
X140019751Y-95640778D01*
X140025810Y-95617653D01*
X140027516Y-95593812D01*
X140035186Y-95581876D01*
X140037463Y-95573191D01*
X140045541Y-95565765D01*
X140056021Y-95549460D01*
X140069947Y-95535535D01*
X140160448Y-95388811D01*
X140160453Y-95388800D01*
X140214680Y-95225152D01*
X140224999Y-95124154D01*
X140225000Y-95124141D01*
X140225000Y-95025000D01*
X138275001Y-95025000D01*
X138275001Y-95124154D01*
X138285319Y-95225152D01*
X138339546Y-95388800D01*
X138339551Y-95388811D01*
X138430052Y-95535534D01*
X138430055Y-95535538D01*
X138443982Y-95549465D01*
X138477467Y-95610788D01*
X138472483Y-95680480D01*
X138443984Y-95724825D01*
X138429661Y-95739148D01*
X138339093Y-95885981D01*
X138339091Y-95885986D01*
X138334613Y-95899500D01*
X138284826Y-96049747D01*
X138284826Y-96049748D01*
X138284825Y-96049748D01*
X138274500Y-96150815D01*
X138274500Y-96849169D01*
X138274501Y-96849187D01*
X138284825Y-96950252D01*
X138307766Y-97019481D01*
X138339092Y-97114016D01*
X138429660Y-97260850D01*
X138551650Y-97382840D01*
X138698484Y-97473408D01*
X138862247Y-97527674D01*
X138963323Y-97538000D01*
X139536676Y-97537999D01*
X139536684Y-97537998D01*
X139536687Y-97537998D01*
X139592030Y-97532344D01*
X139637753Y-97527674D01*
X139801516Y-97473408D01*
X139948350Y-97382840D01*
X140070340Y-97260850D01*
X140104356Y-97205702D01*
X140132914Y-97159403D01*
X140184862Y-97112678D01*
X140238452Y-97100500D01*
X142413331Y-97100500D01*
X142413347Y-97100501D01*
X142420943Y-97100501D01*
X142579054Y-97100501D01*
X142579057Y-97100501D01*
X142731785Y-97059577D01*
X142731787Y-97059575D01*
X142731789Y-97059575D01*
X142731790Y-97059574D01*
X142771205Y-97036818D01*
X142801233Y-97019481D01*
X142801240Y-97019477D01*
X142805342Y-97017109D01*
X142867336Y-97000499D01*
X144530193Y-97000499D01*
X144597232Y-97020184D01*
X144642987Y-97072988D01*
X144652931Y-97142146D01*
X144623906Y-97205702D01*
X144617874Y-97212180D01*
X144494725Y-97335328D01*
X144494724Y-97335329D01*
X144437521Y-97420942D01*
X144437519Y-97420945D01*
X144423536Y-97441870D01*
X144423533Y-97441875D01*
X144374499Y-97560255D01*
X144374497Y-97560261D01*
X144349500Y-97685928D01*
X144349500Y-99050098D01*
X144348838Y-99052351D01*
X144349417Y-99054627D01*
X144339044Y-99085705D01*
X144329815Y-99117137D01*
X144327809Y-99119368D01*
X144327297Y-99120903D01*
X144321481Y-99126406D01*
X144303226Y-99146714D01*
X144297186Y-99151572D01*
X144251650Y-99179660D01*
X144207942Y-99223367D01*
X144202726Y-99227564D01*
X144176376Y-99238452D01*
X144151358Y-99252114D01*
X144144504Y-99251623D01*
X144138152Y-99254249D01*
X144110098Y-99249163D01*
X144081666Y-99247130D01*
X144074901Y-99242782D01*
X144069403Y-99241786D01*
X144060651Y-99233624D01*
X144037319Y-99218629D01*
X143998351Y-99179661D01*
X143998350Y-99179660D01*
X143903498Y-99121155D01*
X143851518Y-99089093D01*
X143851513Y-99089091D01*
X143813410Y-99076465D01*
X143687753Y-99034826D01*
X143687751Y-99034825D01*
X143586684Y-99024500D01*
X143586677Y-99024500D01*
X143175097Y-99024500D01*
X143145656Y-99015855D01*
X143115670Y-99009332D01*
X143110654Y-99005577D01*
X143108058Y-99004815D01*
X143087416Y-98988181D01*
X142987590Y-98888355D01*
X142987588Y-98888352D01*
X142868717Y-98769481D01*
X142868716Y-98769480D01*
X142781904Y-98719360D01*
X142781904Y-98719359D01*
X142781900Y-98719358D01*
X142731785Y-98690423D01*
X142579057Y-98649499D01*
X142420943Y-98649499D01*
X142413347Y-98649499D01*
X142413331Y-98649500D01*
X142113536Y-98649500D01*
X142066083Y-98640061D01*
X142018209Y-98620231D01*
X141965744Y-98598499D01*
X141965738Y-98598497D01*
X141840071Y-98573500D01*
X141840069Y-98573500D01*
X141711931Y-98573500D01*
X141711929Y-98573500D01*
X141586262Y-98598497D01*
X141586256Y-98598499D01*
X141467876Y-98647533D01*
X141467869Y-98647537D01*
X141361331Y-98718723D01*
X141091871Y-98988182D01*
X141030548Y-99021666D01*
X141004190Y-99024500D01*
X140700831Y-99024500D01*
X140700812Y-99024501D01*
X140599747Y-99034825D01*
X140435984Y-99089092D01*
X140435981Y-99089093D01*
X140289148Y-99179661D01*
X140175181Y-99293629D01*
X140113858Y-99327114D01*
X140044166Y-99322130D01*
X139999819Y-99293629D01*
X139885851Y-99179661D01*
X139885850Y-99179660D01*
X139790998Y-99121155D01*
X139739018Y-99089093D01*
X139739013Y-99089091D01*
X139700910Y-99076465D01*
X139575253Y-99034826D01*
X139575251Y-99034825D01*
X139474178Y-99024500D01*
X138875830Y-99024500D01*
X138875812Y-99024501D01*
X138774747Y-99034825D01*
X138610984Y-99089092D01*
X138610981Y-99089093D01*
X138464148Y-99179661D01*
X138342161Y-99301648D01*
X138251593Y-99448481D01*
X138251591Y-99448486D01*
X138241062Y-99480261D01*
X138197326Y-99612247D01*
X138197326Y-99612248D01*
X138197325Y-99612248D01*
X138187000Y-99713315D01*
X138187000Y-100286669D01*
X138187001Y-100286687D01*
X138197325Y-100387752D01*
X138222362Y-100463306D01*
X138251592Y-100551516D01*
X138342160Y-100698350D01*
X138464150Y-100820340D01*
X138610984Y-100910908D01*
X138610986Y-100910908D01*
X138610987Y-100910909D01*
X138629414Y-100917015D01*
X138678095Y-100947041D01*
X139518873Y-101787819D01*
X139552358Y-101849142D01*
X139547374Y-101918834D01*
X139505502Y-101974767D01*
X139440038Y-101999184D01*
X139431192Y-101999500D01*
X138234625Y-101999500D01*
X138192967Y-101995489D01*
X138168998Y-101999500D01*
X138144695Y-101999500D01*
X138144687Y-101999501D01*
X138110019Y-102008789D01*
X138110020Y-102008790D01*
X138104261Y-102010332D01*
X138062990Y-102017240D01*
X138040879Y-102027315D01*
X138030942Y-102029978D01*
X138030937Y-102029980D01*
X138021079Y-102032622D01*
X138017401Y-102033608D01*
X138017400Y-102033608D01*
X138017398Y-102033609D01*
X137986310Y-102051555D01*
X137986311Y-102051556D01*
X137981150Y-102054535D01*
X137943072Y-102071890D01*
X137924321Y-102087346D01*
X137915395Y-102092500D01*
X137915392Y-102092500D01*
X137903274Y-102099498D01*
X137903268Y-102099503D01*
X137877887Y-102124883D01*
X137869087Y-102132877D01*
X137841382Y-102155716D01*
X137833252Y-102167115D01*
X137827268Y-102175503D01*
X137810087Y-102192686D01*
X137789170Y-102228913D01*
X137785707Y-102233769D01*
X137785706Y-102233772D01*
X137764857Y-102263002D01*
X137764854Y-102263008D01*
X137759952Y-102276116D01*
X137759953Y-102276117D01*
X137756343Y-102285771D01*
X137744195Y-102306814D01*
X137733361Y-102347241D01*
X137731277Y-102352818D01*
X137718706Y-102386441D01*
X137718705Y-102386443D01*
X137717363Y-102400385D01*
X137717362Y-102400384D01*
X137716375Y-102410636D01*
X137710087Y-102434108D01*
X137710087Y-102475955D01*
X137709516Y-102481887D01*
X137709516Y-102481891D01*
X137706076Y-102517616D01*
X137706076Y-102517623D01*
X137708386Y-102531422D01*
X137710087Y-102551891D01*
X137710087Y-102565892D01*
X137719379Y-102600570D01*
X137719378Y-102600570D01*
X137720920Y-102606325D01*
X137727827Y-102647597D01*
X137737901Y-102669704D01*
X137740566Y-102679649D01*
X137740569Y-102679656D01*
X137744194Y-102693185D01*
X137756953Y-102715285D01*
X137765120Y-102729430D01*
X137782477Y-102767515D01*
X137797933Y-102786265D01*
X137803083Y-102795184D01*
X137803085Y-102795187D01*
X137810087Y-102807314D01*
X137810088Y-102807315D01*
X137810089Y-102807316D01*
X137827789Y-102825016D01*
X137839391Y-102838407D01*
X137883415Y-102897242D01*
X137969204Y-103011893D01*
X138063551Y-103137980D01*
X138070087Y-103147631D01*
X138158860Y-103292964D01*
X138275130Y-103483312D01*
X138280723Y-103493518D01*
X138364922Y-103665924D01*
X138453346Y-103846983D01*
X138457963Y-103857686D01*
X138465300Y-103877163D01*
X138596628Y-104225799D01*
X138600216Y-104236875D01*
X138631000Y-104349767D01*
X138703700Y-104616376D01*
X138706235Y-104627755D01*
X138773623Y-105015293D01*
X138775078Y-105026858D01*
X138805778Y-105419017D01*
X138806140Y-105430670D01*
X138799876Y-105823965D01*
X138799143Y-105835598D01*
X138755975Y-106226581D01*
X138754152Y-106238095D01*
X138674462Y-106623278D01*
X138671567Y-106634570D01*
X138556054Y-107010584D01*
X138552111Y-107021554D01*
X138401799Y-107385059D01*
X138396843Y-107395610D01*
X138213061Y-107743389D01*
X138207136Y-107753428D01*
X137991509Y-108082412D01*
X137984667Y-108091851D01*
X137739100Y-108399131D01*
X137731403Y-108407885D01*
X137458062Y-108690751D01*
X137449576Y-108698744D01*
X137150885Y-108954689D01*
X137141686Y-108961850D01*
X136820278Y-109188615D01*
X136810448Y-109194880D01*
X136469162Y-109390464D01*
X136458787Y-109395778D01*
X136100642Y-109558450D01*
X136089813Y-109562766D01*
X135717990Y-109691082D01*
X135706804Y-109694363D01*
X135324564Y-109787197D01*
X135313120Y-109789413D01*
X134923843Y-109845945D01*
X134912241Y-109847076D01*
X134519391Y-109866802D01*
X134507733Y-109866839D01*
X134114756Y-109849585D01*
X134103147Y-109848527D01*
X133713524Y-109794448D01*
X133702066Y-109792304D01*
X133319257Y-109701879D01*
X133308050Y-109698669D01*
X132935405Y-109572688D01*
X132924554Y-109568441D01*
X132565387Y-109408025D01*
X132555001Y-109402787D01*
X132212474Y-109209345D01*
X132202605Y-109203142D01*
X131879792Y-108978415D01*
X131870548Y-108971313D01*
X131819746Y-108928333D01*
X131570237Y-108717240D01*
X131561720Y-108709319D01*
X131286588Y-108428163D01*
X131278843Y-108419465D01*
X131213044Y-108338185D01*
X131031339Y-108113728D01*
X131024452Y-108104351D01*
X130806741Y-107776706D01*
X130800766Y-107766725D01*
X130614793Y-107420097D01*
X130609771Y-107409577D01*
X130509569Y-107171510D01*
X130457172Y-107047023D01*
X130453163Y-107036085D01*
X130445153Y-107010584D01*
X130335286Y-106660805D01*
X130332325Y-106649556D01*
X130250202Y-106264836D01*
X130248313Y-106253368D01*
X130202682Y-105862645D01*
X130201877Y-105851021D01*
X130193139Y-105457758D01*
X130193427Y-105446132D01*
X130202631Y-105318209D01*
X130799500Y-105318209D01*
X130799500Y-105681790D01*
X130835137Y-106043630D01*
X130906064Y-106400212D01*
X130906067Y-106400223D01*
X131011614Y-106748165D01*
X131150754Y-107084078D01*
X131150756Y-107084083D01*
X131322140Y-107404720D01*
X131322151Y-107404738D01*
X131524140Y-107707035D01*
X131524150Y-107707049D01*
X131754807Y-107988106D01*
X132011893Y-108245192D01*
X132011898Y-108245196D01*
X132011899Y-108245197D01*
X132292956Y-108475854D01*
X132595268Y-108677853D01*
X132595277Y-108677858D01*
X132595279Y-108677859D01*
X132915916Y-108849243D01*
X132915918Y-108849243D01*
X132915924Y-108849247D01*
X133251836Y-108988386D01*
X133599767Y-109093930D01*
X133599773Y-109093931D01*
X133599776Y-109093932D01*
X133599787Y-109093935D01*
X133956369Y-109164862D01*
X134318206Y-109200500D01*
X134318209Y-109200500D01*
X134681791Y-109200500D01*
X134681794Y-109200500D01*
X135043631Y-109164862D01*
X135113045Y-109151054D01*
X135400212Y-109093935D01*
X135400223Y-109093932D01*
X135400223Y-109093931D01*
X135400233Y-109093930D01*
X135748164Y-108988386D01*
X136084076Y-108849247D01*
X136404732Y-108677853D01*
X136707044Y-108475854D01*
X136988101Y-108245197D01*
X137245197Y-107988101D01*
X137475854Y-107707044D01*
X137677853Y-107404732D01*
X137849247Y-107084076D01*
X137988386Y-106748164D01*
X138093930Y-106400233D01*
X138093932Y-106400223D01*
X138093935Y-106400212D01*
X138164862Y-106043630D01*
X138170876Y-105982568D01*
X138200500Y-105681794D01*
X138200500Y-105318206D01*
X138164862Y-104956369D01*
X138093935Y-104599787D01*
X138093932Y-104599776D01*
X138093931Y-104599773D01*
X138093930Y-104599767D01*
X137988386Y-104251836D01*
X137849247Y-103915924D01*
X137825921Y-103872285D01*
X137677859Y-103595279D01*
X137677858Y-103595277D01*
X137677853Y-103595268D01*
X137475854Y-103292956D01*
X137245197Y-103011899D01*
X137245196Y-103011898D01*
X137245192Y-103011893D01*
X136988106Y-102754807D01*
X136707049Y-102524150D01*
X136707048Y-102524149D01*
X136707044Y-102524146D01*
X136404732Y-102322147D01*
X136404727Y-102322144D01*
X136404720Y-102322140D01*
X136084083Y-102150756D01*
X136084078Y-102150754D01*
X136031781Y-102129092D01*
X135960347Y-102099503D01*
X135748165Y-102011614D01*
X135400223Y-101906067D01*
X135400212Y-101906064D01*
X135043630Y-101835137D01*
X134771111Y-101808296D01*
X134681794Y-101799500D01*
X134318206Y-101799500D01*
X134262344Y-101805002D01*
X133956369Y-101835137D01*
X133599787Y-101906064D01*
X133599776Y-101906067D01*
X133251834Y-102011614D01*
X132915921Y-102150754D01*
X132915916Y-102150756D01*
X132595279Y-102322140D01*
X132595261Y-102322151D01*
X132292964Y-102524140D01*
X132292950Y-102524150D01*
X132011893Y-102754807D01*
X131754807Y-103011893D01*
X131524150Y-103292950D01*
X131524140Y-103292964D01*
X131322151Y-103595261D01*
X131322140Y-103595279D01*
X131150756Y-103915916D01*
X131150754Y-103915921D01*
X131011614Y-104251834D01*
X130906067Y-104599776D01*
X130906064Y-104599787D01*
X130835137Y-104956369D01*
X130814513Y-105165777D01*
X130800677Y-105306263D01*
X130799500Y-105318209D01*
X130202631Y-105318209D01*
X130221658Y-105053778D01*
X130223040Y-105042206D01*
X130287989Y-104654238D01*
X130290447Y-104642867D01*
X130391546Y-104262701D01*
X130395059Y-104251617D01*
X130531408Y-103882629D01*
X130535955Y-103871906D01*
X130538440Y-103866736D01*
X130706353Y-103517351D01*
X130711872Y-103507128D01*
X130914823Y-103170122D01*
X130921277Y-103160464D01*
X131154971Y-102844016D01*
X131162299Y-102835012D01*
X131424682Y-102541900D01*
X131432841Y-102533606D01*
X131721579Y-102266437D01*
X131730486Y-102258943D01*
X131769757Y-102228930D01*
X132043012Y-102020090D01*
X132052586Y-102013460D01*
X132386183Y-101804996D01*
X132396329Y-101799301D01*
X132748036Y-101623080D01*
X132758659Y-101618369D01*
X133125351Y-101475957D01*
X133136386Y-101472258D01*
X133514834Y-101364910D01*
X133526162Y-101362265D01*
X133913013Y-101290930D01*
X133924538Y-101289360D01*
X134316385Y-101254668D01*
X134328010Y-101254188D01*
X134721380Y-101256445D01*
X134732999Y-101257059D01*
X135124412Y-101296245D01*
X135135924Y-101297947D01*
X135521937Y-101373718D01*
X135533235Y-101376493D01*
X135869165Y-101475961D01*
X135910408Y-101488173D01*
X135921416Y-101492003D01*
X136150399Y-101583971D01*
X136268938Y-101631580D01*
X136272689Y-101633158D01*
X136278873Y-101635880D01*
X136306814Y-101652012D01*
X136329040Y-101657967D01*
X136337734Y-101661795D01*
X136338030Y-101662044D01*
X136339340Y-101662516D01*
X136349676Y-101667242D01*
X136351763Y-101668197D01*
X136393493Y-101675237D01*
X136434108Y-101686120D01*
X136457996Y-101686120D01*
X136481711Y-101690121D01*
X136523849Y-101686120D01*
X136565892Y-101686120D01*
X136588968Y-101679936D01*
X136599314Y-101678954D01*
X136599315Y-101678954D01*
X136606076Y-101678312D01*
X136612905Y-101677664D01*
X136652562Y-101662896D01*
X136693186Y-101652012D01*
X136713876Y-101640064D01*
X136719533Y-101637958D01*
X136736405Y-101631677D01*
X136770879Y-101607155D01*
X136807314Y-101586120D01*
X136824214Y-101569218D01*
X136832683Y-101563195D01*
X136832683Y-101563194D01*
X136832687Y-101563192D01*
X136843793Y-101555293D01*
X136847756Y-101550499D01*
X136870732Y-101522701D01*
X136900500Y-101492934D01*
X136912459Y-101472219D01*
X136927754Y-101453716D01*
X136945326Y-101415292D01*
X136966392Y-101378806D01*
X136972587Y-101355685D01*
X136982564Y-101333870D01*
X136989588Y-101292235D01*
X137000500Y-101251512D01*
X137000500Y-101227559D01*
X137004488Y-101203922D01*
X137001055Y-101167765D01*
X137000500Y-101156045D01*
X137000500Y-94425845D01*
X138275000Y-94425845D01*
X138275000Y-94525000D01*
X139000000Y-94525000D01*
X139500000Y-94525000D01*
X140224999Y-94525000D01*
X140224999Y-94425860D01*
X140224998Y-94425845D01*
X140214680Y-94324847D01*
X140160453Y-94161199D01*
X140160448Y-94161188D01*
X140069947Y-94014465D01*
X140069944Y-94014461D01*
X139948038Y-93892555D01*
X139948034Y-93892552D01*
X139801311Y-93802051D01*
X139801300Y-93802046D01*
X139637652Y-93747819D01*
X139536654Y-93737500D01*
X139500000Y-93737500D01*
X139500000Y-94525000D01*
X139000000Y-94525000D01*
X139000000Y-93737500D01*
X138963361Y-93737500D01*
X138963343Y-93737501D01*
X138862347Y-93747819D01*
X138698699Y-93802046D01*
X138698688Y-93802051D01*
X138551965Y-93892552D01*
X138551961Y-93892555D01*
X138430055Y-94014461D01*
X138430052Y-94014465D01*
X138339551Y-94161188D01*
X138339546Y-94161199D01*
X138285319Y-94324847D01*
X138275000Y-94425845D01*
X137000500Y-94425845D01*
X137000500Y-81503439D01*
X137020185Y-81436400D01*
X137072989Y-81390645D01*
X137142147Y-81380701D01*
X137205703Y-81409726D01*
G37*
%TD.AperFunction*%
%TA.AperFunction,Conductor*%
G36*
X171351025Y-64451890D02*
G01*
X171362645Y-64452695D01*
X171753355Y-64498324D01*
X171764848Y-64500218D01*
X172149552Y-64582337D01*
X172160801Y-64585298D01*
X172536089Y-64703178D01*
X172547019Y-64707184D01*
X172909583Y-64859788D01*
X172920079Y-64864798D01*
X173266718Y-65050778D01*
X173276700Y-65056754D01*
X173604343Y-65274463D01*
X173613720Y-65281350D01*
X173919460Y-65528855D01*
X173928148Y-65536591D01*
X174170899Y-65774140D01*
X174209301Y-65811719D01*
X174217237Y-65820252D01*
X174318573Y-65940030D01*
X174471303Y-66120556D01*
X174478405Y-66129800D01*
X174622398Y-66336642D01*
X174703137Y-66452620D01*
X174709329Y-66462470D01*
X174902779Y-66805013D01*
X174908020Y-66815407D01*
X175068429Y-67174557D01*
X175072678Y-67185413D01*
X175198655Y-67558051D01*
X175201865Y-67569257D01*
X175292291Y-67952068D01*
X175294435Y-67963526D01*
X175348515Y-68353148D01*
X175349573Y-68364757D01*
X175366826Y-68757733D01*
X175366789Y-68769391D01*
X175347063Y-69162240D01*
X175345932Y-69173842D01*
X175289400Y-69563117D01*
X175287184Y-69574561D01*
X175194352Y-69956790D01*
X175191072Y-69967976D01*
X175062751Y-70339817D01*
X175058434Y-70350646D01*
X174895767Y-70708782D01*
X174890453Y-70719157D01*
X174694869Y-71060443D01*
X174688603Y-71070274D01*
X174461840Y-71391677D01*
X174454680Y-71400875D01*
X174198735Y-71699568D01*
X174190742Y-71708054D01*
X173907876Y-71981393D01*
X173899122Y-71989090D01*
X173591844Y-72234656D01*
X173582405Y-72241498D01*
X173253422Y-72457125D01*
X173243383Y-72463050D01*
X172895605Y-72646831D01*
X172885054Y-72651787D01*
X172521550Y-72802099D01*
X172510580Y-72806042D01*
X172134577Y-72921552D01*
X172123285Y-72924448D01*
X171738083Y-73004141D01*
X171726569Y-73005963D01*
X171335597Y-73049130D01*
X171323964Y-73049863D01*
X170930670Y-73056127D01*
X170919018Y-73055765D01*
X170829967Y-73048793D01*
X170526859Y-73025065D01*
X170515294Y-73023610D01*
X170127758Y-72956222D01*
X170116379Y-72953687D01*
X169736886Y-72850206D01*
X169725796Y-72846614D01*
X169705705Y-72839046D01*
X169604934Y-72801086D01*
X169357697Y-72707953D01*
X169346994Y-72703336D01*
X168993533Y-72530717D01*
X168983310Y-72525114D01*
X168807447Y-72417692D01*
X168647633Y-72320073D01*
X168637995Y-72313545D01*
X168338322Y-72089311D01*
X168335184Y-72086883D01*
X168329818Y-72082591D01*
X168307314Y-72060087D01*
X168287064Y-72048395D01*
X168279738Y-72042536D01*
X168279509Y-72042209D01*
X168278317Y-72041382D01*
X168275623Y-72039161D01*
X168267515Y-72032477D01*
X168234844Y-72017587D01*
X168224275Y-72012144D01*
X168193185Y-71994194D01*
X168179656Y-71990569D01*
X168179656Y-71990568D01*
X168169705Y-71987901D01*
X168147597Y-71977827D01*
X168106323Y-71970919D01*
X168100584Y-71969382D01*
X168100577Y-71969380D01*
X168065892Y-71960087D01*
X168065888Y-71960087D01*
X168041588Y-71960087D01*
X168017620Y-71956076D01*
X167975961Y-71960087D01*
X167934108Y-71960087D01*
X167934107Y-71960087D01*
X167920583Y-71963710D01*
X167900385Y-71967363D01*
X167886443Y-71968705D01*
X167886441Y-71968706D01*
X167862046Y-71977827D01*
X167847241Y-71983362D01*
X167806814Y-71994195D01*
X167785771Y-72006343D01*
X167776117Y-72009953D01*
X167776115Y-72009953D01*
X167763008Y-72014854D01*
X167763002Y-72014857D01*
X167733772Y-72035706D01*
X167728920Y-72039166D01*
X167692686Y-72060087D01*
X167675504Y-72077267D01*
X167667116Y-72083251D01*
X167667115Y-72083252D01*
X167655716Y-72091382D01*
X167632877Y-72119087D01*
X167629084Y-72123687D01*
X167599500Y-72153273D01*
X167587354Y-72174308D01*
X167580797Y-72182263D01*
X167580798Y-72182263D01*
X167571893Y-72193065D01*
X167571890Y-72193071D01*
X167557002Y-72225737D01*
X167551559Y-72236305D01*
X167533609Y-72267398D01*
X167529980Y-72280937D01*
X167528671Y-72285822D01*
X167527317Y-72290876D01*
X167517240Y-72312990D01*
X167510332Y-72354261D01*
X167508790Y-72360020D01*
X167508789Y-72360021D01*
X167499501Y-72394687D01*
X167499500Y-72394695D01*
X167499500Y-72418998D01*
X167495489Y-72442967D01*
X167499500Y-72484625D01*
X167499500Y-95894279D01*
X167479815Y-95961318D01*
X167427011Y-96007073D01*
X167357853Y-96017017D01*
X167294297Y-95987992D01*
X167279398Y-95972640D01*
X167211109Y-95888890D01*
X167053409Y-95760304D01*
X167053410Y-95760304D01*
X167053407Y-95760302D01*
X166873049Y-95666091D01*
X166873048Y-95666090D01*
X166873045Y-95666089D01*
X166755829Y-95632550D01*
X166677418Y-95610114D01*
X166677415Y-95610113D01*
X166677413Y-95610113D01*
X166611102Y-95604217D01*
X166558037Y-95599500D01*
X166558032Y-95599500D01*
X165441971Y-95599500D01*
X165441965Y-95599500D01*
X165441964Y-95599501D01*
X165430316Y-95600536D01*
X165322584Y-95610113D01*
X165126954Y-95666089D01*
X165091743Y-95684482D01*
X164946593Y-95760302D01*
X164946591Y-95760303D01*
X164946590Y-95760304D01*
X164788890Y-95888890D01*
X164660304Y-96046590D01*
X164660302Y-96046593D01*
X164658654Y-96049748D01*
X164566089Y-96226954D01*
X164524648Y-96371789D01*
X164515776Y-96402796D01*
X164510114Y-96422583D01*
X164510113Y-96422586D01*
X164499500Y-96541966D01*
X164499500Y-97225500D01*
X164479815Y-97292539D01*
X164427011Y-97338294D01*
X164375500Y-97349500D01*
X161242537Y-97349500D01*
X161175498Y-97329815D01*
X161131450Y-97280597D01*
X161067030Y-97150704D01*
X160947722Y-97002278D01*
X160928537Y-96986857D01*
X160878514Y-96946647D01*
X160838595Y-96889304D01*
X160836015Y-96819482D01*
X160871594Y-96759349D01*
X160878514Y-96753353D01*
X160887909Y-96745800D01*
X160947722Y-96697722D01*
X161067030Y-96549296D01*
X161151641Y-96378693D01*
X161197600Y-96193889D01*
X161200500Y-96151123D01*
X161200499Y-95248878D01*
X161197600Y-95206111D01*
X161151641Y-95021307D01*
X161128407Y-94974459D01*
X161067032Y-94850707D01*
X161067030Y-94850704D01*
X160947722Y-94702278D01*
X160947721Y-94702277D01*
X160799295Y-94582969D01*
X160799292Y-94582967D01*
X160628697Y-94498360D01*
X160443892Y-94452400D01*
X160422506Y-94450950D01*
X160401123Y-94449500D01*
X160401120Y-94449500D01*
X158998877Y-94449500D01*
X158998874Y-94449501D01*
X158956113Y-94452399D01*
X158956112Y-94452399D01*
X158771303Y-94498360D01*
X158600707Y-94582967D01*
X158600704Y-94582969D01*
X158452278Y-94702277D01*
X158452277Y-94702278D01*
X158332969Y-94850704D01*
X158332967Y-94850707D01*
X158271593Y-94974459D01*
X158224172Y-95025772D01*
X158156537Y-95043302D01*
X158113053Y-95033926D01*
X157983501Y-94980264D01*
X157983489Y-94980261D01*
X157828845Y-94949500D01*
X157828842Y-94949500D01*
X157671158Y-94949500D01*
X157671155Y-94949500D01*
X157516510Y-94980261D01*
X157516498Y-94980264D01*
X157370827Y-95040602D01*
X157370814Y-95040609D01*
X157239711Y-95128210D01*
X157239707Y-95128213D01*
X157128213Y-95239707D01*
X157128210Y-95239711D01*
X157040609Y-95370814D01*
X157040602Y-95370827D01*
X156980264Y-95516498D01*
X156980261Y-95516510D01*
X156949500Y-95671153D01*
X156949500Y-95828846D01*
X156980261Y-95983489D01*
X156980264Y-95983501D01*
X157040602Y-96129172D01*
X157040609Y-96129185D01*
X157128210Y-96260288D01*
X157128213Y-96260292D01*
X157239707Y-96371786D01*
X157239711Y-96371789D01*
X157370814Y-96459390D01*
X157370827Y-96459397D01*
X157516498Y-96519735D01*
X157516503Y-96519737D01*
X157665085Y-96549292D01*
X157671153Y-96550499D01*
X157671156Y-96550500D01*
X157671158Y-96550500D01*
X157828844Y-96550500D01*
X157828845Y-96550499D01*
X157983497Y-96519737D01*
X158129179Y-96459394D01*
X158131455Y-96457872D01*
X158132829Y-96457442D01*
X158134546Y-96456525D01*
X158134720Y-96456850D01*
X158198128Y-96436993D01*
X158265509Y-96455474D01*
X158311436Y-96505877D01*
X158332970Y-96549296D01*
X158452277Y-96697721D01*
X158452278Y-96697722D01*
X158521486Y-96753353D01*
X158561405Y-96810696D01*
X158563985Y-96880518D01*
X158528406Y-96940651D01*
X158521486Y-96946647D01*
X158452278Y-97002277D01*
X158452277Y-97002278D01*
X158332969Y-97150704D01*
X158266771Y-97284182D01*
X158219350Y-97335494D01*
X158179875Y-97350704D01*
X158060261Y-97374497D01*
X158060255Y-97374499D01*
X157982130Y-97406860D01*
X157948131Y-97420943D01*
X157941873Y-97423535D01*
X157835326Y-97494726D01*
X157835325Y-97494727D01*
X157516873Y-97813181D01*
X157489945Y-97827884D01*
X157464127Y-97844477D01*
X157457926Y-97845368D01*
X157455550Y-97846666D01*
X157429192Y-97849500D01*
X157254935Y-97849500D01*
X157187896Y-97829815D01*
X157186090Y-97828633D01*
X157129179Y-97790606D01*
X157129172Y-97790602D01*
X156983501Y-97730264D01*
X156983489Y-97730261D01*
X156828845Y-97699500D01*
X156828842Y-97699500D01*
X156671158Y-97699500D01*
X156671155Y-97699500D01*
X156516510Y-97730261D01*
X156516489Y-97730267D01*
X156516488Y-97730268D01*
X156516487Y-97730268D01*
X156510676Y-97732031D01*
X156510341Y-97730927D01*
X156447018Y-97737725D01*
X156384544Y-97706440D01*
X156348902Y-97646345D01*
X156345227Y-97609172D01*
X156345911Y-97596180D01*
X156350500Y-97579057D01*
X156350500Y-97509136D01*
X156350672Y-97505873D01*
X156361226Y-97475870D01*
X156370185Y-97445361D01*
X156372894Y-97442700D01*
X156373858Y-97439963D01*
X156382669Y-97433105D01*
X156409401Y-97406863D01*
X156448350Y-97382840D01*
X156570340Y-97260850D01*
X156660908Y-97114016D01*
X156715174Y-96950253D01*
X156725500Y-96849177D01*
X156725499Y-96150824D01*
X156715174Y-96049747D01*
X156660908Y-95885984D01*
X156570340Y-95739150D01*
X156556017Y-95724827D01*
X156522532Y-95663504D01*
X156527516Y-95593812D01*
X156556021Y-95549460D01*
X156569947Y-95535535D01*
X156660448Y-95388811D01*
X156660453Y-95388800D01*
X156714680Y-95225152D01*
X156724999Y-95124154D01*
X156725000Y-95124141D01*
X156725000Y-95025000D01*
X155874000Y-95025000D01*
X155806961Y-95005315D01*
X155761206Y-94952511D01*
X155750000Y-94901000D01*
X155750000Y-94775000D01*
X155624000Y-94775000D01*
X155556961Y-94755315D01*
X155511206Y-94702511D01*
X155500000Y-94651000D01*
X155500000Y-94525000D01*
X156000000Y-94525000D01*
X156724999Y-94525000D01*
X156724999Y-94425860D01*
X156724998Y-94425845D01*
X156714680Y-94324847D01*
X156660453Y-94161199D01*
X156660448Y-94161188D01*
X156569947Y-94014465D01*
X156569944Y-94014461D01*
X156448038Y-93892555D01*
X156448034Y-93892552D01*
X156301311Y-93802051D01*
X156301300Y-93802046D01*
X156137652Y-93747819D01*
X156036654Y-93737500D01*
X156000000Y-93737500D01*
X156000000Y-94525000D01*
X155500000Y-94525000D01*
X155500000Y-93737500D01*
X155463361Y-93737500D01*
X155463343Y-93737501D01*
X155362347Y-93747819D01*
X155198699Y-93802046D01*
X155198694Y-93802048D01*
X155053402Y-93891666D01*
X154986009Y-93910106D01*
X154919346Y-93889183D01*
X154900624Y-93873808D01*
X154670544Y-93643727D01*
X154670541Y-93643724D01*
X154597742Y-93595082D01*
X154578952Y-93579661D01*
X153869713Y-92870421D01*
X153836228Y-92809098D01*
X153841212Y-92739406D01*
X153883084Y-92683473D01*
X153948548Y-92659056D01*
X154016821Y-92673908D01*
X154026275Y-92679631D01*
X154070818Y-92709394D01*
X154070820Y-92709395D01*
X154070824Y-92709397D01*
X154181590Y-92755277D01*
X154216500Y-92769737D01*
X154371150Y-92800499D01*
X154371153Y-92800500D01*
X154371155Y-92800500D01*
X154528841Y-92800500D01*
X154528842Y-92800499D01*
X154683494Y-92769737D01*
X154802547Y-92720423D01*
X154872014Y-92712955D01*
X154897447Y-92720422D01*
X155016503Y-92769737D01*
X155171153Y-92800499D01*
X155171156Y-92800500D01*
X155171158Y-92800500D01*
X155328844Y-92800500D01*
X155328845Y-92800499D01*
X155483497Y-92769737D01*
X155629179Y-92709394D01*
X155760289Y-92621789D01*
X155871789Y-92510289D01*
X155959394Y-92379179D01*
X156019737Y-92233497D01*
X156050500Y-92078842D01*
X156050500Y-91921158D01*
X156050500Y-91921155D01*
X156050499Y-91921153D01*
X156044671Y-91891856D01*
X156019737Y-91766503D01*
X156019604Y-91766181D01*
X155959397Y-91620828D01*
X155959396Y-91620827D01*
X155959394Y-91620821D01*
X155921396Y-91563953D01*
X155915746Y-91545907D01*
X155905523Y-91529999D01*
X155901071Y-91499036D01*
X155900520Y-91497276D01*
X155900500Y-91495064D01*
X155900500Y-91429750D01*
X155909939Y-91382297D01*
X155933575Y-91325236D01*
X155948388Y-91212720D01*
X155948388Y-89874500D01*
X155968073Y-89807461D01*
X156020877Y-89761706D01*
X156072388Y-89750500D01*
X156389580Y-89750500D01*
X156456619Y-89770185D01*
X156477261Y-89786819D01*
X156769978Y-90079537D01*
X156769981Y-90079540D01*
X156805919Y-90103553D01*
X156866130Y-90143784D01*
X156876527Y-90150731D01*
X156994910Y-90199767D01*
X156994914Y-90199767D01*
X156994915Y-90199768D01*
X157120582Y-90224766D01*
X157120585Y-90224766D01*
X157470802Y-90224766D01*
X157537841Y-90244451D01*
X157539646Y-90245632D01*
X157596558Y-90283660D01*
X157596560Y-90283661D01*
X157596564Y-90283663D01*
X157738643Y-90342513D01*
X157742240Y-90344003D01*
X157896890Y-90374765D01*
X157896893Y-90374766D01*
X157896895Y-90374766D01*
X158054581Y-90374766D01*
X158054582Y-90374765D01*
X158209234Y-90344003D01*
X158354916Y-90283660D01*
X158486026Y-90196055D01*
X158486038Y-90196042D01*
X158490355Y-90192500D01*
X158554660Y-90165176D01*
X158623530Y-90176956D01*
X158634134Y-90182802D01*
X158658692Y-90197950D01*
X158658699Y-90197953D01*
X158822347Y-90252180D01*
X158923352Y-90262499D01*
X158960000Y-90262499D01*
X159460000Y-90262499D01*
X159496640Y-90262499D01*
X159496654Y-90262498D01*
X159597652Y-90252180D01*
X159761300Y-90197953D01*
X159761311Y-90197948D01*
X159908034Y-90107447D01*
X159908038Y-90107444D01*
X160029944Y-89985538D01*
X160029947Y-89985534D01*
X160120448Y-89838811D01*
X160120453Y-89838800D01*
X160174680Y-89675152D01*
X160184999Y-89574154D01*
X160185000Y-89574141D01*
X160185000Y-89475000D01*
X159460000Y-89475000D01*
X159460000Y-90262499D01*
X158960000Y-90262499D01*
X158960000Y-89349000D01*
X158979685Y-89281961D01*
X159032489Y-89236206D01*
X159084000Y-89225000D01*
X159210000Y-89225000D01*
X159210000Y-89099000D01*
X159229685Y-89031961D01*
X159282489Y-88986206D01*
X159334000Y-88975000D01*
X160184999Y-88975000D01*
X160184999Y-88875860D01*
X160184998Y-88875845D01*
X160174680Y-88774847D01*
X160120453Y-88611199D01*
X160120448Y-88611188D01*
X160029947Y-88464465D01*
X160029944Y-88464461D01*
X160016017Y-88450534D01*
X159982532Y-88389211D01*
X159987516Y-88319519D01*
X160016017Y-88275172D01*
X160030340Y-88260850D01*
X160120908Y-88114016D01*
X160175174Y-87950253D01*
X160185500Y-87849177D01*
X160185499Y-87150824D01*
X160185069Y-87146618D01*
X160175174Y-87049747D01*
X160163921Y-87015788D01*
X160120908Y-86885984D01*
X160030340Y-86739150D01*
X159908350Y-86617160D01*
X159761516Y-86526592D01*
X159597753Y-86472326D01*
X159597751Y-86472325D01*
X159496684Y-86462000D01*
X159496677Y-86462000D01*
X159143308Y-86462000D01*
X159113867Y-86453355D01*
X159083881Y-86446832D01*
X159078865Y-86443077D01*
X159076269Y-86442315D01*
X159055627Y-86425681D01*
X158879626Y-86249680D01*
X158846141Y-86188357D01*
X158848349Y-86157486D01*
X164574500Y-86157486D01*
X164574500Y-86342513D01*
X164603445Y-86525265D01*
X164660619Y-86701232D01*
X164660620Y-86701235D01*
X164727909Y-86833295D01*
X164744622Y-86866096D01*
X164853379Y-87015787D01*
X164984213Y-87146621D01*
X164988421Y-87149678D01*
X164988432Y-87149686D01*
X165031094Y-87205019D01*
X165037069Y-87274633D01*
X165004459Y-87336426D01*
X164988432Y-87350314D01*
X164984210Y-87353381D01*
X164853381Y-87484210D01*
X164853381Y-87484211D01*
X164853379Y-87484213D01*
X164806672Y-87548499D01*
X164744622Y-87633903D01*
X164660620Y-87798764D01*
X164660619Y-87798767D01*
X164603445Y-87974734D01*
X164581385Y-88114016D01*
X164574500Y-88157486D01*
X164574500Y-88342514D01*
X164575686Y-88350000D01*
X164603445Y-88525265D01*
X164660619Y-88701232D01*
X164660620Y-88701235D01*
X164744622Y-88866096D01*
X164853379Y-89015787D01*
X164984213Y-89146621D01*
X164988421Y-89149678D01*
X164988432Y-89149686D01*
X165031094Y-89205019D01*
X165037069Y-89274633D01*
X165004459Y-89336426D01*
X164988432Y-89350314D01*
X164984210Y-89353381D01*
X164853381Y-89484210D01*
X164853381Y-89484211D01*
X164853379Y-89484213D01*
X164845234Y-89495424D01*
X164744622Y-89633903D01*
X164660620Y-89798764D01*
X164660619Y-89798767D01*
X164603445Y-89974734D01*
X164574500Y-90157486D01*
X164574500Y-90342513D01*
X164603445Y-90525265D01*
X164660619Y-90701232D01*
X164660620Y-90701235D01*
X164710132Y-90798406D01*
X164743043Y-90862998D01*
X164744624Y-90866099D01*
X164828545Y-90981607D01*
X164852025Y-91047413D01*
X164836200Y-91115467D01*
X164802539Y-91153758D01*
X164717452Y-91217455D01*
X164631206Y-91332664D01*
X164631202Y-91332671D01*
X164580908Y-91467517D01*
X164575294Y-91519738D01*
X164574501Y-91527123D01*
X164574500Y-91527135D01*
X164574500Y-92972870D01*
X164574501Y-92972876D01*
X164580908Y-93032483D01*
X164631202Y-93167328D01*
X164631206Y-93167335D01*
X164717452Y-93282544D01*
X164717455Y-93282547D01*
X164832664Y-93368793D01*
X164832671Y-93368797D01*
X164967517Y-93419091D01*
X164967516Y-93419091D01*
X164974444Y-93419835D01*
X165027127Y-93425500D01*
X166472872Y-93425499D01*
X166532483Y-93419091D01*
X166667331Y-93368796D01*
X166782546Y-93282546D01*
X166868796Y-93167331D01*
X166919091Y-93032483D01*
X166925500Y-92972873D01*
X166925499Y-91527128D01*
X166919091Y-91467517D01*
X166916062Y-91459397D01*
X166868797Y-91332671D01*
X166868793Y-91332664D01*
X166782547Y-91217455D01*
X166776231Y-91212727D01*
X166756902Y-91198257D01*
X166697460Y-91153758D01*
X166655590Y-91097824D01*
X166650606Y-91028132D01*
X166671454Y-90981607D01*
X166755378Y-90866096D01*
X166839379Y-90701235D01*
X166896555Y-90525264D01*
X166925500Y-90342514D01*
X166925500Y-90157486D01*
X166896555Y-89974736D01*
X166863987Y-89874500D01*
X166839380Y-89798767D01*
X166839379Y-89798764D01*
X166755377Y-89633903D01*
X166646621Y-89484213D01*
X166515787Y-89353379D01*
X166511576Y-89350319D01*
X166468909Y-89294994D01*
X166462926Y-89225381D01*
X166495529Y-89163585D01*
X166511570Y-89149684D01*
X166515787Y-89146621D01*
X166646621Y-89015787D01*
X166755378Y-88866096D01*
X166839379Y-88701235D01*
X166896555Y-88525264D01*
X166925500Y-88342514D01*
X166925500Y-88157486D01*
X166896555Y-87974736D01*
X166867967Y-87886750D01*
X166839380Y-87798767D01*
X166839379Y-87798764D01*
X166781887Y-87685931D01*
X166755378Y-87633904D01*
X166646621Y-87484213D01*
X166515787Y-87353379D01*
X166511576Y-87350319D01*
X166468909Y-87294994D01*
X166462926Y-87225381D01*
X166495529Y-87163585D01*
X166511570Y-87149684D01*
X166515787Y-87146621D01*
X166646621Y-87015787D01*
X166755378Y-86866096D01*
X166839379Y-86701235D01*
X166896555Y-86525264D01*
X166925500Y-86342514D01*
X166925500Y-86157486D01*
X166896555Y-85974736D01*
X166861454Y-85866705D01*
X166839380Y-85798767D01*
X166839379Y-85798764D01*
X166767394Y-85657487D01*
X166755378Y-85633904D01*
X166646621Y-85484213D01*
X166515787Y-85353379D01*
X166366096Y-85244622D01*
X166303499Y-85212727D01*
X166201235Y-85160620D01*
X166201232Y-85160619D01*
X166025265Y-85103445D01*
X165933889Y-85088972D01*
X165842514Y-85074500D01*
X165657486Y-85074500D01*
X165596569Y-85084148D01*
X165474734Y-85103445D01*
X165298767Y-85160619D01*
X165298764Y-85160620D01*
X165133903Y-85244622D01*
X165059384Y-85298764D01*
X164984213Y-85353379D01*
X164984211Y-85353381D01*
X164984210Y-85353381D01*
X164853381Y-85484210D01*
X164853381Y-85484211D01*
X164853379Y-85484213D01*
X164842644Y-85498989D01*
X164744622Y-85633903D01*
X164660620Y-85798764D01*
X164660619Y-85798767D01*
X164603445Y-85974734D01*
X164574500Y-86157486D01*
X158848349Y-86157486D01*
X158851125Y-86118665D01*
X158892997Y-86062732D01*
X158958461Y-86038315D01*
X158967281Y-86037999D01*
X159496676Y-86037999D01*
X159496684Y-86037998D01*
X159496687Y-86037998D01*
X159582266Y-86029256D01*
X159583034Y-86029177D01*
X159597753Y-86027674D01*
X159761516Y-85973408D01*
X159908350Y-85882840D01*
X160030340Y-85760850D01*
X160120908Y-85614016D01*
X160175174Y-85450253D01*
X160185500Y-85349177D01*
X160185499Y-84995806D01*
X160205183Y-84928768D01*
X160221813Y-84908131D01*
X162255276Y-82874670D01*
X162326465Y-82768127D01*
X162375501Y-82649744D01*
X162385296Y-82600501D01*
X162395242Y-82550500D01*
X162400500Y-82524070D01*
X162400500Y-81774500D01*
X162420185Y-81707461D01*
X162472989Y-81661706D01*
X162524500Y-81650500D01*
X162564071Y-81650500D01*
X162687984Y-81625851D01*
X162689744Y-81625501D01*
X162808127Y-81576465D01*
X162832386Y-81560256D01*
X162914669Y-81505277D01*
X163082127Y-81337819D01*
X163143450Y-81304334D01*
X163159063Y-81302655D01*
X163159009Y-81302097D01*
X163165071Y-81301500D01*
X163249615Y-81284682D01*
X163290744Y-81276501D01*
X163409127Y-81227465D01*
X163515669Y-81156276D01*
X163606276Y-81065669D01*
X163677465Y-80959127D01*
X163726501Y-80840744D01*
X163739678Y-80774500D01*
X163751500Y-80715071D01*
X163752097Y-80709009D01*
X163754598Y-80709255D01*
X163771185Y-80652769D01*
X163787819Y-80632127D01*
X166005271Y-78414675D01*
X166005276Y-78414670D01*
X166076465Y-78308127D01*
X166125501Y-78189744D01*
X166132511Y-78154501D01*
X166150500Y-78064069D01*
X166150500Y-77505707D01*
X166170185Y-77438668D01*
X166193380Y-77413084D01*
X166193243Y-77412947D01*
X166196050Y-77410139D01*
X166197595Y-77408436D01*
X166198339Y-77407846D01*
X166198350Y-77407840D01*
X166320340Y-77285850D01*
X166410908Y-77139016D01*
X166465174Y-76975253D01*
X166475500Y-76874177D01*
X166475499Y-76275824D01*
X166474721Y-76268212D01*
X166465174Y-76174747D01*
X166461032Y-76162247D01*
X166410908Y-76010984D01*
X166320340Y-75864150D01*
X166206371Y-75750181D01*
X166172886Y-75688858D01*
X166177870Y-75619166D01*
X166206371Y-75574819D01*
X166206690Y-75574500D01*
X166320340Y-75460850D01*
X166410908Y-75314016D01*
X166465174Y-75150253D01*
X166475500Y-75049177D01*
X166475499Y-74450824D01*
X166474122Y-74437347D01*
X166465174Y-74349747D01*
X166448855Y-74300500D01*
X166410908Y-74185984D01*
X166320340Y-74039150D01*
X166198350Y-73917160D01*
X166198349Y-73917159D01*
X166198347Y-73917157D01*
X166197593Y-73916561D01*
X166197209Y-73916019D01*
X166193243Y-73912053D01*
X166193920Y-73911375D01*
X166157214Y-73859541D01*
X166150500Y-73819292D01*
X166150500Y-72685928D01*
X166125502Y-72560261D01*
X166125501Y-72560260D01*
X166125501Y-72560256D01*
X166082014Y-72455270D01*
X166076466Y-72441875D01*
X166076461Y-72441866D01*
X166005277Y-72335332D01*
X165960821Y-72290876D01*
X165914669Y-72244724D01*
X165730032Y-72060087D01*
X165164674Y-71494727D01*
X165164671Y-71494724D01*
X165141480Y-71479229D01*
X165139044Y-71477601D01*
X165094240Y-71423990D01*
X165085533Y-71354665D01*
X165115687Y-71291638D01*
X165175130Y-71254918D01*
X165207936Y-71250500D01*
X166661921Y-71250500D01*
X166703922Y-71254488D01*
X166727560Y-71250500D01*
X166751525Y-71250500D01*
X166792270Y-71239582D01*
X166833870Y-71232564D01*
X166855666Y-71222595D01*
X166878819Y-71216392D01*
X166915354Y-71195297D01*
X166953716Y-71177754D01*
X166972189Y-71162484D01*
X166992947Y-71150500D01*
X167018624Y-71124821D01*
X167018626Y-71124821D01*
X167022781Y-71120665D01*
X167055292Y-71093794D01*
X167069181Y-71074265D01*
X167076528Y-71066919D01*
X167076528Y-71066918D01*
X167076531Y-71066916D01*
X167080003Y-71063443D01*
X167086133Y-71057314D01*
X167104287Y-71025869D01*
X167110626Y-71016000D01*
X167115492Y-71009157D01*
X167131677Y-70986405D01*
X167140041Y-70963942D01*
X167152025Y-70943186D01*
X167162943Y-70902438D01*
X167177664Y-70862905D01*
X167179929Y-70839043D01*
X167186133Y-70815892D01*
X167186133Y-70773711D01*
X167190121Y-70731711D01*
X167186133Y-70708073D01*
X167186133Y-70684108D01*
X167175215Y-70643362D01*
X167168197Y-70601763D01*
X167162543Y-70589401D01*
X167161819Y-70587788D01*
X167157996Y-70579102D01*
X167152025Y-70556814D01*
X167135887Y-70528863D01*
X167133166Y-70522679D01*
X167133076Y-70521989D01*
X167131600Y-70518956D01*
X166992015Y-70171411D01*
X166988185Y-70160403D01*
X166965587Y-70084083D01*
X166876506Y-69783231D01*
X166873731Y-69771933D01*
X166797960Y-69385919D01*
X166796258Y-69374410D01*
X166757072Y-68983000D01*
X166756458Y-68971378D01*
X166754201Y-68578010D01*
X166754607Y-68568206D01*
X167299500Y-68568206D01*
X167299500Y-68931794D01*
X167310337Y-69041829D01*
X167335137Y-69293630D01*
X167406064Y-69650212D01*
X167406067Y-69650223D01*
X167511614Y-69998165D01*
X167650754Y-70334078D01*
X167650756Y-70334083D01*
X167822140Y-70654720D01*
X167822144Y-70654727D01*
X167822147Y-70654732D01*
X167966251Y-70870399D01*
X168024140Y-70957035D01*
X168024150Y-70957049D01*
X168254807Y-71238106D01*
X168511893Y-71495192D01*
X168511898Y-71495196D01*
X168511899Y-71495197D01*
X168792956Y-71725854D01*
X169095268Y-71927853D01*
X169095277Y-71927858D01*
X169095279Y-71927859D01*
X169415916Y-72099243D01*
X169415918Y-72099243D01*
X169415924Y-72099247D01*
X169751836Y-72238386D01*
X170099767Y-72343930D01*
X170099773Y-72343931D01*
X170099776Y-72343932D01*
X170099787Y-72343935D01*
X170456369Y-72414862D01*
X170818206Y-72450500D01*
X170818209Y-72450500D01*
X171181791Y-72450500D01*
X171181794Y-72450500D01*
X171543631Y-72414862D01*
X171613045Y-72401054D01*
X171900212Y-72343935D01*
X171900223Y-72343932D01*
X171900223Y-72343931D01*
X171900233Y-72343930D01*
X172248164Y-72238386D01*
X172584076Y-72099247D01*
X172904732Y-71927853D01*
X173207044Y-71725854D01*
X173488101Y-71495197D01*
X173745197Y-71238101D01*
X173975854Y-70957044D01*
X174177853Y-70654732D01*
X174349247Y-70334076D01*
X174488386Y-69998164D01*
X174593930Y-69650233D01*
X174593932Y-69650223D01*
X174593935Y-69650212D01*
X174664862Y-69293630D01*
X174676660Y-69173842D01*
X174700500Y-68931794D01*
X174700500Y-68568206D01*
X174664862Y-68206369D01*
X174636929Y-68065938D01*
X174593935Y-67849787D01*
X174593932Y-67849776D01*
X174593931Y-67849773D01*
X174593930Y-67849767D01*
X174488386Y-67501836D01*
X174349247Y-67165924D01*
X174272346Y-67022053D01*
X174177859Y-66845279D01*
X174177858Y-66845277D01*
X174177853Y-66845268D01*
X173975854Y-66542956D01*
X173745197Y-66261899D01*
X173745196Y-66261898D01*
X173745192Y-66261893D01*
X173488106Y-66004807D01*
X173207049Y-65774150D01*
X173207048Y-65774149D01*
X173207044Y-65774146D01*
X172904732Y-65572147D01*
X172904727Y-65572144D01*
X172904720Y-65572140D01*
X172584083Y-65400756D01*
X172584078Y-65400754D01*
X172248165Y-65261614D01*
X171900223Y-65156067D01*
X171900212Y-65156064D01*
X171543630Y-65085137D01*
X171271111Y-65058296D01*
X171181794Y-65049500D01*
X170818206Y-65049500D01*
X170735679Y-65057628D01*
X170456369Y-65085137D01*
X170099787Y-65156064D01*
X170099776Y-65156067D01*
X169751834Y-65261614D01*
X169415921Y-65400754D01*
X169415916Y-65400756D01*
X169095279Y-65572140D01*
X169095261Y-65572151D01*
X168792964Y-65774140D01*
X168792950Y-65774150D01*
X168511893Y-66004807D01*
X168254807Y-66261893D01*
X168024150Y-66542950D01*
X168024140Y-66542964D01*
X167822151Y-66845261D01*
X167822140Y-66845279D01*
X167650756Y-67165916D01*
X167650754Y-67165921D01*
X167511614Y-67501834D01*
X167406067Y-67849776D01*
X167406064Y-67849787D01*
X167335137Y-68206369D01*
X167320681Y-68353148D01*
X167299500Y-68568206D01*
X166754607Y-68568206D01*
X166754683Y-68566370D01*
X166755758Y-68554229D01*
X166755758Y-68554227D01*
X166758555Y-68522639D01*
X166789373Y-68174537D01*
X166790942Y-68163017D01*
X166862278Y-67776159D01*
X166864919Y-67764848D01*
X166972270Y-67386391D01*
X166975969Y-67375355D01*
X167118381Y-67008664D01*
X167123092Y-66998041D01*
X167299312Y-66646335D01*
X167305007Y-66636189D01*
X167513471Y-66302593D01*
X167520094Y-66293027D01*
X167758964Y-65980479D01*
X167766447Y-65971588D01*
X168033619Y-65682845D01*
X168041909Y-65674691D01*
X168335020Y-65412309D01*
X168344024Y-65404981D01*
X168660471Y-65171288D01*
X168670130Y-65164834D01*
X169007134Y-64961883D01*
X169017357Y-64956364D01*
X169371919Y-64785963D01*
X169382635Y-64781420D01*
X169751621Y-64645071D01*
X169762705Y-64641558D01*
X170142870Y-64540460D01*
X170154241Y-64538002D01*
X170542209Y-64473052D01*
X170553780Y-64471671D01*
X170946132Y-64443440D01*
X170957758Y-64443152D01*
X171351025Y-64451890D01*
G37*
%TD.AperFunction*%
%TA.AperFunction,Conductor*%
G36*
X153531989Y-91848237D02*
G01*
X153543144Y-91846634D01*
X153565237Y-91856723D01*
X153588770Y-91862730D01*
X153596448Y-91870977D01*
X153606700Y-91875659D01*
X153619830Y-91896091D01*
X153636381Y-91913867D01*
X153639362Y-91926482D01*
X153644474Y-91934437D01*
X153649497Y-91969372D01*
X153649497Y-92078846D01*
X153680258Y-92233489D01*
X153680261Y-92233501D01*
X153740599Y-92379172D01*
X153740605Y-92379183D01*
X153770358Y-92423712D01*
X153791235Y-92490390D01*
X153772750Y-92557770D01*
X153720771Y-92604459D01*
X153651800Y-92615635D01*
X153587737Y-92587749D01*
X153579582Y-92580291D01*
X153297300Y-92298008D01*
X153263815Y-92236685D01*
X153268799Y-92166993D01*
X153297302Y-92122643D01*
X153303165Y-92116781D01*
X153374353Y-92010239D01*
X153410936Y-91921919D01*
X153418007Y-91913144D01*
X153421182Y-91902333D01*
X153439533Y-91886431D01*
X153454776Y-91867516D01*
X153465470Y-91863956D01*
X153473986Y-91856578D01*
X153498024Y-91853121D01*
X153521071Y-91845451D01*
X153531989Y-91848237D01*
G37*
%TD.AperFunction*%
%TA.AperFunction,Conductor*%
G36*
X150356017Y-83296055D02*
G01*
X150373372Y-83307208D01*
X150399374Y-83327160D01*
X150440577Y-83383587D01*
X150446766Y-83419102D01*
X150447888Y-83420086D01*
X150530618Y-83409195D01*
X150564357Y-83411415D01*
X150564593Y-83409626D01*
X150572651Y-83410686D01*
X150572652Y-83410687D01*
X150685168Y-83425500D01*
X150685175Y-83425500D01*
X150910601Y-83425500D01*
X150910608Y-83425500D01*
X151023124Y-83410687D01*
X151023124Y-83410686D01*
X151031183Y-83409626D01*
X151031586Y-83412689D01*
X151064190Y-83412689D01*
X151064593Y-83409626D01*
X151072651Y-83410686D01*
X151072652Y-83410687D01*
X151185168Y-83425500D01*
X151185175Y-83425500D01*
X151410601Y-83425500D01*
X151410608Y-83425500D01*
X151523124Y-83410687D01*
X151523124Y-83410686D01*
X151531183Y-83409626D01*
X151531586Y-83412689D01*
X151564190Y-83412689D01*
X151564593Y-83409626D01*
X151572651Y-83410686D01*
X151572652Y-83410687D01*
X151685168Y-83425500D01*
X151685175Y-83425500D01*
X151910601Y-83425500D01*
X151910608Y-83425500D01*
X152023124Y-83410687D01*
X152023124Y-83410686D01*
X152031183Y-83409626D01*
X152031586Y-83412689D01*
X152064190Y-83412689D01*
X152064593Y-83409626D01*
X152072651Y-83410686D01*
X152072652Y-83410687D01*
X152185168Y-83425500D01*
X152185175Y-83425500D01*
X152410601Y-83425500D01*
X152410608Y-83425500D01*
X152523124Y-83410687D01*
X152523124Y-83410686D01*
X152531183Y-83409626D01*
X152531586Y-83412689D01*
X152564190Y-83412689D01*
X152564593Y-83409626D01*
X152572651Y-83410686D01*
X152572652Y-83410687D01*
X152685168Y-83425500D01*
X152685175Y-83425500D01*
X152825500Y-83425500D01*
X152892539Y-83445185D01*
X152938294Y-83497989D01*
X152949500Y-83549500D01*
X152949500Y-83578846D01*
X152980261Y-83733489D01*
X152980264Y-83733501D01*
X153040602Y-83879172D01*
X153040609Y-83879185D01*
X153128210Y-84010288D01*
X153128213Y-84010292D01*
X153239707Y-84121786D01*
X153239711Y-84121789D01*
X153370814Y-84209390D01*
X153370827Y-84209397D01*
X153432077Y-84234767D01*
X153516503Y-84269737D01*
X153547579Y-84275918D01*
X153609489Y-84308301D01*
X153644064Y-84369016D01*
X153647388Y-84397535D01*
X153647388Y-89164782D01*
X153627703Y-89231821D01*
X153583128Y-89273443D01*
X153498068Y-89320206D01*
X153432655Y-89347302D01*
X153391895Y-89378578D01*
X153391892Y-89378580D01*
X153379858Y-89387814D01*
X153373374Y-89392789D01*
X153308207Y-89417984D01*
X153239762Y-89403946D01*
X153222403Y-89392790D01*
X153196400Y-89372838D01*
X153155198Y-89316410D01*
X153149008Y-89280894D01*
X153147887Y-89279911D01*
X153065158Y-89290804D01*
X153031415Y-89288593D01*
X153031181Y-89290374D01*
X153023124Y-89289313D01*
X153003339Y-89286708D01*
X152910615Y-89274500D01*
X152910608Y-89274500D01*
X152731809Y-89274500D01*
X152702368Y-89265855D01*
X152672382Y-89259332D01*
X152667366Y-89255577D01*
X152664770Y-89254815D01*
X152644128Y-89238181D01*
X152518302Y-89112355D01*
X152518300Y-89112352D01*
X152399429Y-88993481D01*
X152399421Y-88993475D01*
X152306355Y-88939744D01*
X152306353Y-88939743D01*
X152262502Y-88914425D01*
X152262501Y-88914424D01*
X152249975Y-88911067D01*
X152109769Y-88873499D01*
X151951655Y-88873499D01*
X151944059Y-88873499D01*
X151944043Y-88873500D01*
X149743112Y-88873500D01*
X149676073Y-88853815D01*
X149654067Y-88835796D01*
X149534380Y-88712296D01*
X149532113Y-88707985D01*
X149525050Y-88701488D01*
X149505099Y-88675488D01*
X149479904Y-88610319D01*
X149493942Y-88541874D01*
X149505099Y-88524512D01*
X149511794Y-88515788D01*
X149525050Y-88498512D01*
X149581478Y-88457310D01*
X149616993Y-88451120D01*
X149617976Y-88449999D01*
X149607084Y-88367270D01*
X149609297Y-88333529D01*
X149607514Y-88333295D01*
X149609328Y-88319519D01*
X149623388Y-88212720D01*
X149623388Y-87987280D01*
X149608575Y-87874764D01*
X149608574Y-87874763D01*
X149607514Y-87866705D01*
X149610577Y-87866301D01*
X149610577Y-87833698D01*
X149607514Y-87833295D01*
X149610671Y-87809314D01*
X149623388Y-87712720D01*
X149623388Y-87487280D01*
X149608575Y-87374764D01*
X149608574Y-87374763D01*
X149607514Y-87366705D01*
X149610577Y-87366301D01*
X149610577Y-87333698D01*
X149607514Y-87333295D01*
X149610045Y-87314069D01*
X149623388Y-87212720D01*
X149623388Y-86987280D01*
X149608575Y-86874764D01*
X149608574Y-86874763D01*
X149607514Y-86866705D01*
X149610577Y-86866301D01*
X149610577Y-86833698D01*
X149607514Y-86833295D01*
X149615237Y-86774633D01*
X149623388Y-86712720D01*
X149623388Y-86487280D01*
X149608575Y-86374764D01*
X149608574Y-86374763D01*
X149607514Y-86366705D01*
X149610577Y-86366301D01*
X149610577Y-86333698D01*
X149607514Y-86333295D01*
X149608575Y-86325236D01*
X149623388Y-86212720D01*
X149623388Y-85987280D01*
X149608575Y-85874764D01*
X149608574Y-85874763D01*
X149607514Y-85866705D01*
X149610577Y-85866301D01*
X149610577Y-85833698D01*
X149607514Y-85833295D01*
X149611322Y-85804372D01*
X149623388Y-85712720D01*
X149623388Y-85487280D01*
X149608575Y-85374764D01*
X149608574Y-85374763D01*
X149607514Y-85366705D01*
X149610577Y-85366301D01*
X149610577Y-85333698D01*
X149607514Y-85333295D01*
X149608575Y-85325236D01*
X149623388Y-85212720D01*
X149623388Y-84987280D01*
X149608575Y-84874764D01*
X149608574Y-84874763D01*
X149607514Y-84866705D01*
X149610577Y-84866301D01*
X149610577Y-84833698D01*
X149607514Y-84833295D01*
X149614195Y-84782546D01*
X149623388Y-84712720D01*
X149623388Y-84487280D01*
X149608575Y-84374764D01*
X149608574Y-84374763D01*
X149607514Y-84366705D01*
X149610577Y-84366301D01*
X149610577Y-84333698D01*
X149607514Y-84333295D01*
X149609615Y-84317334D01*
X149623388Y-84212720D01*
X149623388Y-83987280D01*
X149608575Y-83874764D01*
X149608574Y-83874763D01*
X149607514Y-83866705D01*
X149610577Y-83866301D01*
X149610577Y-83833698D01*
X149607514Y-83833295D01*
X149613247Y-83789745D01*
X149623388Y-83712720D01*
X149623388Y-83549500D01*
X149643073Y-83482461D01*
X149695877Y-83436706D01*
X149747388Y-83425500D01*
X149910601Y-83425500D01*
X149910608Y-83425500D01*
X150023124Y-83410687D01*
X150163121Y-83352698D01*
X150222403Y-83307208D01*
X150287572Y-83282016D01*
X150356017Y-83296055D01*
G37*
%TD.AperFunction*%
%TA.AperFunction,Conductor*%
G36*
X155072651Y-83410686D02*
G01*
X155072652Y-83410687D01*
X155185168Y-83425500D01*
X155185175Y-83425500D01*
X155348388Y-83425500D01*
X155415427Y-83445185D01*
X155461182Y-83497989D01*
X155472388Y-83549500D01*
X155472388Y-83712727D01*
X155485818Y-83814733D01*
X155487201Y-83825236D01*
X155545190Y-83965233D01*
X155590679Y-84024515D01*
X155615872Y-84089684D01*
X155601833Y-84158129D01*
X155590679Y-84175484D01*
X155570727Y-84201486D01*
X155514301Y-84242689D01*
X155478782Y-84248879D01*
X155477799Y-84250000D01*
X155488692Y-84332729D01*
X155486483Y-84366472D01*
X155488262Y-84366707D01*
X155472388Y-84487272D01*
X155472388Y-84712727D01*
X155488262Y-84833292D01*
X155485287Y-84833683D01*
X155485287Y-84866316D01*
X155488262Y-84866708D01*
X155472388Y-84987272D01*
X155472388Y-85212727D01*
X155488262Y-85333292D01*
X155485287Y-85333683D01*
X155485287Y-85366316D01*
X155488262Y-85366708D01*
X155472388Y-85487272D01*
X155472388Y-85712727D01*
X155488262Y-85833292D01*
X155485287Y-85833683D01*
X155485287Y-85866316D01*
X155488262Y-85866708D01*
X155472388Y-85987272D01*
X155472388Y-86212727D01*
X155488262Y-86333292D01*
X155485287Y-86333683D01*
X155485287Y-86366316D01*
X155488262Y-86366708D01*
X155472388Y-86487272D01*
X155472388Y-86712727D01*
X155488262Y-86833292D01*
X155485287Y-86833683D01*
X155485287Y-86866316D01*
X155488262Y-86866708D01*
X155472388Y-86987272D01*
X155472388Y-87212727D01*
X155488262Y-87333292D01*
X155485287Y-87333683D01*
X155485287Y-87366316D01*
X155488262Y-87366708D01*
X155472388Y-87487272D01*
X155472388Y-87712727D01*
X155488262Y-87833292D01*
X155485287Y-87833683D01*
X155485287Y-87866316D01*
X155488262Y-87866708D01*
X155472388Y-87987272D01*
X155472388Y-88212727D01*
X155478724Y-88260849D01*
X155486448Y-88319519D01*
X155488262Y-88333292D01*
X155485287Y-88333683D01*
X155485287Y-88366316D01*
X155488262Y-88366708D01*
X155472388Y-88487272D01*
X155472388Y-88712727D01*
X155488262Y-88833292D01*
X155485287Y-88833683D01*
X155485287Y-88866316D01*
X155488262Y-88866708D01*
X155472388Y-88987272D01*
X155472388Y-89150500D01*
X155452703Y-89217539D01*
X155399899Y-89263294D01*
X155348388Y-89274500D01*
X155185160Y-89274500D01*
X155101950Y-89285455D01*
X155088573Y-89287216D01*
X155019538Y-89276452D01*
X154967282Y-89230072D01*
X154948388Y-89164278D01*
X154948388Y-83983816D01*
X154923390Y-83858149D01*
X154923389Y-83858148D01*
X154923389Y-83858144D01*
X154895057Y-83789744D01*
X154874354Y-83739762D01*
X154856291Y-83712729D01*
X154803166Y-83633220D01*
X154799296Y-83628504D01*
X154801432Y-83626750D01*
X154773643Y-83575858D01*
X154778627Y-83506166D01*
X154820499Y-83450233D01*
X154885963Y-83425816D01*
X154894809Y-83425500D01*
X154910601Y-83425500D01*
X154910608Y-83425500D01*
X155023124Y-83410687D01*
X155023124Y-83410686D01*
X155031183Y-83409626D01*
X155031586Y-83412689D01*
X155064190Y-83412689D01*
X155064593Y-83409626D01*
X155072651Y-83410686D01*
G37*
%TD.AperFunction*%
%TA.AperFunction,Conductor*%
G36*
X146486525Y-87869685D02*
G01*
X146488377Y-87870898D01*
X146620814Y-87959390D01*
X146620827Y-87959397D01*
X146765800Y-88019446D01*
X146766503Y-88019737D01*
X146921153Y-88050499D01*
X146921156Y-88050500D01*
X147023388Y-88050500D01*
X147031355Y-88052839D01*
X147039561Y-88051559D01*
X147064388Y-88062539D01*
X147090427Y-88070185D01*
X147095863Y-88076459D01*
X147103460Y-88079819D01*
X147118409Y-88102478D01*
X147136182Y-88122989D01*
X147138359Y-88132717D01*
X147141937Y-88138140D01*
X147146730Y-88170115D01*
X147147379Y-88173012D01*
X147147388Y-88173762D01*
X147147388Y-88212720D01*
X147147902Y-88216627D01*
X147147991Y-88224012D01*
X147140452Y-88250872D01*
X147136132Y-88278438D01*
X147131141Y-88284052D01*
X147129112Y-88291283D01*
X147108248Y-88309804D01*
X147089711Y-88330657D01*
X147082395Y-88332754D01*
X147076861Y-88337668D01*
X147051412Y-88341639D01*
X147024000Y-88349500D01*
X145874000Y-88349500D01*
X145806961Y-88329815D01*
X145761206Y-88277011D01*
X145750000Y-88225500D01*
X145750000Y-87974000D01*
X145769685Y-87906961D01*
X145822489Y-87861206D01*
X145874000Y-87850000D01*
X146419486Y-87850000D01*
X146486525Y-87869685D01*
G37*
%TD.AperFunction*%
%TA.AperFunction,Conductor*%
G36*
X142200568Y-71971185D02*
G01*
X142246323Y-72023989D01*
X142256818Y-72088757D01*
X142250000Y-72152158D01*
X142250000Y-72500000D01*
X144250000Y-72500000D01*
X144250000Y-72152172D01*
X144249999Y-72152158D01*
X144243182Y-72088757D01*
X144255586Y-72019997D01*
X144303196Y-71968859D01*
X144366471Y-71951500D01*
X145199903Y-71951500D01*
X145266942Y-71971185D01*
X145287584Y-71987819D01*
X146327966Y-73028201D01*
X146361451Y-73089524D01*
X146364285Y-73115882D01*
X146364285Y-75735117D01*
X146344600Y-75802156D01*
X146327966Y-75822798D01*
X146019482Y-76131281D01*
X146019480Y-76131283D01*
X146019480Y-76131284D01*
X145972773Y-76212183D01*
X145972772Y-76212183D01*
X145940424Y-76268212D01*
X145940423Y-76268213D01*
X145930700Y-76304500D01*
X145899499Y-76420943D01*
X145899499Y-76420945D01*
X145899499Y-76589046D01*
X145899500Y-76589059D01*
X145899500Y-76850818D01*
X145908219Y-76883358D01*
X145912253Y-76922335D01*
X145911540Y-76935146D01*
X145899499Y-76980087D01*
X145899499Y-77138201D01*
X145899500Y-77138204D01*
X145899500Y-77151653D01*
X145899500Y-79913330D01*
X145899499Y-79913348D01*
X145899499Y-80079054D01*
X145899498Y-80079054D01*
X145911656Y-80124427D01*
X145940423Y-80231785D01*
X145940424Y-80231787D01*
X145940423Y-80231787D01*
X145953986Y-80255277D01*
X145953987Y-80255279D01*
X146019475Y-80368709D01*
X146019481Y-80368717D01*
X146138349Y-80487585D01*
X146138355Y-80487590D01*
X147265139Y-81614374D01*
X147265149Y-81614385D01*
X147269479Y-81618715D01*
X147269480Y-81618716D01*
X147381284Y-81730520D01*
X147464898Y-81778794D01*
X147518215Y-81809577D01*
X147636959Y-81841395D01*
X147642556Y-81843490D01*
X147665904Y-81861011D01*
X147690838Y-81876210D01*
X147693688Y-81881863D01*
X147698439Y-81885428D01*
X147706711Y-81907686D01*
X147720701Y-81935428D01*
X147730261Y-81983491D01*
X147730264Y-81983501D01*
X147790602Y-82129172D01*
X147790609Y-82129185D01*
X147878210Y-82260288D01*
X147878213Y-82260292D01*
X147989707Y-82371786D01*
X147989711Y-82371789D01*
X148120814Y-82459390D01*
X148120827Y-82459397D01*
X148253775Y-82514465D01*
X148266503Y-82519737D01*
X148408459Y-82547974D01*
X148421153Y-82550499D01*
X148421156Y-82550500D01*
X148421158Y-82550500D01*
X148578844Y-82550500D01*
X148578845Y-82550499D01*
X148733497Y-82519737D01*
X148879179Y-82459394D01*
X148954497Y-82409067D01*
X149021174Y-82388190D01*
X149088554Y-82406674D01*
X149135245Y-82458653D01*
X149147388Y-82512170D01*
X149147388Y-82825500D01*
X149127703Y-82892539D01*
X149074899Y-82938294D01*
X149023388Y-82949500D01*
X147685160Y-82949500D01*
X147572652Y-82964313D01*
X147572651Y-82964313D01*
X147510492Y-82990061D01*
X147502314Y-82991687D01*
X147497974Y-82994477D01*
X147463039Y-82999500D01*
X147393375Y-82999500D01*
X147393359Y-82999499D01*
X147385763Y-82999499D01*
X147227649Y-82999499D01*
X147124538Y-83027128D01*
X147074916Y-83040424D01*
X147074915Y-83040425D01*
X147024802Y-83069359D01*
X147024801Y-83069360D01*
X146981395Y-83094420D01*
X146937991Y-83119479D01*
X146937988Y-83119481D01*
X146826186Y-83231283D01*
X146826186Y-83231284D01*
X146826184Y-83231286D01*
X146750261Y-83307209D01*
X146695859Y-83361611D01*
X146634536Y-83395095D01*
X146564844Y-83390111D01*
X146508911Y-83348239D01*
X146502640Y-83339026D01*
X146433519Y-83226965D01*
X146433516Y-83226961D01*
X146311610Y-83105055D01*
X146311606Y-83105052D01*
X146164883Y-83014551D01*
X146164872Y-83014546D01*
X146001224Y-82960319D01*
X145900226Y-82950000D01*
X145863572Y-82950000D01*
X145863572Y-83863500D01*
X145843887Y-83930539D01*
X145791083Y-83976294D01*
X145739572Y-83987500D01*
X145613572Y-83987500D01*
X145613572Y-84101500D01*
X145593887Y-84168539D01*
X145541083Y-84214294D01*
X145489572Y-84225500D01*
X140549500Y-84225500D01*
X140482461Y-84205815D01*
X140436706Y-84153011D01*
X140425500Y-84101500D01*
X140425500Y-83638345D01*
X144638572Y-83638345D01*
X144638572Y-83737500D01*
X145363572Y-83737500D01*
X145363572Y-82950000D01*
X145326933Y-82950000D01*
X145326915Y-82950001D01*
X145225919Y-82960319D01*
X145062271Y-83014546D01*
X145062260Y-83014551D01*
X144915537Y-83105052D01*
X144915533Y-83105055D01*
X144793627Y-83226961D01*
X144793624Y-83226965D01*
X144703123Y-83373688D01*
X144703118Y-83373699D01*
X144648891Y-83537347D01*
X144638572Y-83638345D01*
X140425500Y-83638345D01*
X140425500Y-83635196D01*
X140425499Y-83027129D01*
X140425498Y-83027123D01*
X140419091Y-82967516D01*
X140368797Y-82832671D01*
X140368793Y-82832664D01*
X140282547Y-82717455D01*
X140282544Y-82717452D01*
X140167335Y-82631206D01*
X140167328Y-82631202D01*
X140032482Y-82580908D01*
X140032483Y-82580908D01*
X139972883Y-82574501D01*
X139972881Y-82574500D01*
X139972873Y-82574500D01*
X139972865Y-82574500D01*
X138724500Y-82574500D01*
X138715814Y-82571949D01*
X138706853Y-82573238D01*
X138682812Y-82562259D01*
X138657461Y-82554815D01*
X138651533Y-82547974D01*
X138643297Y-82544213D01*
X138629007Y-82521978D01*
X138611706Y-82502011D01*
X138609418Y-82491496D01*
X138605523Y-82485435D01*
X138600500Y-82450500D01*
X138600500Y-82300096D01*
X138620185Y-82233057D01*
X138636815Y-82212419D01*
X138859506Y-81989727D01*
X138859511Y-81989724D01*
X138869714Y-81979520D01*
X138869716Y-81979520D01*
X138981520Y-81867716D01*
X138995507Y-81843490D01*
X139038966Y-81768217D01*
X139038967Y-81768215D01*
X139060574Y-81730790D01*
X139060575Y-81730789D01*
X139060575Y-81730787D01*
X139060577Y-81730785D01*
X139101501Y-81578057D01*
X139101501Y-81419943D01*
X139101501Y-81412348D01*
X139101500Y-81412330D01*
X139101500Y-80671567D01*
X139100500Y-80656279D01*
X139100500Y-79819808D01*
X139120185Y-79752769D01*
X139172989Y-79707014D01*
X139242147Y-79697070D01*
X139305703Y-79726095D01*
X139312181Y-79732127D01*
X139682984Y-80102929D01*
X139716469Y-80164252D01*
X139716920Y-80166419D01*
X139730261Y-80233489D01*
X139730264Y-80233501D01*
X139790602Y-80379172D01*
X139790609Y-80379185D01*
X139878210Y-80510288D01*
X139878213Y-80510292D01*
X139989707Y-80621786D01*
X139989711Y-80621789D01*
X140120814Y-80709390D01*
X140120827Y-80709397D01*
X140228925Y-80754172D01*
X140266503Y-80769737D01*
X140421153Y-80800499D01*
X140421156Y-80800500D01*
X140421158Y-80800500D01*
X140578844Y-80800500D01*
X140578845Y-80800499D01*
X140733497Y-80769737D01*
X140846358Y-80722989D01*
X140879172Y-80709397D01*
X140879172Y-80709396D01*
X140879179Y-80709394D01*
X140936044Y-80671397D01*
X141002721Y-80650520D01*
X141004935Y-80650500D01*
X142125501Y-80650500D01*
X142192540Y-80670185D01*
X142238295Y-80722989D01*
X142249501Y-80774500D01*
X142249501Y-80847876D01*
X142255908Y-80907483D01*
X142306202Y-81042328D01*
X142306206Y-81042335D01*
X142392452Y-81157544D01*
X142392455Y-81157547D01*
X142507664Y-81243793D01*
X142507671Y-81243797D01*
X142642517Y-81294091D01*
X142642516Y-81294091D01*
X142649444Y-81294835D01*
X142702127Y-81300500D01*
X143797872Y-81300499D01*
X143857483Y-81294091D01*
X143992331Y-81243796D01*
X144107546Y-81157546D01*
X144193796Y-81042331D01*
X144244091Y-80907483D01*
X144250500Y-80847873D01*
X144250499Y-79652128D01*
X144244091Y-79592517D01*
X144238672Y-79577989D01*
X144193797Y-79457671D01*
X144193793Y-79457664D01*
X144107547Y-79342455D01*
X144107544Y-79342452D01*
X143992335Y-79256206D01*
X143992328Y-79256202D01*
X143857482Y-79205908D01*
X143857483Y-79205908D01*
X143797883Y-79199501D01*
X143797881Y-79199500D01*
X143797873Y-79199500D01*
X143797864Y-79199500D01*
X142702129Y-79199500D01*
X142702123Y-79199501D01*
X142642516Y-79205908D01*
X142507671Y-79256202D01*
X142507668Y-79256204D01*
X142416080Y-79324767D01*
X142350615Y-79349184D01*
X142341769Y-79349500D01*
X141004935Y-79349500D01*
X140937896Y-79329815D01*
X140936090Y-79328633D01*
X140879179Y-79290606D01*
X140879172Y-79290602D01*
X140733501Y-79230264D01*
X140733489Y-79230261D01*
X140666419Y-79216920D01*
X140649662Y-79208155D01*
X140631183Y-79204135D01*
X140606141Y-79185389D01*
X140604508Y-79184535D01*
X140602988Y-79183043D01*
X140436816Y-79016871D01*
X140403334Y-78955550D01*
X140400500Y-78929192D01*
X140400500Y-77298428D01*
X140375502Y-77172761D01*
X140375501Y-77172760D01*
X140375501Y-77172756D01*
X140326465Y-77054373D01*
X140326464Y-77054372D01*
X140326461Y-77054366D01*
X140255277Y-76947832D01*
X140210037Y-76902592D01*
X140164669Y-76857224D01*
X140011818Y-76704373D01*
X139978333Y-76643050D01*
X139975499Y-76616692D01*
X139975499Y-76263330D01*
X139975498Y-76263313D01*
X139965174Y-76162247D01*
X139917865Y-76019480D01*
X139910908Y-75998484D01*
X139820340Y-75851650D01*
X139806017Y-75837327D01*
X139772532Y-75776004D01*
X139777516Y-75706312D01*
X139806021Y-75661960D01*
X139819947Y-75648035D01*
X139910448Y-75501311D01*
X139910453Y-75501300D01*
X139964680Y-75337652D01*
X139974999Y-75236654D01*
X139975000Y-75236641D01*
X139975000Y-75137500D01*
X139124000Y-75137500D01*
X139056961Y-75117815D01*
X139011206Y-75065011D01*
X139000000Y-75013500D01*
X139000000Y-74887500D01*
X138874000Y-74887500D01*
X138806961Y-74867815D01*
X138761206Y-74815011D01*
X138750000Y-74763500D01*
X138750000Y-74637500D01*
X139250000Y-74637500D01*
X139974999Y-74637500D01*
X139974999Y-74538360D01*
X139974998Y-74538345D01*
X139964680Y-74437347D01*
X139910453Y-74273699D01*
X139910448Y-74273688D01*
X139819947Y-74126965D01*
X139819944Y-74126961D01*
X139698038Y-74005055D01*
X139698034Y-74005052D01*
X139551311Y-73914551D01*
X139551300Y-73914546D01*
X139387652Y-73860319D01*
X139286654Y-73850000D01*
X139250000Y-73850000D01*
X139250000Y-74637500D01*
X138750000Y-74637500D01*
X138750000Y-73876251D01*
X138670310Y-73837532D01*
X138664715Y-73832445D01*
X138657462Y-73830316D01*
X138639221Y-73809266D01*
X138618613Y-73790529D01*
X138616656Y-73783226D01*
X138611706Y-73777513D01*
X138600500Y-73726000D01*
X138600500Y-73347844D01*
X142250000Y-73347844D01*
X142256401Y-73407372D01*
X142256403Y-73407379D01*
X142306645Y-73542086D01*
X142306649Y-73542093D01*
X142392809Y-73657187D01*
X142392812Y-73657190D01*
X142507906Y-73743350D01*
X142507913Y-73743354D01*
X142642620Y-73793596D01*
X142642627Y-73793598D01*
X142702155Y-73799999D01*
X142702172Y-73800000D01*
X143000000Y-73800000D01*
X143500000Y-73800000D01*
X143797828Y-73800000D01*
X143797844Y-73799999D01*
X143857372Y-73793598D01*
X143857379Y-73793596D01*
X143992086Y-73743354D01*
X143992093Y-73743350D01*
X144107187Y-73657190D01*
X144107190Y-73657187D01*
X144193350Y-73542093D01*
X144193354Y-73542086D01*
X144243596Y-73407379D01*
X144243598Y-73407372D01*
X144249999Y-73347844D01*
X144250000Y-73347827D01*
X144250000Y-73000000D01*
X143500000Y-73000000D01*
X143500000Y-73800000D01*
X143000000Y-73800000D01*
X143000000Y-73000000D01*
X142250000Y-73000000D01*
X142250000Y-73347844D01*
X138600500Y-73347844D01*
X138600500Y-73050097D01*
X138620185Y-72983058D01*
X138636819Y-72962416D01*
X138738278Y-72860957D01*
X139125155Y-72474081D01*
X139611417Y-71987819D01*
X139672740Y-71954334D01*
X139699098Y-71951500D01*
X142133529Y-71951500D01*
X142200568Y-71971185D01*
G37*
%TD.AperFunction*%
%TA.AperFunction,Conductor*%
G36*
X161226491Y-71254294D02*
G01*
X161239926Y-71253334D01*
X161259361Y-71263946D01*
X161280607Y-71270185D01*
X161289426Y-71280363D01*
X161301249Y-71286819D01*
X161311861Y-71306255D01*
X161326362Y-71322989D01*
X161328278Y-71336320D01*
X161334734Y-71348142D01*
X161333154Y-71370228D01*
X161336306Y-71392147D01*
X161330602Y-71405916D01*
X161329750Y-71417834D01*
X161312835Y-71448810D01*
X161306206Y-71457665D01*
X161306202Y-71457671D01*
X161283391Y-71518833D01*
X161241520Y-71574767D01*
X161176056Y-71599184D01*
X161167209Y-71599500D01*
X160185929Y-71599500D01*
X160060261Y-71624497D01*
X160060255Y-71624499D01*
X159941874Y-71673534D01*
X159835326Y-71744726D01*
X159835325Y-71744727D01*
X158916872Y-72663181D01*
X158855549Y-72696666D01*
X158829191Y-72699500D01*
X158671155Y-72699500D01*
X158516510Y-72730261D01*
X158516498Y-72730264D01*
X158370827Y-72790602D01*
X158370814Y-72790609D01*
X158239711Y-72878210D01*
X158239707Y-72878213D01*
X158128213Y-72989707D01*
X158128210Y-72989711D01*
X158040609Y-73120814D01*
X158040602Y-73120827D01*
X157980264Y-73266498D01*
X157980261Y-73266510D01*
X157949500Y-73421153D01*
X157949500Y-73578846D01*
X157980261Y-73733489D01*
X157980264Y-73733501D01*
X158040602Y-73879172D01*
X158040609Y-73879185D01*
X158128210Y-74010288D01*
X158128213Y-74010292D01*
X158239707Y-74121786D01*
X158239711Y-74121789D01*
X158370814Y-74209390D01*
X158370827Y-74209397D01*
X158516498Y-74269735D01*
X158516503Y-74269737D01*
X158671153Y-74300499D01*
X158671156Y-74300500D01*
X158671158Y-74300500D01*
X158828844Y-74300500D01*
X158828845Y-74300499D01*
X158983497Y-74269737D01*
X159129179Y-74209394D01*
X159260289Y-74121789D01*
X159291921Y-74090155D01*
X159310696Y-74074748D01*
X159332631Y-74060092D01*
X159414669Y-74005277D01*
X160483127Y-72936819D01*
X160544450Y-72903334D01*
X160570808Y-72900500D01*
X161167209Y-72900500D01*
X161234248Y-72920185D01*
X161280003Y-72972989D01*
X161283391Y-72981167D01*
X161306202Y-73042328D01*
X161306206Y-73042335D01*
X161392452Y-73157544D01*
X161392455Y-73157547D01*
X161507664Y-73243793D01*
X161507671Y-73243797D01*
X161642517Y-73294091D01*
X161642516Y-73294091D01*
X161649444Y-73294835D01*
X161702127Y-73300500D01*
X162797872Y-73300499D01*
X162857483Y-73294091D01*
X162992331Y-73243796D01*
X163107546Y-73157546D01*
X163193796Y-73042331D01*
X163200236Y-73025065D01*
X163216609Y-72981167D01*
X163258480Y-72925233D01*
X163323944Y-72900816D01*
X163332791Y-72900500D01*
X164564070Y-72900500D01*
X164579992Y-72897332D01*
X164637927Y-72885808D01*
X164645833Y-72886515D01*
X164653272Y-72883741D01*
X164680131Y-72889584D01*
X164707516Y-72892034D01*
X164715526Y-72897283D01*
X164721545Y-72898593D01*
X164749799Y-72919744D01*
X164813181Y-72983126D01*
X164846666Y-73044449D01*
X164849500Y-73070807D01*
X164849500Y-73819292D01*
X164829815Y-73886331D01*
X164806619Y-73911915D01*
X164806757Y-73912053D01*
X164803941Y-73914868D01*
X164802407Y-73916561D01*
X164801652Y-73917157D01*
X164679659Y-74039151D01*
X164589093Y-74185981D01*
X164589091Y-74185986D01*
X164561719Y-74268588D01*
X164534826Y-74349747D01*
X164534826Y-74349748D01*
X164534825Y-74349748D01*
X164524500Y-74450815D01*
X164524500Y-75049169D01*
X164524501Y-75049187D01*
X164534825Y-75150252D01*
X164589092Y-75314015D01*
X164589093Y-75314018D01*
X164679661Y-75460851D01*
X164793629Y-75574819D01*
X164827114Y-75636142D01*
X164822130Y-75705834D01*
X164793629Y-75750181D01*
X164679661Y-75864148D01*
X164589093Y-76010981D01*
X164589091Y-76010986D01*
X164561719Y-76093588D01*
X164534826Y-76174747D01*
X164534826Y-76174748D01*
X164534825Y-76174748D01*
X164524500Y-76275815D01*
X164524500Y-76874169D01*
X164524501Y-76874187D01*
X164534825Y-76975252D01*
X164589092Y-77139015D01*
X164589093Y-77139018D01*
X164609902Y-77172755D01*
X164679660Y-77285850D01*
X164801650Y-77407840D01*
X164801656Y-77407843D01*
X164802405Y-77408436D01*
X164802790Y-77408980D01*
X164805048Y-77411238D01*
X164806703Y-77411994D01*
X164824146Y-77439136D01*
X164842785Y-77465456D01*
X164843389Y-77469079D01*
X164844477Y-77470772D01*
X164849500Y-77505707D01*
X164849500Y-77679192D01*
X164829815Y-77746231D01*
X164813181Y-77766873D01*
X163446271Y-79133782D01*
X163384948Y-79167267D01*
X163315256Y-79162283D01*
X163259323Y-79120411D01*
X163242408Y-79089434D01*
X163193354Y-78957913D01*
X163193350Y-78957906D01*
X163107190Y-78842812D01*
X163107187Y-78842809D01*
X162992093Y-78756649D01*
X162992086Y-78756645D01*
X162857379Y-78706403D01*
X162857372Y-78706401D01*
X162797844Y-78700000D01*
X162500000Y-78700000D01*
X162500000Y-79626000D01*
X162480315Y-79693039D01*
X162427511Y-79738794D01*
X162376000Y-79750000D01*
X162250000Y-79750000D01*
X162250000Y-79876000D01*
X162230315Y-79943039D01*
X162177511Y-79988794D01*
X162126000Y-80000000D01*
X161250000Y-80000000D01*
X161250000Y-80316559D01*
X161230315Y-80383598D01*
X161213681Y-80404240D01*
X161128213Y-80489707D01*
X161128210Y-80489711D01*
X161040609Y-80620814D01*
X161040602Y-80620827D01*
X160980264Y-80766498D01*
X160980261Y-80766510D01*
X160949500Y-80921153D01*
X160949500Y-81078846D01*
X160980261Y-81233489D01*
X160980264Y-81233501D01*
X161040602Y-81379172D01*
X161040606Y-81379179D01*
X161078602Y-81436044D01*
X161099480Y-81502721D01*
X161099500Y-81504935D01*
X161099500Y-82139191D01*
X161079815Y-82206230D01*
X161063181Y-82226872D01*
X160386128Y-82903924D01*
X160324805Y-82937409D01*
X160255113Y-82932425D01*
X160199180Y-82890553D01*
X160176112Y-82831462D01*
X160176098Y-82831466D01*
X160176079Y-82831378D01*
X160175089Y-82828842D01*
X160174681Y-82824848D01*
X160120453Y-82661199D01*
X160120448Y-82661188D01*
X160029947Y-82514465D01*
X160029944Y-82514461D01*
X159908038Y-82392555D01*
X159908034Y-82392552D01*
X159761311Y-82302051D01*
X159761300Y-82302046D01*
X159597652Y-82247819D01*
X159496654Y-82237500D01*
X159460000Y-82237500D01*
X159460000Y-83151000D01*
X159440315Y-83218039D01*
X159387511Y-83263794D01*
X159336000Y-83275000D01*
X159084000Y-83275000D01*
X159016961Y-83255315D01*
X158971206Y-83202511D01*
X158960000Y-83151000D01*
X158960000Y-82237500D01*
X158923361Y-82237500D01*
X158923343Y-82237501D01*
X158822347Y-82247819D01*
X158658699Y-82302046D01*
X158658688Y-82302051D01*
X158511965Y-82392552D01*
X158511961Y-82392555D01*
X158390055Y-82514461D01*
X158390052Y-82514465D01*
X158299551Y-82661188D01*
X158299546Y-82661199D01*
X158245318Y-82824849D01*
X158245317Y-82824853D01*
X158244909Y-82828852D01*
X158243968Y-82831157D01*
X158243902Y-82831467D01*
X158243846Y-82831455D01*
X158218510Y-82893543D01*
X158161328Y-82933691D01*
X158091517Y-82936551D01*
X158033871Y-82903925D01*
X157291081Y-82161134D01*
X157291080Y-82161133D01*
X157184532Y-82089940D01*
X157066154Y-82040907D01*
X157066145Y-82040904D01*
X157059927Y-82039667D01*
X157015237Y-82021154D01*
X156919240Y-81957011D01*
X156773565Y-81896671D01*
X156773553Y-81896668D01*
X156618909Y-81865907D01*
X156618906Y-81865907D01*
X156461222Y-81865907D01*
X156461219Y-81865907D01*
X156306574Y-81896668D01*
X156306562Y-81896671D01*
X156160891Y-81957009D01*
X156160875Y-81957018D01*
X156141277Y-81970113D01*
X156074599Y-81990990D01*
X156007219Y-81972504D01*
X155960530Y-81920525D01*
X155948388Y-81867010D01*
X155948388Y-81487286D01*
X155948387Y-81487272D01*
X155945760Y-81467320D01*
X155933575Y-81374764D01*
X155875586Y-81234767D01*
X155783339Y-81114549D01*
X155663121Y-81022302D01*
X155663117Y-81022300D01*
X155600734Y-80996460D01*
X155546331Y-80952619D01*
X155524266Y-80886325D01*
X155541545Y-80818625D01*
X155545086Y-80813007D01*
X155573998Y-80769738D01*
X155584394Y-80754179D01*
X155644737Y-80608497D01*
X155675500Y-80453842D01*
X155675500Y-80296158D01*
X155675500Y-80296155D01*
X155675499Y-80296153D01*
X155674395Y-80290602D01*
X155644737Y-80141503D01*
X155644735Y-80141498D01*
X155584397Y-79995827D01*
X155584390Y-79995814D01*
X155496789Y-79864711D01*
X155496786Y-79864707D01*
X155385296Y-79753217D01*
X155385292Y-79753214D01*
X155385289Y-79753211D01*
X155355606Y-79733377D01*
X155310803Y-79679764D01*
X155300500Y-79630277D01*
X155300500Y-79320515D01*
X155317768Y-79257394D01*
X155318473Y-79256202D01*
X155401744Y-79115398D01*
X155447598Y-78957569D01*
X155450010Y-78926923D01*
X155450046Y-78926826D01*
X155450025Y-78926723D01*
X155450025Y-78926718D01*
X155462483Y-78894194D01*
X155474891Y-78861637D01*
X155474977Y-78861573D01*
X155475016Y-78861473D01*
X155503111Y-78840823D01*
X155531121Y-78820165D01*
X155531227Y-78820158D01*
X155531315Y-78820094D01*
X155566034Y-78817917D01*
X155600846Y-78815676D01*
X155600940Y-78815728D01*
X155601048Y-78815722D01*
X155631491Y-78832693D01*
X155661930Y-78849597D01*
X155662012Y-78849709D01*
X155662075Y-78849744D01*
X155682977Y-78878183D01*
X155685350Y-78882621D01*
X155700000Y-78941090D01*
X155700000Y-79502295D01*
X155700001Y-79502295D01*
X155702486Y-79502100D01*
X155860198Y-79456281D01*
X156001550Y-79372686D01*
X156001553Y-79372683D01*
X156027966Y-79346271D01*
X156089289Y-79312785D01*
X156158981Y-79317769D01*
X156163067Y-79319376D01*
X156278165Y-79367051D01*
X156278169Y-79367051D01*
X156278170Y-79367052D01*
X156471456Y-79405500D01*
X156471459Y-79405500D01*
X156668543Y-79405500D01*
X156833546Y-79372678D01*
X156861835Y-79367051D01*
X157043914Y-79291632D01*
X157207782Y-79182139D01*
X157237766Y-79152155D01*
X161250000Y-79152155D01*
X161250000Y-79500000D01*
X162000000Y-79500000D01*
X162000000Y-78700000D01*
X161702155Y-78700000D01*
X161642627Y-78706401D01*
X161642620Y-78706403D01*
X161507913Y-78756645D01*
X161507906Y-78756649D01*
X161392812Y-78842809D01*
X161392809Y-78842812D01*
X161306649Y-78957906D01*
X161306645Y-78957913D01*
X161256403Y-79092620D01*
X161256401Y-79092627D01*
X161250000Y-79152155D01*
X157237766Y-79152155D01*
X157256139Y-79133782D01*
X157328752Y-79061170D01*
X157347136Y-79042785D01*
X157347139Y-79042782D01*
X157456632Y-78878914D01*
X157532051Y-78696835D01*
X157570500Y-78503541D01*
X157570500Y-77206459D01*
X157570500Y-77206456D01*
X157532052Y-77013170D01*
X157532051Y-77013169D01*
X157532051Y-77013165D01*
X157529323Y-77006579D01*
X157456635Y-76831092D01*
X157456628Y-76831079D01*
X157347139Y-76667218D01*
X157347136Y-76667214D01*
X157207785Y-76527863D01*
X157207781Y-76527860D01*
X157043920Y-76418371D01*
X157043907Y-76418364D01*
X156861839Y-76342950D01*
X156861829Y-76342947D01*
X156668543Y-76304500D01*
X156668541Y-76304500D01*
X156471459Y-76304500D01*
X156471457Y-76304500D01*
X156278170Y-76342947D01*
X156278160Y-76342950D01*
X156096092Y-76418364D01*
X156096079Y-76418371D01*
X155932218Y-76527860D01*
X155932214Y-76527863D01*
X155792863Y-76667214D01*
X155792860Y-76667218D01*
X155683371Y-76831079D01*
X155683363Y-76831094D01*
X155679456Y-76840528D01*
X155635615Y-76894931D01*
X155569320Y-76916995D01*
X155501621Y-76899715D01*
X155496968Y-76896566D01*
X155493366Y-76894486D01*
X155493365Y-76894485D01*
X155399899Y-76840522D01*
X155362136Y-76818719D01*
X155288950Y-76799109D01*
X155215766Y-76779500D01*
X155064234Y-76779500D01*
X154917863Y-76818719D01*
X154786635Y-76894485D01*
X154673738Y-77007382D01*
X154671671Y-77005315D01*
X154654763Y-77017355D01*
X154627101Y-77037546D01*
X154626348Y-77037590D01*
X154625734Y-77038028D01*
X154591562Y-77039656D01*
X154557354Y-77041688D01*
X154556444Y-77041330D01*
X154555943Y-77041354D01*
X154523177Y-77028237D01*
X154505776Y-77018191D01*
X154505774Y-77018189D01*
X154505774Y-77018190D01*
X154464609Y-76994423D01*
X154311881Y-76953499D01*
X154153767Y-76953499D01*
X154146171Y-76953499D01*
X154146155Y-76953500D01*
X153854098Y-76953500D01*
X153787059Y-76933815D01*
X153766417Y-76917181D01*
X153521717Y-76672481D01*
X153521716Y-76672480D01*
X153434904Y-76622360D01*
X153434904Y-76622359D01*
X153434900Y-76622358D01*
X153384785Y-76593423D01*
X153232057Y-76552499D01*
X153073943Y-76552499D01*
X153066347Y-76552499D01*
X153066331Y-76552500D01*
X151183670Y-76552500D01*
X151183654Y-76552499D01*
X151176058Y-76552499D01*
X151017943Y-76552499D01*
X150941579Y-76572961D01*
X150865214Y-76593423D01*
X150865209Y-76593426D01*
X150728290Y-76672475D01*
X150728282Y-76672481D01*
X150483584Y-76917181D01*
X150422261Y-76950666D01*
X150395903Y-76953500D01*
X150188115Y-76953500D01*
X150157600Y-76961676D01*
X150157601Y-76961677D01*
X150035391Y-76994423D01*
X149976823Y-77028237D01*
X149908922Y-77044708D01*
X149842896Y-77021855D01*
X149827064Y-77006579D01*
X149826262Y-77007382D01*
X149713367Y-76894487D01*
X149713365Y-76894485D01*
X149637730Y-76850817D01*
X149582136Y-76818719D01*
X149508950Y-76799109D01*
X149435766Y-76779500D01*
X149284234Y-76779500D01*
X149137863Y-76818719D01*
X149046428Y-76871510D01*
X149006635Y-76894485D01*
X149006633Y-76894486D01*
X148999597Y-76898549D01*
X148998254Y-76896224D01*
X148945391Y-76916647D01*
X148876949Y-76902592D01*
X148826971Y-76853766D01*
X148820540Y-76840522D01*
X148816632Y-76831087D01*
X148816628Y-76831079D01*
X148707139Y-76667218D01*
X148707136Y-76667214D01*
X148567785Y-76527863D01*
X148567781Y-76527860D01*
X148403920Y-76418371D01*
X148403907Y-76418364D01*
X148221839Y-76342950D01*
X148221829Y-76342947D01*
X148028543Y-76304500D01*
X148028541Y-76304500D01*
X147831459Y-76304500D01*
X147831454Y-76304500D01*
X147692034Y-76332232D01*
X147622442Y-76326005D01*
X147567265Y-76283141D01*
X147544021Y-76217251D01*
X147548068Y-76178526D01*
X147565285Y-76114273D01*
X147565285Y-75956158D01*
X147565285Y-75173649D01*
X147584970Y-75106610D01*
X147637774Y-75060855D01*
X147706932Y-75050911D01*
X147713477Y-75052032D01*
X147831456Y-75075500D01*
X147831459Y-75075500D01*
X148028543Y-75075500D01*
X148160914Y-75049169D01*
X148221835Y-75037051D01*
X148403914Y-74961632D01*
X148567782Y-74852139D01*
X148707139Y-74712782D01*
X148816632Y-74548914D01*
X148892051Y-74366835D01*
X148923368Y-74209397D01*
X148930500Y-74173543D01*
X155569499Y-74173543D01*
X155607947Y-74366829D01*
X155607950Y-74366839D01*
X155683364Y-74548907D01*
X155683371Y-74548920D01*
X155792860Y-74712781D01*
X155792863Y-74712785D01*
X155932214Y-74852136D01*
X155932218Y-74852139D01*
X156096079Y-74961628D01*
X156096092Y-74961635D01*
X156205284Y-75006863D01*
X156278165Y-75037051D01*
X156278169Y-75037051D01*
X156278170Y-75037052D01*
X156471456Y-75075500D01*
X156471459Y-75075500D01*
X156668543Y-75075500D01*
X156800914Y-75049169D01*
X156861835Y-75037051D01*
X157043914Y-74961632D01*
X157207782Y-74852139D01*
X157347139Y-74712782D01*
X157456632Y-74548914D01*
X157532051Y-74366835D01*
X157563368Y-74209397D01*
X157570500Y-74173543D01*
X157570500Y-73176456D01*
X157532052Y-72983170D01*
X157532051Y-72983169D01*
X157532051Y-72983165D01*
X157505964Y-72920185D01*
X157456635Y-72801092D01*
X157456628Y-72801079D01*
X157347139Y-72637218D01*
X157347136Y-72637214D01*
X157207785Y-72497863D01*
X157207781Y-72497860D01*
X157043920Y-72388371D01*
X157043907Y-72388364D01*
X156861839Y-72312950D01*
X156861829Y-72312947D01*
X156668543Y-72274500D01*
X156668541Y-72274500D01*
X156471459Y-72274500D01*
X156471457Y-72274500D01*
X156278170Y-72312947D01*
X156278160Y-72312950D01*
X156096092Y-72388364D01*
X156096079Y-72388371D01*
X155932218Y-72497860D01*
X155932214Y-72497863D01*
X155792863Y-72637214D01*
X155792860Y-72637218D01*
X155683371Y-72801079D01*
X155683364Y-72801092D01*
X155607950Y-72983160D01*
X155607947Y-72983170D01*
X155569500Y-73176456D01*
X155569500Y-73176459D01*
X155569500Y-74173541D01*
X155569500Y-74173543D01*
X155569499Y-74173543D01*
X148930500Y-74173543D01*
X148930500Y-73176456D01*
X148892052Y-72983170D01*
X148892051Y-72983169D01*
X148892051Y-72983165D01*
X148865964Y-72920185D01*
X148816635Y-72801092D01*
X148816628Y-72801079D01*
X148707139Y-72637218D01*
X148707136Y-72637214D01*
X148567785Y-72497863D01*
X148567781Y-72497860D01*
X148403920Y-72388371D01*
X148403907Y-72388364D01*
X148221839Y-72312950D01*
X148221829Y-72312947D01*
X148028543Y-72274500D01*
X148028541Y-72274500D01*
X147831459Y-72274500D01*
X147831457Y-72274500D01*
X147638170Y-72312947D01*
X147638160Y-72312950D01*
X147483501Y-72377011D01*
X147414031Y-72384480D01*
X147351552Y-72353204D01*
X147348368Y-72350131D01*
X147329182Y-72330945D01*
X147329159Y-72330924D01*
X146460416Y-71462181D01*
X146426931Y-71400858D01*
X146431915Y-71331166D01*
X146473787Y-71275233D01*
X146539251Y-71250816D01*
X146548097Y-71250500D01*
X161213568Y-71250500D01*
X161226491Y-71254294D01*
G37*
%TD.AperFunction*%
%TA.AperFunction,Conductor*%
G36*
X148999791Y-78836724D02*
G01*
X149042161Y-78892280D01*
X149049990Y-78926923D01*
X149052401Y-78957567D01*
X149052402Y-78957573D01*
X149098254Y-79115393D01*
X149098255Y-79115396D01*
X149166185Y-79230261D01*
X149181919Y-79256865D01*
X149263682Y-79338628D01*
X149297166Y-79399949D01*
X149300000Y-79426308D01*
X149300000Y-79502295D01*
X149300001Y-79502295D01*
X149302490Y-79502100D01*
X149414507Y-79469555D01*
X149483697Y-79469555D01*
X149597431Y-79502598D01*
X149634306Y-79505500D01*
X149725500Y-79505500D01*
X149734185Y-79508050D01*
X149743147Y-79506762D01*
X149767187Y-79517740D01*
X149792539Y-79525185D01*
X149798466Y-79532025D01*
X149806703Y-79535787D01*
X149820992Y-79558021D01*
X149838294Y-79577989D01*
X149840581Y-79588503D01*
X149844477Y-79594565D01*
X149849500Y-79629500D01*
X149849500Y-79674499D01*
X149829815Y-79741538D01*
X149777011Y-79787293D01*
X149725500Y-79798499D01*
X149700157Y-79798499D01*
X149700141Y-79798500D01*
X148937670Y-79798500D01*
X148937654Y-79798499D01*
X148930058Y-79798499D01*
X148771943Y-79798499D01*
X148695579Y-79818961D01*
X148619214Y-79839423D01*
X148619209Y-79839426D01*
X148482290Y-79918475D01*
X148482282Y-79918481D01*
X147962680Y-80438083D01*
X147901357Y-80471568D01*
X147831665Y-80466584D01*
X147787318Y-80438083D01*
X147136819Y-79787584D01*
X147103334Y-79726261D01*
X147100500Y-79699903D01*
X147100500Y-79286025D01*
X147120185Y-79218986D01*
X147172989Y-79173231D01*
X147242147Y-79163287D01*
X147293391Y-79182923D01*
X147456079Y-79291628D01*
X147456092Y-79291635D01*
X147638160Y-79367049D01*
X147638165Y-79367051D01*
X147638169Y-79367051D01*
X147638170Y-79367052D01*
X147831456Y-79405500D01*
X147831459Y-79405500D01*
X148028543Y-79405500D01*
X148193546Y-79372678D01*
X148221835Y-79367051D01*
X148290460Y-79338626D01*
X148336898Y-79319391D01*
X148406367Y-79311922D01*
X148468846Y-79343197D01*
X148472031Y-79346271D01*
X148498438Y-79372678D01*
X148498447Y-79372685D01*
X148639801Y-79456281D01*
X148797514Y-79502100D01*
X148797511Y-79502100D01*
X148799998Y-79502295D01*
X148800000Y-79502295D01*
X148800000Y-78941090D01*
X148808187Y-78908399D01*
X148810288Y-78891636D01*
X148813285Y-78888046D01*
X148814640Y-78882640D01*
X148816629Y-78878918D01*
X148816632Y-78878914D01*
X148816635Y-78878907D01*
X148817012Y-78878202D01*
X148847048Y-78847622D01*
X148855077Y-78838010D01*
X148857119Y-78837369D01*
X148865973Y-78828356D01*
X148934110Y-78812894D01*
X148999791Y-78836724D01*
G37*
%TD.AperFunction*%
%TD*%
M02*
