%TF.GenerationSoftware,KiCad,Pcbnew,9.0.7*%
%TF.CreationDate,2026-02-19T19:24:31+05:30*%
%TF.ProjectId,pcb-n-as5600,7063622d-6e2d-4617-9335-3630302e6b69,rev?*%
%TF.SameCoordinates,Original*%
%TF.FileFunction,Legend,Bot*%
%TF.FilePolarity,Positive*%
%FSLAX46Y46*%
G04 Gerber Fmt 4.6, Leading zero omitted, Abs format (unit mm)*
G04 Created by KiCad (PCBNEW 9.0.7) date 2026-02-19 19:24:31*
%MOMM*%
%LPD*%
G01*
G04 APERTURE LIST*
%ADD10C,0.150000*%
%ADD11C,0.120000*%
%ADD12C,0.203200*%
%ADD13C,0.076200*%
G04 APERTURE END LIST*
D10*
X164486666Y-101647080D02*
X164534285Y-101694700D01*
X164534285Y-101694700D02*
X164677142Y-101742319D01*
X164677142Y-101742319D02*
X164772380Y-101742319D01*
X164772380Y-101742319D02*
X164915237Y-101694700D01*
X164915237Y-101694700D02*
X165010475Y-101599461D01*
X165010475Y-101599461D02*
X165058094Y-101504223D01*
X165058094Y-101504223D02*
X165105713Y-101313747D01*
X165105713Y-101313747D02*
X165105713Y-101170890D01*
X165105713Y-101170890D02*
X165058094Y-100980414D01*
X165058094Y-100980414D02*
X165010475Y-100885176D01*
X165010475Y-100885176D02*
X164915237Y-100789938D01*
X164915237Y-100789938D02*
X164772380Y-100742319D01*
X164772380Y-100742319D02*
X164677142Y-100742319D01*
X164677142Y-100742319D02*
X164534285Y-100789938D01*
X164534285Y-100789938D02*
X164486666Y-100837557D01*
X163629523Y-101075652D02*
X163629523Y-101742319D01*
X163867618Y-100694700D02*
X164105713Y-101408985D01*
X164105713Y-101408985D02*
X163486666Y-101408985D01*
X162666666Y-92359580D02*
X162714285Y-92407200D01*
X162714285Y-92407200D02*
X162857142Y-92454819D01*
X162857142Y-92454819D02*
X162952380Y-92454819D01*
X162952380Y-92454819D02*
X163095237Y-92407200D01*
X163095237Y-92407200D02*
X163190475Y-92311961D01*
X163190475Y-92311961D02*
X163238094Y-92216723D01*
X163238094Y-92216723D02*
X163285713Y-92026247D01*
X163285713Y-92026247D02*
X163285713Y-91883390D01*
X163285713Y-91883390D02*
X163238094Y-91692914D01*
X163238094Y-91692914D02*
X163190475Y-91597676D01*
X163190475Y-91597676D02*
X163095237Y-91502438D01*
X163095237Y-91502438D02*
X162952380Y-91454819D01*
X162952380Y-91454819D02*
X162857142Y-91454819D01*
X162857142Y-91454819D02*
X162714285Y-91502438D01*
X162714285Y-91502438D02*
X162666666Y-91550057D01*
X162333332Y-91454819D02*
X161666666Y-91454819D01*
X161666666Y-91454819D02*
X162095237Y-92454819D01*
X166642319Y-97153333D02*
X166166128Y-96820000D01*
X166642319Y-96581905D02*
X165642319Y-96581905D01*
X165642319Y-96581905D02*
X165642319Y-96962857D01*
X165642319Y-96962857D02*
X165689938Y-97058095D01*
X165689938Y-97058095D02*
X165737557Y-97105714D01*
X165737557Y-97105714D02*
X165832795Y-97153333D01*
X165832795Y-97153333D02*
X165975652Y-97153333D01*
X165975652Y-97153333D02*
X166070890Y-97105714D01*
X166070890Y-97105714D02*
X166118509Y-97058095D01*
X166118509Y-97058095D02*
X166166128Y-96962857D01*
X166166128Y-96962857D02*
X166166128Y-96581905D01*
X165642319Y-97486667D02*
X165642319Y-98105714D01*
X165642319Y-98105714D02*
X166023271Y-97772381D01*
X166023271Y-97772381D02*
X166023271Y-97915238D01*
X166023271Y-97915238D02*
X166070890Y-98010476D01*
X166070890Y-98010476D02*
X166118509Y-98058095D01*
X166118509Y-98058095D02*
X166213747Y-98105714D01*
X166213747Y-98105714D02*
X166451842Y-98105714D01*
X166451842Y-98105714D02*
X166547080Y-98058095D01*
X166547080Y-98058095D02*
X166594700Y-98010476D01*
X166594700Y-98010476D02*
X166642319Y-97915238D01*
X166642319Y-97915238D02*
X166642319Y-97629524D01*
X166642319Y-97629524D02*
X166594700Y-97534286D01*
X166594700Y-97534286D02*
X166547080Y-97486667D01*
X151192319Y-86873095D02*
X152001842Y-86873095D01*
X152001842Y-86873095D02*
X152097080Y-86920714D01*
X152097080Y-86920714D02*
X152144700Y-86968333D01*
X152144700Y-86968333D02*
X152192319Y-87063571D01*
X152192319Y-87063571D02*
X152192319Y-87254047D01*
X152192319Y-87254047D02*
X152144700Y-87349285D01*
X152144700Y-87349285D02*
X152097080Y-87396904D01*
X152097080Y-87396904D02*
X152001842Y-87444523D01*
X152001842Y-87444523D02*
X151192319Y-87444523D01*
X151525652Y-88349285D02*
X152192319Y-88349285D01*
X151144700Y-88111190D02*
X151858985Y-87873095D01*
X151858985Y-87873095D02*
X151858985Y-88492142D01*
X157691666Y-90454819D02*
X158024999Y-89978628D01*
X158263094Y-90454819D02*
X158263094Y-89454819D01*
X158263094Y-89454819D02*
X157882142Y-89454819D01*
X157882142Y-89454819D02*
X157786904Y-89502438D01*
X157786904Y-89502438D02*
X157739285Y-89550057D01*
X157739285Y-89550057D02*
X157691666Y-89645295D01*
X157691666Y-89645295D02*
X157691666Y-89788152D01*
X157691666Y-89788152D02*
X157739285Y-89883390D01*
X157739285Y-89883390D02*
X157786904Y-89931009D01*
X157786904Y-89931009D02*
X157882142Y-89978628D01*
X157882142Y-89978628D02*
X158263094Y-89978628D01*
X156739285Y-90454819D02*
X157310713Y-90454819D01*
X157024999Y-90454819D02*
X157024999Y-89454819D01*
X157024999Y-89454819D02*
X157120237Y-89597676D01*
X157120237Y-89597676D02*
X157215475Y-89692914D01*
X157215475Y-89692914D02*
X157310713Y-89740533D01*
X160587319Y-82925833D02*
X160111128Y-82592500D01*
X160587319Y-82354405D02*
X159587319Y-82354405D01*
X159587319Y-82354405D02*
X159587319Y-82735357D01*
X159587319Y-82735357D02*
X159634938Y-82830595D01*
X159634938Y-82830595D02*
X159682557Y-82878214D01*
X159682557Y-82878214D02*
X159777795Y-82925833D01*
X159777795Y-82925833D02*
X159920652Y-82925833D01*
X159920652Y-82925833D02*
X160015890Y-82878214D01*
X160015890Y-82878214D02*
X160063509Y-82830595D01*
X160063509Y-82830595D02*
X160111128Y-82735357D01*
X160111128Y-82735357D02*
X160111128Y-82354405D01*
X159682557Y-83306786D02*
X159634938Y-83354405D01*
X159634938Y-83354405D02*
X159587319Y-83449643D01*
X159587319Y-83449643D02*
X159587319Y-83687738D01*
X159587319Y-83687738D02*
X159634938Y-83782976D01*
X159634938Y-83782976D02*
X159682557Y-83830595D01*
X159682557Y-83830595D02*
X159777795Y-83878214D01*
X159777795Y-83878214D02*
X159873033Y-83878214D01*
X159873033Y-83878214D02*
X160015890Y-83830595D01*
X160015890Y-83830595D02*
X160587319Y-83259167D01*
X160587319Y-83259167D02*
X160587319Y-83878214D01*
X143954819Y-88269642D02*
X143478628Y-87936309D01*
X143954819Y-87698214D02*
X142954819Y-87698214D01*
X142954819Y-87698214D02*
X142954819Y-88079166D01*
X142954819Y-88079166D02*
X143002438Y-88174404D01*
X143002438Y-88174404D02*
X143050057Y-88222023D01*
X143050057Y-88222023D02*
X143145295Y-88269642D01*
X143145295Y-88269642D02*
X143288152Y-88269642D01*
X143288152Y-88269642D02*
X143383390Y-88222023D01*
X143383390Y-88222023D02*
X143431009Y-88174404D01*
X143431009Y-88174404D02*
X143478628Y-88079166D01*
X143478628Y-88079166D02*
X143478628Y-87698214D01*
X143954819Y-89222023D02*
X143954819Y-88650595D01*
X143954819Y-88936309D02*
X142954819Y-88936309D01*
X142954819Y-88936309D02*
X143097676Y-88841071D01*
X143097676Y-88841071D02*
X143192914Y-88745833D01*
X143192914Y-88745833D02*
X143240533Y-88650595D01*
X142954819Y-89555357D02*
X142954819Y-90174404D01*
X142954819Y-90174404D02*
X143335771Y-89841071D01*
X143335771Y-89841071D02*
X143335771Y-89983928D01*
X143335771Y-89983928D02*
X143383390Y-90079166D01*
X143383390Y-90079166D02*
X143431009Y-90126785D01*
X143431009Y-90126785D02*
X143526247Y-90174404D01*
X143526247Y-90174404D02*
X143764342Y-90174404D01*
X143764342Y-90174404D02*
X143859580Y-90126785D01*
X143859580Y-90126785D02*
X143907200Y-90079166D01*
X143907200Y-90079166D02*
X143954819Y-89983928D01*
X143954819Y-89983928D02*
X143954819Y-89698214D01*
X143954819Y-89698214D02*
X143907200Y-89602976D01*
X143907200Y-89602976D02*
X143859580Y-89555357D01*
X165759166Y-82322319D02*
X166092499Y-81846128D01*
X166330594Y-82322319D02*
X166330594Y-81322319D01*
X166330594Y-81322319D02*
X165949642Y-81322319D01*
X165949642Y-81322319D02*
X165854404Y-81369938D01*
X165854404Y-81369938D02*
X165806785Y-81417557D01*
X165806785Y-81417557D02*
X165759166Y-81512795D01*
X165759166Y-81512795D02*
X165759166Y-81655652D01*
X165759166Y-81655652D02*
X165806785Y-81750890D01*
X165806785Y-81750890D02*
X165854404Y-81798509D01*
X165854404Y-81798509D02*
X165949642Y-81846128D01*
X165949642Y-81846128D02*
X166330594Y-81846128D01*
X165187737Y-81750890D02*
X165282975Y-81703271D01*
X165282975Y-81703271D02*
X165330594Y-81655652D01*
X165330594Y-81655652D02*
X165378213Y-81560414D01*
X165378213Y-81560414D02*
X165378213Y-81512795D01*
X165378213Y-81512795D02*
X165330594Y-81417557D01*
X165330594Y-81417557D02*
X165282975Y-81369938D01*
X165282975Y-81369938D02*
X165187737Y-81322319D01*
X165187737Y-81322319D02*
X164997261Y-81322319D01*
X164997261Y-81322319D02*
X164902023Y-81369938D01*
X164902023Y-81369938D02*
X164854404Y-81417557D01*
X164854404Y-81417557D02*
X164806785Y-81512795D01*
X164806785Y-81512795D02*
X164806785Y-81560414D01*
X164806785Y-81560414D02*
X164854404Y-81655652D01*
X164854404Y-81655652D02*
X164902023Y-81703271D01*
X164902023Y-81703271D02*
X164997261Y-81750890D01*
X164997261Y-81750890D02*
X165187737Y-81750890D01*
X165187737Y-81750890D02*
X165282975Y-81798509D01*
X165282975Y-81798509D02*
X165330594Y-81846128D01*
X165330594Y-81846128D02*
X165378213Y-81941366D01*
X165378213Y-81941366D02*
X165378213Y-82131842D01*
X165378213Y-82131842D02*
X165330594Y-82227080D01*
X165330594Y-82227080D02*
X165282975Y-82274700D01*
X165282975Y-82274700D02*
X165187737Y-82322319D01*
X165187737Y-82322319D02*
X164997261Y-82322319D01*
X164997261Y-82322319D02*
X164902023Y-82274700D01*
X164902023Y-82274700D02*
X164854404Y-82227080D01*
X164854404Y-82227080D02*
X164806785Y-82131842D01*
X164806785Y-82131842D02*
X164806785Y-81941366D01*
X164806785Y-81941366D02*
X164854404Y-81846128D01*
X164854404Y-81846128D02*
X164902023Y-81798509D01*
X164902023Y-81798509D02*
X164997261Y-81750890D01*
X160094819Y-96983333D02*
X159618628Y-96650000D01*
X160094819Y-96411905D02*
X159094819Y-96411905D01*
X159094819Y-96411905D02*
X159094819Y-96792857D01*
X159094819Y-96792857D02*
X159142438Y-96888095D01*
X159142438Y-96888095D02*
X159190057Y-96935714D01*
X159190057Y-96935714D02*
X159285295Y-96983333D01*
X159285295Y-96983333D02*
X159428152Y-96983333D01*
X159428152Y-96983333D02*
X159523390Y-96935714D01*
X159523390Y-96935714D02*
X159571009Y-96888095D01*
X159571009Y-96888095D02*
X159618628Y-96792857D01*
X159618628Y-96792857D02*
X159618628Y-96411905D01*
X159428152Y-97840476D02*
X160094819Y-97840476D01*
X159047200Y-97602381D02*
X159761485Y-97364286D01*
X159761485Y-97364286D02*
X159761485Y-97983333D01*
X165434166Y-84677080D02*
X165481785Y-84724700D01*
X165481785Y-84724700D02*
X165624642Y-84772319D01*
X165624642Y-84772319D02*
X165719880Y-84772319D01*
X165719880Y-84772319D02*
X165862737Y-84724700D01*
X165862737Y-84724700D02*
X165957975Y-84629461D01*
X165957975Y-84629461D02*
X166005594Y-84534223D01*
X166005594Y-84534223D02*
X166053213Y-84343747D01*
X166053213Y-84343747D02*
X166053213Y-84200890D01*
X166053213Y-84200890D02*
X166005594Y-84010414D01*
X166005594Y-84010414D02*
X165957975Y-83915176D01*
X165957975Y-83915176D02*
X165862737Y-83819938D01*
X165862737Y-83819938D02*
X165719880Y-83772319D01*
X165719880Y-83772319D02*
X165624642Y-83772319D01*
X165624642Y-83772319D02*
X165481785Y-83819938D01*
X165481785Y-83819938D02*
X165434166Y-83867557D01*
X164862737Y-84200890D02*
X164957975Y-84153271D01*
X164957975Y-84153271D02*
X165005594Y-84105652D01*
X165005594Y-84105652D02*
X165053213Y-84010414D01*
X165053213Y-84010414D02*
X165053213Y-83962795D01*
X165053213Y-83962795D02*
X165005594Y-83867557D01*
X165005594Y-83867557D02*
X164957975Y-83819938D01*
X164957975Y-83819938D02*
X164862737Y-83772319D01*
X164862737Y-83772319D02*
X164672261Y-83772319D01*
X164672261Y-83772319D02*
X164577023Y-83819938D01*
X164577023Y-83819938D02*
X164529404Y-83867557D01*
X164529404Y-83867557D02*
X164481785Y-83962795D01*
X164481785Y-83962795D02*
X164481785Y-84010414D01*
X164481785Y-84010414D02*
X164529404Y-84105652D01*
X164529404Y-84105652D02*
X164577023Y-84153271D01*
X164577023Y-84153271D02*
X164672261Y-84200890D01*
X164672261Y-84200890D02*
X164862737Y-84200890D01*
X164862737Y-84200890D02*
X164957975Y-84248509D01*
X164957975Y-84248509D02*
X165005594Y-84296128D01*
X165005594Y-84296128D02*
X165053213Y-84391366D01*
X165053213Y-84391366D02*
X165053213Y-84581842D01*
X165053213Y-84581842D02*
X165005594Y-84677080D01*
X165005594Y-84677080D02*
X164957975Y-84724700D01*
X164957975Y-84724700D02*
X164862737Y-84772319D01*
X164862737Y-84772319D02*
X164672261Y-84772319D01*
X164672261Y-84772319D02*
X164577023Y-84724700D01*
X164577023Y-84724700D02*
X164529404Y-84677080D01*
X164529404Y-84677080D02*
X164481785Y-84581842D01*
X164481785Y-84581842D02*
X164481785Y-84391366D01*
X164481785Y-84391366D02*
X164529404Y-84296128D01*
X164529404Y-84296128D02*
X164577023Y-84248509D01*
X164577023Y-84248509D02*
X164672261Y-84200890D01*
X143954819Y-84745833D02*
X143478628Y-84412500D01*
X143954819Y-84174405D02*
X142954819Y-84174405D01*
X142954819Y-84174405D02*
X142954819Y-84555357D01*
X142954819Y-84555357D02*
X143002438Y-84650595D01*
X143002438Y-84650595D02*
X143050057Y-84698214D01*
X143050057Y-84698214D02*
X143145295Y-84745833D01*
X143145295Y-84745833D02*
X143288152Y-84745833D01*
X143288152Y-84745833D02*
X143383390Y-84698214D01*
X143383390Y-84698214D02*
X143431009Y-84650595D01*
X143431009Y-84650595D02*
X143478628Y-84555357D01*
X143478628Y-84555357D02*
X143478628Y-84174405D01*
X142954819Y-85079167D02*
X142954819Y-85745833D01*
X142954819Y-85745833D02*
X143954819Y-85317262D01*
X163822319Y-88014642D02*
X163346128Y-87681309D01*
X163822319Y-87443214D02*
X162822319Y-87443214D01*
X162822319Y-87443214D02*
X162822319Y-87824166D01*
X162822319Y-87824166D02*
X162869938Y-87919404D01*
X162869938Y-87919404D02*
X162917557Y-87967023D01*
X162917557Y-87967023D02*
X163012795Y-88014642D01*
X163012795Y-88014642D02*
X163155652Y-88014642D01*
X163155652Y-88014642D02*
X163250890Y-87967023D01*
X163250890Y-87967023D02*
X163298509Y-87919404D01*
X163298509Y-87919404D02*
X163346128Y-87824166D01*
X163346128Y-87824166D02*
X163346128Y-87443214D01*
X163822319Y-88967023D02*
X163822319Y-88395595D01*
X163822319Y-88681309D02*
X162822319Y-88681309D01*
X162822319Y-88681309D02*
X162965176Y-88586071D01*
X162965176Y-88586071D02*
X163060414Y-88490833D01*
X163060414Y-88490833D02*
X163108033Y-88395595D01*
X163822319Y-89919404D02*
X163822319Y-89347976D01*
X163822319Y-89633690D02*
X162822319Y-89633690D01*
X162822319Y-89633690D02*
X162965176Y-89538452D01*
X162965176Y-89538452D02*
X163060414Y-89443214D01*
X163060414Y-89443214D02*
X163108033Y-89347976D01*
D11*
%TO.C,C4*%
X162240000Y-100258767D02*
X162240000Y-99966233D01*
X163260000Y-100258767D02*
X163260000Y-99966233D01*
%TO.C,C7*%
X162508767Y-94010000D02*
X162216233Y-94010000D01*
X162508767Y-92990000D02*
X162216233Y-92990000D01*
%TO.C,R3*%
X165022500Y-96995276D02*
X165022500Y-97504724D01*
X163977500Y-96995276D02*
X163977500Y-97504724D01*
D12*
%TO.C,U4*%
X154400000Y-84005000D02*
X153900000Y-84005000D01*
X153900000Y-88805000D02*
X154400000Y-88805000D01*
X153900000Y-88805000D02*
X153900000Y-84005000D01*
X153900000Y-84005000D02*
X150600000Y-84005000D01*
D13*
X153000000Y-84905000D02*
X152000000Y-84905000D01*
X153000000Y-83905000D02*
X153000000Y-84905000D01*
X152000000Y-84905000D02*
X152000000Y-83905000D01*
D12*
X150600000Y-88805000D02*
X153900000Y-88805000D01*
D11*
%TO.C,R1*%
X157495276Y-92022500D02*
X158004724Y-92022500D01*
X157495276Y-90977500D02*
X158004724Y-90977500D01*
%TO.C,R2*%
X162272500Y-82907776D02*
X162272500Y-83417224D01*
X161227500Y-82907776D02*
X161227500Y-83417224D01*
%TO.C,R13*%
X144022500Y-89167224D02*
X144022500Y-88657776D01*
X142977500Y-89167224D02*
X142977500Y-88657776D01*
%TO.C,R8*%
X165407776Y-80772500D02*
X165917224Y-80772500D01*
X165407776Y-79727500D02*
X165917224Y-79727500D01*
%TO.C,R4*%
X161522500Y-97082776D02*
X161522500Y-97592224D01*
X160477500Y-97082776D02*
X160477500Y-97592224D01*
%TO.C,C8*%
X165191233Y-83210000D02*
X165483767Y-83210000D01*
X165191233Y-82190000D02*
X165483767Y-82190000D01*
%TO.C,R7*%
X144022500Y-84657776D02*
X144022500Y-85167224D01*
X142977500Y-84657776D02*
X142977500Y-85167224D01*
%TO.C,R11*%
X162272500Y-88842224D02*
X162272500Y-88332776D01*
X161227500Y-88842224D02*
X161227500Y-88332776D01*
%TD*%
M02*
