%TF.GenerationSoftware,KiCad,Pcbnew,9.0.7*%
%TF.CreationDate,2026-02-19T20:57:42+05:30*%
%TF.ProjectId,pcb-n-as5600,7063622d-6e2d-4617-9335-3630302e6b69,rev?*%
%TF.SameCoordinates,Original*%
%TF.FileFunction,Legend,Top*%
%TF.FilePolarity,Positive*%
%FSLAX46Y46*%
G04 Gerber Fmt 4.6, Leading zero omitted, Abs format (unit mm)*
G04 Created by KiCad (PCBNEW 9.0.7) date 2026-02-19 20:57:42*
%MOMM*%
%LPD*%
G01*
G04 APERTURE LIST*
%ADD10C,0.150000*%
%ADD11C,0.120000*%
%ADD12C,0.127000*%
%ADD13C,0.200000*%
G04 APERTURE END LIST*
D10*
X144492080Y-89059166D02*
X144539700Y-89106785D01*
X144539700Y-89106785D02*
X144587319Y-89249642D01*
X144587319Y-89249642D02*
X144587319Y-89344880D01*
X144587319Y-89344880D02*
X144539700Y-89487737D01*
X144539700Y-89487737D02*
X144444461Y-89582975D01*
X144444461Y-89582975D02*
X144349223Y-89630594D01*
X144349223Y-89630594D02*
X144158747Y-89678213D01*
X144158747Y-89678213D02*
X144015890Y-89678213D01*
X144015890Y-89678213D02*
X143825414Y-89630594D01*
X143825414Y-89630594D02*
X143730176Y-89582975D01*
X143730176Y-89582975D02*
X143634938Y-89487737D01*
X143634938Y-89487737D02*
X143587319Y-89344880D01*
X143587319Y-89344880D02*
X143587319Y-89249642D01*
X143587319Y-89249642D02*
X143634938Y-89106785D01*
X143634938Y-89106785D02*
X143682557Y-89059166D01*
X144587319Y-88106785D02*
X144587319Y-88678213D01*
X144587319Y-88392499D02*
X143587319Y-88392499D01*
X143587319Y-88392499D02*
X143730176Y-88487737D01*
X143730176Y-88487737D02*
X143825414Y-88582975D01*
X143825414Y-88582975D02*
X143873033Y-88678213D01*
X146261905Y-101204819D02*
X146261905Y-100204819D01*
X146261905Y-100204819D02*
X146500000Y-100204819D01*
X146500000Y-100204819D02*
X146642857Y-100252438D01*
X146642857Y-100252438D02*
X146738095Y-100347676D01*
X146738095Y-100347676D02*
X146785714Y-100442914D01*
X146785714Y-100442914D02*
X146833333Y-100633390D01*
X146833333Y-100633390D02*
X146833333Y-100776247D01*
X146833333Y-100776247D02*
X146785714Y-100966723D01*
X146785714Y-100966723D02*
X146738095Y-101061961D01*
X146738095Y-101061961D02*
X146642857Y-101157200D01*
X146642857Y-101157200D02*
X146500000Y-101204819D01*
X146500000Y-101204819D02*
X146261905Y-101204819D01*
X147785714Y-101204819D02*
X147214286Y-101204819D01*
X147500000Y-101204819D02*
X147500000Y-100204819D01*
X147500000Y-100204819D02*
X147404762Y-100347676D01*
X147404762Y-100347676D02*
X147309524Y-100442914D01*
X147309524Y-100442914D02*
X147214286Y-100490533D01*
X161609580Y-84892857D02*
X161657200Y-84940476D01*
X161657200Y-84940476D02*
X161704819Y-85083333D01*
X161704819Y-85083333D02*
X161704819Y-85178571D01*
X161704819Y-85178571D02*
X161657200Y-85321428D01*
X161657200Y-85321428D02*
X161561961Y-85416666D01*
X161561961Y-85416666D02*
X161466723Y-85464285D01*
X161466723Y-85464285D02*
X161276247Y-85511904D01*
X161276247Y-85511904D02*
X161133390Y-85511904D01*
X161133390Y-85511904D02*
X160942914Y-85464285D01*
X160942914Y-85464285D02*
X160847676Y-85416666D01*
X160847676Y-85416666D02*
X160752438Y-85321428D01*
X160752438Y-85321428D02*
X160704819Y-85178571D01*
X160704819Y-85178571D02*
X160704819Y-85083333D01*
X160704819Y-85083333D02*
X160752438Y-84940476D01*
X160752438Y-84940476D02*
X160800057Y-84892857D01*
X161704819Y-83940476D02*
X161704819Y-84511904D01*
X161704819Y-84226190D02*
X160704819Y-84226190D01*
X160704819Y-84226190D02*
X160847676Y-84321428D01*
X160847676Y-84321428D02*
X160942914Y-84416666D01*
X160942914Y-84416666D02*
X160990533Y-84511904D01*
X161704819Y-82988095D02*
X161704819Y-83559523D01*
X161704819Y-83273809D02*
X160704819Y-83273809D01*
X160704819Y-83273809D02*
X160847676Y-83369047D01*
X160847676Y-83369047D02*
X160942914Y-83464285D01*
X160942914Y-83464285D02*
X160990533Y-83559523D01*
X140407200Y-73511904D02*
X140454819Y-73369047D01*
X140454819Y-73369047D02*
X140454819Y-73130952D01*
X140454819Y-73130952D02*
X140407200Y-73035714D01*
X140407200Y-73035714D02*
X140359580Y-72988095D01*
X140359580Y-72988095D02*
X140264342Y-72940476D01*
X140264342Y-72940476D02*
X140169104Y-72940476D01*
X140169104Y-72940476D02*
X140073866Y-72988095D01*
X140073866Y-72988095D02*
X140026247Y-73035714D01*
X140026247Y-73035714D02*
X139978628Y-73130952D01*
X139978628Y-73130952D02*
X139931009Y-73321428D01*
X139931009Y-73321428D02*
X139883390Y-73416666D01*
X139883390Y-73416666D02*
X139835771Y-73464285D01*
X139835771Y-73464285D02*
X139740533Y-73511904D01*
X139740533Y-73511904D02*
X139645295Y-73511904D01*
X139645295Y-73511904D02*
X139550057Y-73464285D01*
X139550057Y-73464285D02*
X139502438Y-73416666D01*
X139502438Y-73416666D02*
X139454819Y-73321428D01*
X139454819Y-73321428D02*
X139454819Y-73083333D01*
X139454819Y-73083333D02*
X139502438Y-72940476D01*
X139550057Y-72559523D02*
X139502438Y-72511904D01*
X139502438Y-72511904D02*
X139454819Y-72416666D01*
X139454819Y-72416666D02*
X139454819Y-72178571D01*
X139454819Y-72178571D02*
X139502438Y-72083333D01*
X139502438Y-72083333D02*
X139550057Y-72035714D01*
X139550057Y-72035714D02*
X139645295Y-71988095D01*
X139645295Y-71988095D02*
X139740533Y-71988095D01*
X139740533Y-71988095D02*
X139883390Y-72035714D01*
X139883390Y-72035714D02*
X140454819Y-72607142D01*
X140454819Y-72607142D02*
X140454819Y-71988095D01*
X159657200Y-76011904D02*
X159704819Y-75869047D01*
X159704819Y-75869047D02*
X159704819Y-75630952D01*
X159704819Y-75630952D02*
X159657200Y-75535714D01*
X159657200Y-75535714D02*
X159609580Y-75488095D01*
X159609580Y-75488095D02*
X159514342Y-75440476D01*
X159514342Y-75440476D02*
X159419104Y-75440476D01*
X159419104Y-75440476D02*
X159323866Y-75488095D01*
X159323866Y-75488095D02*
X159276247Y-75535714D01*
X159276247Y-75535714D02*
X159228628Y-75630952D01*
X159228628Y-75630952D02*
X159181009Y-75821428D01*
X159181009Y-75821428D02*
X159133390Y-75916666D01*
X159133390Y-75916666D02*
X159085771Y-75964285D01*
X159085771Y-75964285D02*
X158990533Y-76011904D01*
X158990533Y-76011904D02*
X158895295Y-76011904D01*
X158895295Y-76011904D02*
X158800057Y-75964285D01*
X158800057Y-75964285D02*
X158752438Y-75916666D01*
X158752438Y-75916666D02*
X158704819Y-75821428D01*
X158704819Y-75821428D02*
X158704819Y-75583333D01*
X158704819Y-75583333D02*
X158752438Y-75440476D01*
X159704819Y-74488095D02*
X159704819Y-75059523D01*
X159704819Y-74773809D02*
X158704819Y-74773809D01*
X158704819Y-74773809D02*
X158847676Y-74869047D01*
X158847676Y-74869047D02*
X158942914Y-74964285D01*
X158942914Y-74964285D02*
X158990533Y-75059523D01*
X158094819Y-72320833D02*
X158809104Y-72320833D01*
X158809104Y-72320833D02*
X158951961Y-72368452D01*
X158951961Y-72368452D02*
X159047200Y-72463690D01*
X159047200Y-72463690D02*
X159094819Y-72606547D01*
X159094819Y-72606547D02*
X159094819Y-72701785D01*
X158094819Y-71416071D02*
X158094819Y-71606547D01*
X158094819Y-71606547D02*
X158142438Y-71701785D01*
X158142438Y-71701785D02*
X158190057Y-71749404D01*
X158190057Y-71749404D02*
X158332914Y-71844642D01*
X158332914Y-71844642D02*
X158523390Y-71892261D01*
X158523390Y-71892261D02*
X158904342Y-71892261D01*
X158904342Y-71892261D02*
X158999580Y-71844642D01*
X158999580Y-71844642D02*
X159047200Y-71797023D01*
X159047200Y-71797023D02*
X159094819Y-71701785D01*
X159094819Y-71701785D02*
X159094819Y-71511309D01*
X159094819Y-71511309D02*
X159047200Y-71416071D01*
X159047200Y-71416071D02*
X158999580Y-71368452D01*
X158999580Y-71368452D02*
X158904342Y-71320833D01*
X158904342Y-71320833D02*
X158666247Y-71320833D01*
X158666247Y-71320833D02*
X158571009Y-71368452D01*
X158571009Y-71368452D02*
X158523390Y-71416071D01*
X158523390Y-71416071D02*
X158475771Y-71511309D01*
X158475771Y-71511309D02*
X158475771Y-71701785D01*
X158475771Y-71701785D02*
X158523390Y-71797023D01*
X158523390Y-71797023D02*
X158571009Y-71844642D01*
X158571009Y-71844642D02*
X158666247Y-71892261D01*
X163004819Y-89583333D02*
X163719104Y-89583333D01*
X163719104Y-89583333D02*
X163861961Y-89630952D01*
X163861961Y-89630952D02*
X163957200Y-89726190D01*
X163957200Y-89726190D02*
X164004819Y-89869047D01*
X164004819Y-89869047D02*
X164004819Y-89964285D01*
X163100057Y-89154761D02*
X163052438Y-89107142D01*
X163052438Y-89107142D02*
X163004819Y-89011904D01*
X163004819Y-89011904D02*
X163004819Y-88773809D01*
X163004819Y-88773809D02*
X163052438Y-88678571D01*
X163052438Y-88678571D02*
X163100057Y-88630952D01*
X163100057Y-88630952D02*
X163195295Y-88583333D01*
X163195295Y-88583333D02*
X163290533Y-88583333D01*
X163290533Y-88583333D02*
X163433390Y-88630952D01*
X163433390Y-88630952D02*
X164004819Y-89202380D01*
X164004819Y-89202380D02*
X164004819Y-88583333D01*
X147023809Y-99228628D02*
X147023809Y-99704819D01*
X146690476Y-98704819D02*
X147023809Y-99228628D01*
X147023809Y-99228628D02*
X147357142Y-98704819D01*
X147642857Y-98800057D02*
X147690476Y-98752438D01*
X147690476Y-98752438D02*
X147785714Y-98704819D01*
X147785714Y-98704819D02*
X148023809Y-98704819D01*
X148023809Y-98704819D02*
X148119047Y-98752438D01*
X148119047Y-98752438D02*
X148166666Y-98800057D01*
X148166666Y-98800057D02*
X148214285Y-98895295D01*
X148214285Y-98895295D02*
X148214285Y-98990533D01*
X148214285Y-98990533D02*
X148166666Y-99133390D01*
X148166666Y-99133390D02*
X147595238Y-99704819D01*
X147595238Y-99704819D02*
X148214285Y-99704819D01*
X139632142Y-101954819D02*
X139298809Y-101478628D01*
X139060714Y-101954819D02*
X139060714Y-100954819D01*
X139060714Y-100954819D02*
X139441666Y-100954819D01*
X139441666Y-100954819D02*
X139536904Y-101002438D01*
X139536904Y-101002438D02*
X139584523Y-101050057D01*
X139584523Y-101050057D02*
X139632142Y-101145295D01*
X139632142Y-101145295D02*
X139632142Y-101288152D01*
X139632142Y-101288152D02*
X139584523Y-101383390D01*
X139584523Y-101383390D02*
X139536904Y-101431009D01*
X139536904Y-101431009D02*
X139441666Y-101478628D01*
X139441666Y-101478628D02*
X139060714Y-101478628D01*
X140584523Y-101954819D02*
X140013095Y-101954819D01*
X140298809Y-101954819D02*
X140298809Y-100954819D01*
X140298809Y-100954819D02*
X140203571Y-101097676D01*
X140203571Y-101097676D02*
X140108333Y-101192914D01*
X140108333Y-101192914D02*
X140013095Y-101240533D01*
X141441666Y-100954819D02*
X141251190Y-100954819D01*
X141251190Y-100954819D02*
X141155952Y-101002438D01*
X141155952Y-101002438D02*
X141108333Y-101050057D01*
X141108333Y-101050057D02*
X141013095Y-101192914D01*
X141013095Y-101192914D02*
X140965476Y-101383390D01*
X140965476Y-101383390D02*
X140965476Y-101764342D01*
X140965476Y-101764342D02*
X141013095Y-101859580D01*
X141013095Y-101859580D02*
X141060714Y-101907200D01*
X141060714Y-101907200D02*
X141155952Y-101954819D01*
X141155952Y-101954819D02*
X141346428Y-101954819D01*
X141346428Y-101954819D02*
X141441666Y-101907200D01*
X141441666Y-101907200D02*
X141489285Y-101859580D01*
X141489285Y-101859580D02*
X141536904Y-101764342D01*
X141536904Y-101764342D02*
X141536904Y-101526247D01*
X141536904Y-101526247D02*
X141489285Y-101431009D01*
X141489285Y-101431009D02*
X141441666Y-101383390D01*
X141441666Y-101383390D02*
X141346428Y-101335771D01*
X141346428Y-101335771D02*
X141155952Y-101335771D01*
X141155952Y-101335771D02*
X141060714Y-101383390D01*
X141060714Y-101383390D02*
X141013095Y-101431009D01*
X141013095Y-101431009D02*
X140965476Y-101526247D01*
X161109580Y-88416666D02*
X161157200Y-88464285D01*
X161157200Y-88464285D02*
X161204819Y-88607142D01*
X161204819Y-88607142D02*
X161204819Y-88702380D01*
X161204819Y-88702380D02*
X161157200Y-88845237D01*
X161157200Y-88845237D02*
X161061961Y-88940475D01*
X161061961Y-88940475D02*
X160966723Y-88988094D01*
X160966723Y-88988094D02*
X160776247Y-89035713D01*
X160776247Y-89035713D02*
X160633390Y-89035713D01*
X160633390Y-89035713D02*
X160442914Y-88988094D01*
X160442914Y-88988094D02*
X160347676Y-88940475D01*
X160347676Y-88940475D02*
X160252438Y-88845237D01*
X160252438Y-88845237D02*
X160204819Y-88702380D01*
X160204819Y-88702380D02*
X160204819Y-88607142D01*
X160204819Y-88607142D02*
X160252438Y-88464285D01*
X160252438Y-88464285D02*
X160300057Y-88416666D01*
X160204819Y-88083332D02*
X160204819Y-87464285D01*
X160204819Y-87464285D02*
X160585771Y-87797618D01*
X160585771Y-87797618D02*
X160585771Y-87654761D01*
X160585771Y-87654761D02*
X160633390Y-87559523D01*
X160633390Y-87559523D02*
X160681009Y-87511904D01*
X160681009Y-87511904D02*
X160776247Y-87464285D01*
X160776247Y-87464285D02*
X161014342Y-87464285D01*
X161014342Y-87464285D02*
X161109580Y-87511904D01*
X161109580Y-87511904D02*
X161157200Y-87559523D01*
X161157200Y-87559523D02*
X161204819Y-87654761D01*
X161204819Y-87654761D02*
X161204819Y-87940475D01*
X161204819Y-87940475D02*
X161157200Y-88035713D01*
X161157200Y-88035713D02*
X161109580Y-88083332D01*
X144355652Y-84946666D02*
X144403272Y-84994285D01*
X144403272Y-84994285D02*
X144450891Y-85137142D01*
X144450891Y-85137142D02*
X144450891Y-85232380D01*
X144450891Y-85232380D02*
X144403272Y-85375237D01*
X144403272Y-85375237D02*
X144308033Y-85470475D01*
X144308033Y-85470475D02*
X144212795Y-85518094D01*
X144212795Y-85518094D02*
X144022319Y-85565713D01*
X144022319Y-85565713D02*
X143879462Y-85565713D01*
X143879462Y-85565713D02*
X143688986Y-85518094D01*
X143688986Y-85518094D02*
X143593748Y-85470475D01*
X143593748Y-85470475D02*
X143498510Y-85375237D01*
X143498510Y-85375237D02*
X143450891Y-85232380D01*
X143450891Y-85232380D02*
X143450891Y-85137142D01*
X143450891Y-85137142D02*
X143498510Y-84994285D01*
X143498510Y-84994285D02*
X143546129Y-84946666D01*
X143546129Y-84565713D02*
X143498510Y-84518094D01*
X143498510Y-84518094D02*
X143450891Y-84422856D01*
X143450891Y-84422856D02*
X143450891Y-84184761D01*
X143450891Y-84184761D02*
X143498510Y-84089523D01*
X143498510Y-84089523D02*
X143546129Y-84041904D01*
X143546129Y-84041904D02*
X143641367Y-83994285D01*
X143641367Y-83994285D02*
X143736605Y-83994285D01*
X143736605Y-83994285D02*
X143879462Y-84041904D01*
X143879462Y-84041904D02*
X144450891Y-84613332D01*
X144450891Y-84613332D02*
X144450891Y-83994285D01*
X167454819Y-75916666D02*
X166978628Y-76249999D01*
X167454819Y-76488094D02*
X166454819Y-76488094D01*
X166454819Y-76488094D02*
X166454819Y-76107142D01*
X166454819Y-76107142D02*
X166502438Y-76011904D01*
X166502438Y-76011904D02*
X166550057Y-75964285D01*
X166550057Y-75964285D02*
X166645295Y-75916666D01*
X166645295Y-75916666D02*
X166788152Y-75916666D01*
X166788152Y-75916666D02*
X166883390Y-75964285D01*
X166883390Y-75964285D02*
X166931009Y-76011904D01*
X166931009Y-76011904D02*
X166978628Y-76107142D01*
X166978628Y-76107142D02*
X166978628Y-76488094D01*
X167454819Y-75440475D02*
X167454819Y-75249999D01*
X167454819Y-75249999D02*
X167407200Y-75154761D01*
X167407200Y-75154761D02*
X167359580Y-75107142D01*
X167359580Y-75107142D02*
X167216723Y-75011904D01*
X167216723Y-75011904D02*
X167026247Y-74964285D01*
X167026247Y-74964285D02*
X166645295Y-74964285D01*
X166645295Y-74964285D02*
X166550057Y-75011904D01*
X166550057Y-75011904D02*
X166502438Y-75059523D01*
X166502438Y-75059523D02*
X166454819Y-75154761D01*
X166454819Y-75154761D02*
X166454819Y-75345237D01*
X166454819Y-75345237D02*
X166502438Y-75440475D01*
X166502438Y-75440475D02*
X166550057Y-75488094D01*
X166550057Y-75488094D02*
X166645295Y-75535713D01*
X166645295Y-75535713D02*
X166883390Y-75535713D01*
X166883390Y-75535713D02*
X166978628Y-75488094D01*
X166978628Y-75488094D02*
X167026247Y-75440475D01*
X167026247Y-75440475D02*
X167073866Y-75345237D01*
X167073866Y-75345237D02*
X167073866Y-75154761D01*
X167073866Y-75154761D02*
X167026247Y-75059523D01*
X167026247Y-75059523D02*
X166978628Y-75011904D01*
X166978628Y-75011904D02*
X166883390Y-74964285D01*
X139166666Y-81204819D02*
X139166666Y-81919104D01*
X139166666Y-81919104D02*
X139119047Y-82061961D01*
X139119047Y-82061961D02*
X139023809Y-82157200D01*
X139023809Y-82157200D02*
X138880952Y-82204819D01*
X138880952Y-82204819D02*
X138785714Y-82204819D01*
X140166666Y-82204819D02*
X139595238Y-82204819D01*
X139880952Y-82204819D02*
X139880952Y-81204819D01*
X139880952Y-81204819D02*
X139785714Y-81347676D01*
X139785714Y-81347676D02*
X139690476Y-81442914D01*
X139690476Y-81442914D02*
X139595238Y-81490533D01*
X162238095Y-92954819D02*
X162238095Y-93764342D01*
X162238095Y-93764342D02*
X162285714Y-93859580D01*
X162285714Y-93859580D02*
X162333333Y-93907200D01*
X162333333Y-93907200D02*
X162428571Y-93954819D01*
X162428571Y-93954819D02*
X162619047Y-93954819D01*
X162619047Y-93954819D02*
X162714285Y-93907200D01*
X162714285Y-93907200D02*
X162761904Y-93859580D01*
X162761904Y-93859580D02*
X162809523Y-93764342D01*
X162809523Y-93764342D02*
X162809523Y-92954819D01*
X163809523Y-93954819D02*
X163238095Y-93954819D01*
X163523809Y-93954819D02*
X163523809Y-92954819D01*
X163523809Y-92954819D02*
X163428571Y-93097676D01*
X163428571Y-93097676D02*
X163333333Y-93192914D01*
X163333333Y-93192914D02*
X163238095Y-93240533D01*
X146738095Y-90704819D02*
X146738095Y-91514342D01*
X146738095Y-91514342D02*
X146785714Y-91609580D01*
X146785714Y-91609580D02*
X146833333Y-91657200D01*
X146833333Y-91657200D02*
X146928571Y-91704819D01*
X146928571Y-91704819D02*
X147119047Y-91704819D01*
X147119047Y-91704819D02*
X147214285Y-91657200D01*
X147214285Y-91657200D02*
X147261904Y-91609580D01*
X147261904Y-91609580D02*
X147309523Y-91514342D01*
X147309523Y-91514342D02*
X147309523Y-90704819D01*
X148261904Y-90704819D02*
X147785714Y-90704819D01*
X147785714Y-90704819D02*
X147738095Y-91181009D01*
X147738095Y-91181009D02*
X147785714Y-91133390D01*
X147785714Y-91133390D02*
X147880952Y-91085771D01*
X147880952Y-91085771D02*
X148119047Y-91085771D01*
X148119047Y-91085771D02*
X148214285Y-91133390D01*
X148214285Y-91133390D02*
X148261904Y-91181009D01*
X148261904Y-91181009D02*
X148309523Y-91276247D01*
X148309523Y-91276247D02*
X148309523Y-91514342D01*
X148309523Y-91514342D02*
X148261904Y-91609580D01*
X148261904Y-91609580D02*
X148214285Y-91657200D01*
X148214285Y-91657200D02*
X148119047Y-91704819D01*
X148119047Y-91704819D02*
X147880952Y-91704819D01*
X147880952Y-91704819D02*
X147785714Y-91657200D01*
X147785714Y-91657200D02*
X147738095Y-91609580D01*
X138109580Y-96212857D02*
X138157200Y-96260476D01*
X138157200Y-96260476D02*
X138204819Y-96403333D01*
X138204819Y-96403333D02*
X138204819Y-96498571D01*
X138204819Y-96498571D02*
X138157200Y-96641428D01*
X138157200Y-96641428D02*
X138061961Y-96736666D01*
X138061961Y-96736666D02*
X137966723Y-96784285D01*
X137966723Y-96784285D02*
X137776247Y-96831904D01*
X137776247Y-96831904D02*
X137633390Y-96831904D01*
X137633390Y-96831904D02*
X137442914Y-96784285D01*
X137442914Y-96784285D02*
X137347676Y-96736666D01*
X137347676Y-96736666D02*
X137252438Y-96641428D01*
X137252438Y-96641428D02*
X137204819Y-96498571D01*
X137204819Y-96498571D02*
X137204819Y-96403333D01*
X137204819Y-96403333D02*
X137252438Y-96260476D01*
X137252438Y-96260476D02*
X137300057Y-96212857D01*
X138204819Y-95260476D02*
X138204819Y-95831904D01*
X138204819Y-95546190D02*
X137204819Y-95546190D01*
X137204819Y-95546190D02*
X137347676Y-95641428D01*
X137347676Y-95641428D02*
X137442914Y-95736666D01*
X137442914Y-95736666D02*
X137490533Y-95831904D01*
X137204819Y-94927142D02*
X137204819Y-94308095D01*
X137204819Y-94308095D02*
X137585771Y-94641428D01*
X137585771Y-94641428D02*
X137585771Y-94498571D01*
X137585771Y-94498571D02*
X137633390Y-94403333D01*
X137633390Y-94403333D02*
X137681009Y-94355714D01*
X137681009Y-94355714D02*
X137776247Y-94308095D01*
X137776247Y-94308095D02*
X138014342Y-94308095D01*
X138014342Y-94308095D02*
X138109580Y-94355714D01*
X138109580Y-94355714D02*
X138157200Y-94403333D01*
X138157200Y-94403333D02*
X138204819Y-94498571D01*
X138204819Y-94498571D02*
X138204819Y-94784285D01*
X138204819Y-94784285D02*
X138157200Y-94879523D01*
X138157200Y-94879523D02*
X138109580Y-94927142D01*
X139359580Y-79392857D02*
X139407200Y-79440476D01*
X139407200Y-79440476D02*
X139454819Y-79583333D01*
X139454819Y-79583333D02*
X139454819Y-79678571D01*
X139454819Y-79678571D02*
X139407200Y-79821428D01*
X139407200Y-79821428D02*
X139311961Y-79916666D01*
X139311961Y-79916666D02*
X139216723Y-79964285D01*
X139216723Y-79964285D02*
X139026247Y-80011904D01*
X139026247Y-80011904D02*
X138883390Y-80011904D01*
X138883390Y-80011904D02*
X138692914Y-79964285D01*
X138692914Y-79964285D02*
X138597676Y-79916666D01*
X138597676Y-79916666D02*
X138502438Y-79821428D01*
X138502438Y-79821428D02*
X138454819Y-79678571D01*
X138454819Y-79678571D02*
X138454819Y-79583333D01*
X138454819Y-79583333D02*
X138502438Y-79440476D01*
X138502438Y-79440476D02*
X138550057Y-79392857D01*
X139454819Y-78440476D02*
X139454819Y-79011904D01*
X139454819Y-78726190D02*
X138454819Y-78726190D01*
X138454819Y-78726190D02*
X138597676Y-78821428D01*
X138597676Y-78821428D02*
X138692914Y-78916666D01*
X138692914Y-78916666D02*
X138740533Y-79011904D01*
X138788152Y-77583333D02*
X139454819Y-77583333D01*
X138407200Y-77821428D02*
X139121485Y-78059523D01*
X139121485Y-78059523D02*
X139121485Y-77440476D01*
X157727080Y-96350357D02*
X157774700Y-96397976D01*
X157774700Y-96397976D02*
X157822319Y-96540833D01*
X157822319Y-96540833D02*
X157822319Y-96636071D01*
X157822319Y-96636071D02*
X157774700Y-96778928D01*
X157774700Y-96778928D02*
X157679461Y-96874166D01*
X157679461Y-96874166D02*
X157584223Y-96921785D01*
X157584223Y-96921785D02*
X157393747Y-96969404D01*
X157393747Y-96969404D02*
X157250890Y-96969404D01*
X157250890Y-96969404D02*
X157060414Y-96921785D01*
X157060414Y-96921785D02*
X156965176Y-96874166D01*
X156965176Y-96874166D02*
X156869938Y-96778928D01*
X156869938Y-96778928D02*
X156822319Y-96636071D01*
X156822319Y-96636071D02*
X156822319Y-96540833D01*
X156822319Y-96540833D02*
X156869938Y-96397976D01*
X156869938Y-96397976D02*
X156917557Y-96350357D01*
X157822319Y-95397976D02*
X157822319Y-95969404D01*
X157822319Y-95683690D02*
X156822319Y-95683690D01*
X156822319Y-95683690D02*
X156965176Y-95778928D01*
X156965176Y-95778928D02*
X157060414Y-95874166D01*
X157060414Y-95874166D02*
X157108033Y-95969404D01*
X156822319Y-94778928D02*
X156822319Y-94683690D01*
X156822319Y-94683690D02*
X156869938Y-94588452D01*
X156869938Y-94588452D02*
X156917557Y-94540833D01*
X156917557Y-94540833D02*
X157012795Y-94493214D01*
X157012795Y-94493214D02*
X157203271Y-94445595D01*
X157203271Y-94445595D02*
X157441366Y-94445595D01*
X157441366Y-94445595D02*
X157631842Y-94493214D01*
X157631842Y-94493214D02*
X157727080Y-94540833D01*
X157727080Y-94540833D02*
X157774700Y-94588452D01*
X157774700Y-94588452D02*
X157822319Y-94683690D01*
X157822319Y-94683690D02*
X157822319Y-94778928D01*
X157822319Y-94778928D02*
X157774700Y-94874166D01*
X157774700Y-94874166D02*
X157727080Y-94921785D01*
X157727080Y-94921785D02*
X157631842Y-94969404D01*
X157631842Y-94969404D02*
X157441366Y-95017023D01*
X157441366Y-95017023D02*
X157203271Y-95017023D01*
X157203271Y-95017023D02*
X157012795Y-94969404D01*
X157012795Y-94969404D02*
X156917557Y-94921785D01*
X156917557Y-94921785D02*
X156869938Y-94874166D01*
X156869938Y-94874166D02*
X156822319Y-94778928D01*
D11*
%TO.C,C1*%
X145240000Y-89108767D02*
X145240000Y-88816233D01*
X146260000Y-89108767D02*
X146260000Y-88816233D01*
%TO.C,D1*%
X143325000Y-100735000D02*
X145785000Y-100735000D01*
X145785000Y-99265000D02*
X143325000Y-99265000D01*
X145785000Y-100735000D02*
X145785000Y-99265000D01*
%TO.C,C11*%
X158700000Y-84283767D02*
X158700000Y-83991233D01*
X159720000Y-84283767D02*
X159720000Y-83991233D01*
D12*
%TO.C,S2*%
X141400000Y-73450000D02*
X142400000Y-73450000D01*
X141400000Y-79550000D02*
X141400000Y-73450000D01*
X142400000Y-79550000D02*
X141400000Y-79550000D01*
X144100000Y-79550000D02*
X145100000Y-79550000D01*
X145100000Y-73450000D02*
X144100000Y-73450000D01*
X145100000Y-79550000D02*
X145100000Y-73450000D01*
D13*
X142140000Y-81220000D02*
G75*
G02*
X141940000Y-81220000I-100000J0D01*
G01*
X141940000Y-81220000D02*
G75*
G02*
X142140000Y-81220000I100000J0D01*
G01*
D12*
%TO.C,S1*%
X160400000Y-72950000D02*
X160400000Y-79050000D01*
X160400000Y-79050000D02*
X161400000Y-79050000D01*
X161400000Y-72950000D02*
X160400000Y-72950000D01*
X163100000Y-72950000D02*
X164100000Y-72950000D01*
X164100000Y-72950000D02*
X164100000Y-79050000D01*
X164100000Y-79050000D02*
X163100000Y-79050000D01*
D13*
X163560000Y-71280000D02*
G75*
G02*
X163360000Y-71280000I-100000J0D01*
G01*
X163360000Y-71280000D02*
G75*
G02*
X163560000Y-71280000I100000J0D01*
G01*
D11*
%TO.C,J6*%
X147580000Y-74850000D02*
X147580000Y-76550000D01*
X156920000Y-74850000D02*
X156920000Y-76550000D01*
%TO.C,J2*%
X164690000Y-91250000D02*
X164690000Y-85190000D01*
X164690000Y-93310000D02*
X164690000Y-92250000D01*
X165750000Y-93310000D02*
X164690000Y-93310000D01*
X166810000Y-85190000D02*
X164690000Y-85190000D01*
X166810000Y-91250000D02*
X164690000Y-91250000D01*
X166810000Y-91250000D02*
X166810000Y-85190000D01*
%TO.C,Y2*%
X140990000Y-92890000D02*
X140990000Y-98110000D01*
X140990000Y-98110000D02*
X153710000Y-98110000D01*
X153710000Y-92890000D02*
X140990000Y-92890000D01*
%TO.C,R16*%
X140342224Y-99477500D02*
X139832776Y-99477500D01*
X140342224Y-100522500D02*
X139832776Y-100522500D01*
%TO.C,C3*%
X158700000Y-88216233D02*
X158700000Y-88508767D01*
X159720000Y-88216233D02*
X159720000Y-88508767D01*
%TO.C,C2*%
X145103572Y-84996267D02*
X145103572Y-84703733D01*
X146123572Y-84996267D02*
X146123572Y-84703733D01*
%TO.C,R9*%
X164977500Y-75407776D02*
X164977500Y-75917224D01*
X166022500Y-75407776D02*
X166022500Y-75917224D01*
%TO.C,J1*%
X138190000Y-84750000D02*
X138190000Y-90810000D01*
X138190000Y-84750000D02*
X140310000Y-84750000D01*
X138190000Y-90810000D02*
X140310000Y-90810000D01*
X139250000Y-82690000D02*
X140310000Y-82690000D01*
X140310000Y-82690000D02*
X140310000Y-83750000D01*
X140310000Y-84750000D02*
X140310000Y-90810000D01*
%TO.C,U1*%
X161000000Y-94590000D02*
X164760000Y-94590000D01*
X161000000Y-101410000D02*
X164760000Y-101410000D01*
X164760000Y-94590000D02*
X164760000Y-95850000D01*
X164760000Y-101410000D02*
X164760000Y-100150000D01*
X159720000Y-94690000D02*
X159480000Y-94360000D01*
X159960000Y-94360000D01*
X159720000Y-94690000D01*
G36*
X159720000Y-94690000D02*
G01*
X159480000Y-94360000D01*
X159960000Y-94360000D01*
X159720000Y-94690000D01*
G37*
%TO.C,U5*%
X148937888Y-82740000D02*
X149387888Y-82740000D01*
X148937888Y-83190000D02*
X148937888Y-82740000D01*
X148937888Y-89960000D02*
X148937888Y-89510000D01*
X149387888Y-89960000D02*
X148937888Y-89960000D01*
X155707888Y-82740000D02*
X156157888Y-82740000D01*
X156157888Y-82740000D02*
X156157888Y-83190000D01*
X156157888Y-89510000D02*
X156157888Y-89960000D01*
X156157888Y-89960000D02*
X155707888Y-89960000D01*
X149387888Y-90600000D02*
X148917888Y-90940000D01*
X148917888Y-90260000D01*
X149387888Y-90600000D01*
G36*
X149387888Y-90600000D02*
G01*
X148917888Y-90940000D01*
X148917888Y-90260000D01*
X149387888Y-90600000D01*
G37*
%TO.C,C13*%
X138740000Y-95491233D02*
X138740000Y-95783767D01*
X139760000Y-95491233D02*
X139760000Y-95783767D01*
%TO.C,C14*%
X138490000Y-75603733D02*
X138490000Y-75896267D01*
X139510000Y-75603733D02*
X139510000Y-75896267D01*
%TO.C,C10*%
X155240000Y-95491233D02*
X155240000Y-95783767D01*
X156260000Y-95491233D02*
X156260000Y-95783767D01*
%TD*%
M02*
