%TF.GenerationSoftware,KiCad,Pcbnew,9.0.7*%
%TF.CreationDate,2026-02-19T20:57:42+05:30*%
%TF.ProjectId,pcb-n-as5600,7063622d-6e2d-4617-9335-3630302e6b69,rev?*%
%TF.SameCoordinates,Original*%
%TF.FileFunction,Soldermask,Bot*%
%TF.FilePolarity,Negative*%
%FSLAX46Y46*%
G04 Gerber Fmt 4.6, Leading zero omitted, Abs format (unit mm)*
G04 Created by KiCad (PCBNEW 9.0.7) date 2026-02-19 20:57:42*
%MOMM*%
%LPD*%
G01*
G04 APERTURE LIST*
G04 Aperture macros list*
%AMRoundRect*
0 Rectangle with rounded corners*
0 $1 Rounding radius*
0 $2 $3 $4 $5 $6 $7 $8 $9 X,Y pos of 4 corners*
0 Add a 4 corners polygon primitive as box body*
4,1,4,$2,$3,$4,$5,$6,$7,$8,$9,$2,$3,0*
0 Add four circle primitives for the rounded corners*
1,1,$1+$1,$2,$3*
1,1,$1+$1,$4,$5*
1,1,$1+$1,$6,$7*
1,1,$1+$1,$8,$9*
0 Add four rect primitives between the rounded corners*
20,1,$1+$1,$2,$3,$4,$5,0*
20,1,$1+$1,$4,$5,$6,$7,0*
20,1,$1+$1,$6,$7,$8,$9,0*
20,1,$1+$1,$8,$9,$2,$3,0*%
G04 Aperture macros list end*
%ADD10RoundRect,0.237500X-0.250000X-0.237500X0.250000X-0.237500X0.250000X0.237500X-0.250000X0.237500X0*%
%ADD11C,0.650000*%
%ADD12O,1.000000X2.100000*%
%ADD13O,1.000000X1.800000*%
%ADD14C,6.400000*%
%ADD15R,1.350000X1.350000*%
%ADD16C,1.350000*%
%ADD17RoundRect,0.237500X0.237500X-0.300000X0.237500X0.300000X-0.237500X0.300000X-0.237500X-0.300000X0*%
%ADD18RoundRect,0.237500X0.300000X0.237500X-0.300000X0.237500X-0.300000X-0.237500X0.300000X-0.237500X0*%
%ADD19RoundRect,0.237500X-0.237500X0.250000X-0.237500X-0.250000X0.237500X-0.250000X0.237500X0.250000X0*%
%ADD20RoundRect,0.102000X-0.750000X0.300000X-0.750000X-0.300000X0.750000X-0.300000X0.750000X0.300000X0*%
%ADD21RoundRect,0.237500X0.237500X-0.250000X0.237500X0.250000X-0.237500X0.250000X-0.237500X-0.250000X0*%
%ADD22RoundRect,0.237500X-0.300000X-0.237500X0.300000X-0.237500X0.300000X0.237500X-0.300000X0.237500X0*%
G04 APERTURE END LIST*
D10*
%TO.C,R1*%
X158662500Y-91500000D03*
X156837500Y-91500000D03*
%TD*%
D11*
%TO.C,J6*%
X155140000Y-77355000D03*
X149360000Y-77355000D03*
D12*
X156570000Y-77855000D03*
D13*
X156570000Y-73675000D03*
D12*
X147930000Y-77855000D03*
D13*
X147930000Y-73675000D03*
%TD*%
D14*
%TO.C,H2*%
X134250000Y-68250000D03*
%TD*%
D15*
%TO.C,J2*%
X165750000Y-92250000D03*
D16*
X165750000Y-90250000D03*
X165750000Y-88250000D03*
X165750000Y-86250000D03*
%TD*%
D14*
%TO.C,H1*%
X134500000Y-105500000D03*
%TD*%
%TO.C,H4*%
X170250000Y-105250000D03*
%TD*%
%TO.C,H3*%
X171000000Y-68750000D03*
%TD*%
D15*
%TO.C,J1*%
X139250000Y-83750000D03*
D16*
X139250000Y-85750000D03*
X139250000Y-87750000D03*
X139250000Y-89750000D03*
%TD*%
D17*
%TO.C,C4*%
X163000000Y-101612500D03*
X163000000Y-99887500D03*
%TD*%
D18*
%TO.C,C7*%
X163225000Y-93500000D03*
X161500000Y-93500000D03*
%TD*%
D19*
%TO.C,R3*%
X164500000Y-96337500D03*
X164500000Y-98162500D03*
%TD*%
D20*
%TO.C,U4*%
X155250000Y-84500000D03*
X155250000Y-85770000D03*
X155250000Y-87040000D03*
X155250000Y-88310000D03*
X149750000Y-88310000D03*
X149750000Y-87040000D03*
X149750000Y-85770000D03*
X149750000Y-84500000D03*
%TD*%
D19*
%TO.C,R2*%
X161750000Y-82250000D03*
X161750000Y-84075000D03*
%TD*%
D21*
%TO.C,R13*%
X143500000Y-89825000D03*
X143500000Y-88000000D03*
%TD*%
D10*
%TO.C,R8*%
X164750000Y-80250000D03*
X166575000Y-80250000D03*
%TD*%
D19*
%TO.C,R4*%
X161000000Y-96425000D03*
X161000000Y-98250000D03*
%TD*%
D22*
%TO.C,C8*%
X164475000Y-82700000D03*
X166200000Y-82700000D03*
%TD*%
D19*
%TO.C,R7*%
X143500000Y-84000000D03*
X143500000Y-85825000D03*
%TD*%
D21*
%TO.C,R11*%
X161750000Y-89500000D03*
X161750000Y-87675000D03*
%TD*%
M02*
