M48
; DRILL file {KiCad 9.0.7} date 2026-02-19T19:25:31+0530
; FORMAT={-:-/ absolute / metric / decimal}
; #@! TF.CreationDate,2026-02-19T19:25:31+05:30
; #@! TF.GenerationSoftware,Kicad,Pcbnew,9.0.7
; #@! TF.FileFunction,Plated,1,2,PTH
FMAT,2
METRIC
; #@! TA.AperFunction,Plated,PTH,ViaDrill
T1C0.300
; #@! TA.AperFunction,Plated,PTH,ComponentDrill
T2C0.600
; #@! TA.AperFunction,Plated,PTH,ComponentDrill
T3C0.800
; #@! TA.AperFunction,Plated,PTH,ComponentDrill
T4C3.200
%
G90
G05
T1
X137.9Y-81.0
X140.5Y-80.0
X142.75Y-81.75
X144.25Y-90.75
X146.0Y-81.0
X146.25Y-86.75
X147.0Y-85.65
X147.0Y-87.25
X147.003Y-84.753
X147.1Y-88.25
X148.0Y-80.25
X148.0Y-90.0
X148.5Y-81.75
X148.5Y-92.0
X149.25Y-99.2
X149.25Y-100.0
X150.75Y-80.0
X152.0Y-80.0
X153.25Y-80.75
X153.25Y-92.25
X153.75Y-83.5
X154.25Y-99.25
X154.45Y-92.0
X154.875Y-80.375
X155.25Y-92.0
X156.54Y-82.666
X156.75Y-98.5
X157.75Y-95.75
X157.75Y-100.25
X157.976Y-89.574
X158.0Y-88.75
X158.5Y-77.75
X158.75Y-73.5
X160.75Y-80.0
X161.75Y-81.0
T3
X139.25Y-83.75
X139.25Y-85.75
X139.25Y-87.75
X139.25Y-89.75
X165.75Y-86.25
X165.75Y-88.25
X165.75Y-90.25
X165.75Y-92.25
T4
X134.25Y-68.5
X134.5Y-105.5
X170.25Y-105.25
X171.0Y-68.75
T2
G00X147.93Y-74.075
M15
G01X147.93Y-73.275
M16
G05
G00X147.93Y-78.405
M15
G01X147.93Y-77.305
M16
G05
G00X156.57Y-74.075
M15
G01X156.57Y-73.275
M16
G05
G00X156.57Y-78.405
M15
G01X156.57Y-77.305
M16
G05
M30
